G04 #@! TF.GenerationSoftware,KiCad,Pcbnew,(6.0.5)*
G04 #@! TF.CreationDate,2022-07-11T19:37:47+02:00*
G04 #@! TF.ProjectId,Numpad,4e756d70-6164-42e6-9b69-6361645f7063,rev?*
G04 #@! TF.SameCoordinates,Original*
G04 #@! TF.FileFunction,Legend,Top*
G04 #@! TF.FilePolarity,Positive*
%FSLAX46Y46*%
G04 Gerber Fmt 4.6, Leading zero omitted, Abs format (unit mm)*
G04 Created by KiCad (PCBNEW (6.0.5)) date 2022-07-11 19:37:47*
%MOMM*%
%LPD*%
G01*
G04 APERTURE LIST*
G04 Aperture macros list*
%AMRoundRect*
0 Rectangle with rounded corners*
0 $1 Rounding radius*
0 $2 $3 $4 $5 $6 $7 $8 $9 X,Y pos of 4 corners*
0 Add a 4 corners polygon primitive as box body*
4,1,4,$2,$3,$4,$5,$6,$7,$8,$9,$2,$3,0*
0 Add four circle primitives for the rounded corners*
1,1,$1+$1,$2,$3*
1,1,$1+$1,$4,$5*
1,1,$1+$1,$6,$7*
1,1,$1+$1,$8,$9*
0 Add four rect primitives between the rounded corners*
20,1,$1+$1,$2,$3,$4,$5,0*
20,1,$1+$1,$4,$5,$6,$7,0*
20,1,$1+$1,$6,$7,$8,$9,0*
20,1,$1+$1,$8,$9,$2,$3,0*%
G04 Aperture macros list end*
%ADD10C,0.120000*%
%ADD11C,0.150000*%
%ADD12C,0.127000*%
%ADD13C,0.200000*%
%ADD14R,0.700000X0.600000*%
%ADD15C,3.000000*%
%ADD16C,4.000000*%
%ADD17C,3.048000*%
%ADD18C,3.987800*%
%ADD19R,0.650000X0.600000*%
%ADD20RoundRect,0.135000X-0.135000X-0.185000X0.135000X-0.185000X0.135000X0.185000X-0.135000X0.185000X0*%
%ADD21RoundRect,0.135000X0.135000X0.185000X-0.135000X0.185000X-0.135000X-0.185000X0.135000X-0.185000X0*%
%ADD22RoundRect,0.008100X-0.126900X0.421900X-0.126900X-0.421900X0.126900X-0.421900X0.126900X0.421900X0*%
%ADD23RoundRect,0.008100X-0.421900X-0.126900X0.421900X-0.126900X0.421900X0.126900X-0.421900X0.126900X0*%
%ADD24R,4.100000X4.100000*%
%ADD25R,1.700000X1.700000*%
%ADD26O,1.700000X1.700000*%
%ADD27RoundRect,0.140000X-0.140000X-0.170000X0.140000X-0.170000X0.140000X0.170000X-0.140000X0.170000X0*%
%ADD28RoundRect,0.062500X-0.350000X-0.062500X0.350000X-0.062500X0.350000X0.062500X-0.350000X0.062500X0*%
%ADD29RoundRect,0.062500X-0.062500X-0.350000X0.062500X-0.350000X0.062500X0.350000X-0.062500X0.350000X0*%
%ADD30RoundRect,0.242500X-0.242500X-0.242500X0.242500X-0.242500X0.242500X0.242500X-0.242500X0.242500X0*%
%ADD31RoundRect,0.140000X0.140000X0.170000X-0.140000X0.170000X-0.140000X-0.170000X0.140000X-0.170000X0*%
G04 APERTURE END LIST*
D10*
X26689000Y-60610000D02*
X25489000Y-60610000D01*
X25489000Y-62460000D02*
X25489000Y-60610000D01*
X26689000Y-62460000D02*
X26689000Y-60610000D01*
D11*
X48994000Y-128960000D02*
X62544000Y-128960000D01*
D10*
X45264000Y-133520000D02*
X42764000Y-133520000D01*
D11*
X48994000Y-146960000D02*
X62544000Y-146960000D01*
X25494000Y-128960000D02*
X25494000Y-133460000D01*
X25494000Y-146960000D02*
X39044000Y-146960000D01*
X37019000Y-144960000D02*
X37019000Y-130960000D01*
X37019000Y-130960000D02*
X51019000Y-130960000D01*
X25494000Y-142460000D02*
X25494000Y-146960000D01*
X62544000Y-133460000D02*
X62544000Y-128960000D01*
X51019000Y-130960000D02*
X51019000Y-144960000D01*
X51019000Y-144960000D02*
X37019000Y-144960000D01*
D10*
X45264000Y-132270000D02*
X42764000Y-132270000D01*
X42764000Y-132270000D02*
X42764000Y-133520000D01*
X45264000Y-133520000D02*
X45264000Y-132270000D01*
D11*
X25494000Y-128960000D02*
X39044000Y-128960000D01*
X62544000Y-142460000D02*
X62544000Y-146960000D01*
D10*
X71794000Y-95595000D02*
X71794000Y-93995000D01*
X73394000Y-95595000D02*
X73394000Y-93995000D01*
X73394000Y-95595000D02*
X71794000Y-95595000D01*
X71794000Y-93995000D02*
X73394000Y-93995000D01*
X73394000Y-93995000D02*
X73394000Y-95595000D01*
X36930359Y-30606000D02*
X37237641Y-30606000D01*
X36930359Y-29846000D02*
X37237641Y-29846000D01*
X37237641Y-33148000D02*
X36930359Y-33148000D01*
X37237641Y-33908000D02*
X36930359Y-33908000D01*
D12*
X34564000Y-32913000D02*
X34564000Y-33258000D01*
X34564000Y-39013000D02*
X34564000Y-38668000D01*
X28464000Y-39013000D02*
X28464000Y-38668000D01*
X34564000Y-39013000D02*
X34219000Y-39013000D01*
X28464000Y-32913000D02*
X28809000Y-32913000D01*
X28464000Y-39013000D02*
X28809000Y-39013000D01*
X34564000Y-32913000D02*
X34219000Y-32913000D01*
X28464000Y-32913000D02*
X28464000Y-33258000D01*
D13*
X33864000Y-31968000D02*
G75*
G03*
X33864000Y-31968000I-100000J0D01*
G01*
D10*
X45739000Y-98710000D02*
X44539000Y-98710000D01*
X45739000Y-100560000D02*
X45739000Y-98710000D01*
X44539000Y-100560000D02*
X44539000Y-98710000D01*
X69853641Y-108380000D02*
X69546359Y-108380000D01*
X69853641Y-107620000D02*
X69546359Y-107620000D01*
X54789000Y-114470000D02*
X52289000Y-114470000D01*
X54789000Y-114470000D02*
X54789000Y-113220000D01*
D11*
X46539000Y-125915000D02*
X46539000Y-111915000D01*
X44544000Y-109910000D02*
X48544000Y-109910000D01*
X60539000Y-125915000D02*
X46539000Y-125915000D01*
X46539000Y-111915000D02*
X60539000Y-111915000D01*
X44544000Y-123410000D02*
X44544000Y-127910000D01*
X62544000Y-123410000D02*
X62544000Y-127910000D01*
X44544000Y-109910000D02*
X44544000Y-114410000D01*
X62544000Y-109910000D02*
X58544000Y-109910000D01*
X58544000Y-127910000D02*
X62544000Y-127910000D01*
D10*
X54789000Y-113220000D02*
X52289000Y-113220000D01*
D11*
X44544000Y-127910000D02*
X48544000Y-127910000D01*
X62544000Y-114410000D02*
X62544000Y-109910000D01*
X60539000Y-111915000D02*
X60539000Y-125915000D01*
D10*
X52289000Y-113220000D02*
X52289000Y-114470000D01*
X73839000Y-133520000D02*
X71339000Y-133520000D01*
D11*
X63594000Y-128960000D02*
X63594000Y-133460000D01*
X79589000Y-130965000D02*
X79589000Y-144965000D01*
D10*
X73839000Y-132270000D02*
X71339000Y-132270000D01*
D11*
X81594000Y-142460000D02*
X81594000Y-146960000D01*
X63594000Y-128960000D02*
X67594000Y-128960000D01*
X63594000Y-142460000D02*
X63594000Y-146960000D01*
D10*
X71339000Y-132270000D02*
X71339000Y-133520000D01*
D11*
X63594000Y-146960000D02*
X67594000Y-146960000D01*
X81594000Y-128960000D02*
X77594000Y-128960000D01*
X65589000Y-130965000D02*
X79589000Y-130965000D01*
X65589000Y-144965000D02*
X65589000Y-130965000D01*
X77594000Y-146960000D02*
X81594000Y-146960000D01*
D10*
X73839000Y-133520000D02*
X73839000Y-132270000D01*
D11*
X79589000Y-144965000D02*
X65589000Y-144965000D01*
X81594000Y-133460000D02*
X81594000Y-128960000D01*
D10*
X71794000Y-55895000D02*
X73394000Y-55895000D01*
X73394000Y-57495000D02*
X71794000Y-57495000D01*
X71794000Y-57495000D02*
X71794000Y-55895000D01*
X73394000Y-57495000D02*
X73394000Y-55895000D01*
X73394000Y-55895000D02*
X73394000Y-57495000D01*
X35294000Y-114645000D02*
X33694000Y-114645000D01*
X35294000Y-114645000D02*
X35294000Y-113045000D01*
X33694000Y-113045000D02*
X35294000Y-113045000D01*
X33694000Y-114645000D02*
X33694000Y-113045000D01*
X35294000Y-113045000D02*
X35294000Y-114645000D01*
D11*
X44544000Y-52760000D02*
X44544000Y-57260000D01*
X62544000Y-66260000D02*
X62544000Y-70760000D01*
X60539000Y-54765000D02*
X60539000Y-68765000D01*
X62544000Y-57260000D02*
X62544000Y-52760000D01*
D10*
X54789000Y-57320000D02*
X54789000Y-56070000D01*
D11*
X44544000Y-52760000D02*
X48544000Y-52760000D01*
X46539000Y-54765000D02*
X60539000Y-54765000D01*
D10*
X54789000Y-56070000D02*
X52289000Y-56070000D01*
X54789000Y-57320000D02*
X52289000Y-57320000D01*
X52289000Y-56070000D02*
X52289000Y-57320000D01*
D11*
X62544000Y-52760000D02*
X58544000Y-52760000D01*
X60539000Y-68765000D02*
X46539000Y-68765000D01*
X44544000Y-70760000D02*
X48544000Y-70760000D01*
X46539000Y-68765000D02*
X46539000Y-54765000D01*
X58544000Y-70760000D02*
X62544000Y-70760000D01*
X44544000Y-66260000D02*
X44544000Y-70760000D01*
D10*
X25489000Y-81510000D02*
X25489000Y-79660000D01*
X26689000Y-79660000D02*
X25489000Y-79660000D01*
X26689000Y-81510000D02*
X26689000Y-79660000D01*
X64789000Y-98710000D02*
X63589000Y-98710000D01*
X63589000Y-100560000D02*
X63589000Y-98710000D01*
X64789000Y-100560000D02*
X64789000Y-98710000D01*
X63589000Y-62460000D02*
X63589000Y-60610000D01*
X64789000Y-60610000D02*
X63589000Y-60610000D01*
X64789000Y-62460000D02*
X64789000Y-60610000D01*
X54344000Y-57495000D02*
X54344000Y-55895000D01*
X52744000Y-55895000D02*
X54344000Y-55895000D01*
X54344000Y-55895000D02*
X54344000Y-57495000D01*
X54344000Y-57495000D02*
X52744000Y-57495000D01*
X52744000Y-57495000D02*
X52744000Y-55895000D01*
D11*
X84644000Y-135435000D02*
X84644000Y-121435000D01*
X82644000Y-123460000D02*
X82644000Y-109910000D01*
X87144000Y-109910000D02*
X82644000Y-109910000D01*
X96144000Y-146960000D02*
X100644000Y-146960000D01*
D10*
X90389000Y-122745000D02*
X90389000Y-123995000D01*
D11*
X98644000Y-121435000D02*
X98644000Y-135435000D01*
X82644000Y-146960000D02*
X87144000Y-146960000D01*
X82644000Y-146960000D02*
X82644000Y-133410000D01*
X96144000Y-109910000D02*
X100644000Y-109910000D01*
X100644000Y-146960000D02*
X100644000Y-133410000D01*
X84644000Y-121435000D02*
X98644000Y-121435000D01*
X98644000Y-135435000D02*
X84644000Y-135435000D01*
D10*
X92889000Y-123995000D02*
X92889000Y-122745000D01*
X92889000Y-123995000D02*
X90389000Y-123995000D01*
X92889000Y-122745000D02*
X90389000Y-122745000D01*
D11*
X100644000Y-123460000D02*
X100644000Y-109910000D01*
D10*
X33694000Y-95595000D02*
X33694000Y-93995000D01*
X35294000Y-95595000D02*
X35294000Y-93995000D01*
X35294000Y-95595000D02*
X33694000Y-95595000D01*
X33694000Y-93995000D02*
X35294000Y-93995000D01*
X35294000Y-93995000D02*
X35294000Y-95595000D01*
X73394000Y-113045000D02*
X73394000Y-114645000D01*
X71794000Y-113045000D02*
X73394000Y-113045000D01*
X73394000Y-114645000D02*
X73394000Y-113045000D01*
X71794000Y-114645000D02*
X71794000Y-113045000D01*
X73394000Y-114645000D02*
X71794000Y-114645000D01*
X48667641Y-89280000D02*
X48360359Y-89280000D01*
X48667641Y-88520000D02*
X48360359Y-88520000D01*
X54344000Y-76545000D02*
X52744000Y-76545000D01*
X52744000Y-76545000D02*
X52744000Y-74945000D01*
X52744000Y-74945000D02*
X54344000Y-74945000D01*
X54344000Y-74945000D02*
X54344000Y-76545000D01*
X54344000Y-76545000D02*
X54344000Y-74945000D01*
X90389000Y-56070000D02*
X90389000Y-57320000D01*
D11*
X100644000Y-57260000D02*
X100644000Y-52760000D01*
X82644000Y-70760000D02*
X86644000Y-70760000D01*
X100644000Y-66260000D02*
X100644000Y-70760000D01*
D10*
X92889000Y-57320000D02*
X90389000Y-57320000D01*
D11*
X82644000Y-52760000D02*
X82644000Y-57260000D01*
X96644000Y-70760000D02*
X100644000Y-70760000D01*
X82644000Y-52760000D02*
X86644000Y-52760000D01*
X84639000Y-54765000D02*
X98639000Y-54765000D01*
X84639000Y-68765000D02*
X84639000Y-54765000D01*
D10*
X92889000Y-57320000D02*
X92889000Y-56070000D01*
D11*
X98639000Y-68765000D02*
X84639000Y-68765000D01*
X82644000Y-66260000D02*
X82644000Y-70760000D01*
D10*
X92889000Y-56070000D02*
X90389000Y-56070000D01*
D11*
X100644000Y-52760000D02*
X96644000Y-52760000D01*
X98639000Y-54765000D02*
X98639000Y-68765000D01*
D10*
X83839000Y-127285000D02*
X82639000Y-127285000D01*
X83839000Y-129135000D02*
X83839000Y-127285000D01*
X82639000Y-129135000D02*
X82639000Y-127285000D01*
X83839000Y-89185000D02*
X82639000Y-89185000D01*
X83839000Y-91035000D02*
X83839000Y-89185000D01*
X82639000Y-91035000D02*
X82639000Y-89185000D01*
X44819000Y-133695000D02*
X43219000Y-133695000D01*
X43219000Y-132095000D02*
X44819000Y-132095000D01*
X44819000Y-132095000D02*
X44819000Y-133695000D01*
X43219000Y-133695000D02*
X43219000Y-132095000D01*
X44819000Y-133695000D02*
X44819000Y-132095000D01*
X101650000Y-37224000D02*
X100320000Y-37224000D01*
X98990000Y-34624000D02*
X98990000Y-26944000D01*
X101650000Y-35894000D02*
X101650000Y-37224000D01*
X101650000Y-26944000D02*
X98990000Y-26944000D01*
X101650000Y-34624000D02*
X101650000Y-26944000D01*
X101650000Y-34624000D02*
X98990000Y-34624000D01*
X92444000Y-122570000D02*
X92444000Y-124170000D01*
X90844000Y-124170000D02*
X90844000Y-122570000D01*
X92444000Y-124170000D02*
X90844000Y-124170000D01*
X90844000Y-122570000D02*
X92444000Y-122570000D01*
X92444000Y-124170000D02*
X92444000Y-122570000D01*
X54344000Y-113045000D02*
X54344000Y-114645000D01*
X52744000Y-113045000D02*
X54344000Y-113045000D01*
X54344000Y-114645000D02*
X52744000Y-114645000D01*
X52744000Y-114645000D02*
X52744000Y-113045000D01*
X54344000Y-114645000D02*
X54344000Y-113045000D01*
X45739000Y-119610000D02*
X45739000Y-117760000D01*
X44539000Y-119610000D02*
X44539000Y-117760000D01*
X45739000Y-117760000D02*
X44539000Y-117760000D01*
X35014000Y-138660000D02*
X35014000Y-136810000D01*
X36214000Y-136810000D02*
X35014000Y-136810000D01*
X36214000Y-138660000D02*
X36214000Y-136810000D01*
D11*
X84644000Y-97335000D02*
X84644000Y-83335000D01*
X82644000Y-85360000D02*
X82644000Y-71810000D01*
X96144000Y-71810000D02*
X100644000Y-71810000D01*
X82644000Y-108860000D02*
X82644000Y-95310000D01*
X98644000Y-97335000D02*
X84644000Y-97335000D01*
X82644000Y-108860000D02*
X87144000Y-108860000D01*
D10*
X92889000Y-85895000D02*
X90389000Y-85895000D01*
D11*
X100644000Y-108860000D02*
X100644000Y-95310000D01*
D10*
X92889000Y-84645000D02*
X90389000Y-84645000D01*
X92889000Y-85895000D02*
X92889000Y-84645000D01*
D11*
X98644000Y-83335000D02*
X98644000Y-97335000D01*
X96144000Y-108860000D02*
X100644000Y-108860000D01*
X87144000Y-71810000D02*
X82644000Y-71810000D01*
X100644000Y-85360000D02*
X100644000Y-71810000D01*
X84644000Y-83335000D02*
X98644000Y-83335000D01*
D10*
X90389000Y-84645000D02*
X90389000Y-85895000D01*
X35294000Y-76545000D02*
X33694000Y-76545000D01*
X35294000Y-76545000D02*
X35294000Y-74945000D01*
X33694000Y-74945000D02*
X35294000Y-74945000D01*
X35294000Y-74945000D02*
X35294000Y-76545000D01*
X33694000Y-76545000D02*
X33694000Y-74945000D01*
D11*
X63594000Y-109910000D02*
X67594000Y-109910000D01*
X63594000Y-109910000D02*
X63594000Y-114410000D01*
X79589000Y-111915000D02*
X79589000Y-125915000D01*
X63594000Y-123410000D02*
X63594000Y-127910000D01*
X65589000Y-111915000D02*
X79589000Y-111915000D01*
D10*
X73839000Y-114470000D02*
X71339000Y-114470000D01*
X73839000Y-114470000D02*
X73839000Y-113220000D01*
D11*
X63594000Y-127910000D02*
X67594000Y-127910000D01*
X81594000Y-109910000D02*
X77594000Y-109910000D01*
D10*
X73839000Y-113220000D02*
X71339000Y-113220000D01*
D11*
X77594000Y-127910000D02*
X81594000Y-127910000D01*
X79589000Y-125915000D02*
X65589000Y-125915000D01*
X81594000Y-114410000D02*
X81594000Y-109910000D01*
D10*
X71339000Y-113220000D02*
X71339000Y-114470000D01*
D11*
X65589000Y-125915000D02*
X65589000Y-111915000D01*
X81594000Y-123410000D02*
X81594000Y-127910000D01*
X43494000Y-76310000D02*
X43494000Y-71810000D01*
X27489000Y-87815000D02*
X27489000Y-73815000D01*
D10*
X35739000Y-76370000D02*
X35739000Y-75120000D01*
X35739000Y-75120000D02*
X33239000Y-75120000D01*
X35739000Y-76370000D02*
X33239000Y-76370000D01*
D11*
X39494000Y-89810000D02*
X43494000Y-89810000D01*
X25494000Y-89810000D02*
X29494000Y-89810000D01*
X43494000Y-71810000D02*
X39494000Y-71810000D01*
X43494000Y-85310000D02*
X43494000Y-89810000D01*
X41489000Y-73815000D02*
X41489000Y-87815000D01*
X25494000Y-71810000D02*
X25494000Y-76310000D01*
D10*
X33239000Y-75120000D02*
X33239000Y-76370000D01*
D11*
X41489000Y-87815000D02*
X27489000Y-87815000D01*
X25494000Y-71810000D02*
X29494000Y-71810000D01*
X25494000Y-85310000D02*
X25494000Y-89810000D01*
X27489000Y-73815000D02*
X41489000Y-73815000D01*
D10*
X64789000Y-119610000D02*
X64789000Y-117760000D01*
X64789000Y-117760000D02*
X63589000Y-117760000D01*
X63589000Y-119610000D02*
X63589000Y-117760000D01*
X73394000Y-133695000D02*
X71794000Y-133695000D01*
X73394000Y-132095000D02*
X73394000Y-133695000D01*
X71794000Y-132095000D02*
X73394000Y-132095000D01*
X71794000Y-133695000D02*
X71794000Y-132095000D01*
X73394000Y-133695000D02*
X73394000Y-132095000D01*
X90844000Y-57495000D02*
X90844000Y-55895000D01*
X90844000Y-55895000D02*
X92444000Y-55895000D01*
X92444000Y-57495000D02*
X90844000Y-57495000D01*
X92444000Y-55895000D02*
X92444000Y-57495000D01*
X92444000Y-57495000D02*
X92444000Y-55895000D01*
X35294000Y-57495000D02*
X35294000Y-55895000D01*
X33694000Y-57495000D02*
X33694000Y-55895000D01*
X35294000Y-55895000D02*
X35294000Y-57495000D01*
X35294000Y-57495000D02*
X33694000Y-57495000D01*
X33694000Y-55895000D02*
X35294000Y-55895000D01*
X25489000Y-119610000D02*
X25489000Y-117760000D01*
X26689000Y-117760000D02*
X25489000Y-117760000D01*
X26689000Y-119610000D02*
X26689000Y-117760000D01*
X64789000Y-81510000D02*
X64789000Y-79660000D01*
X63589000Y-81510000D02*
X63589000Y-79660000D01*
X64789000Y-79660000D02*
X63589000Y-79660000D01*
D11*
X27489000Y-92865000D02*
X41489000Y-92865000D01*
D10*
X35739000Y-95420000D02*
X33239000Y-95420000D01*
D11*
X25494000Y-104360000D02*
X25494000Y-108860000D01*
X43494000Y-90860000D02*
X39494000Y-90860000D01*
X43494000Y-104360000D02*
X43494000Y-108860000D01*
D10*
X35739000Y-95420000D02*
X35739000Y-94170000D01*
D11*
X25494000Y-90860000D02*
X29494000Y-90860000D01*
X25494000Y-108860000D02*
X29494000Y-108860000D01*
X41489000Y-106865000D02*
X27489000Y-106865000D01*
X25494000Y-90860000D02*
X25494000Y-95360000D01*
X43494000Y-95360000D02*
X43494000Y-90860000D01*
D10*
X33239000Y-94170000D02*
X33239000Y-95420000D01*
D11*
X39494000Y-108860000D02*
X43494000Y-108860000D01*
D10*
X35739000Y-94170000D02*
X33239000Y-94170000D01*
D11*
X27489000Y-106865000D02*
X27489000Y-92865000D01*
X41489000Y-92865000D02*
X41489000Y-106865000D01*
D10*
X45739000Y-62460000D02*
X45739000Y-60610000D01*
X45739000Y-60610000D02*
X44539000Y-60610000D01*
X44539000Y-62460000D02*
X44539000Y-60610000D01*
X36930359Y-29336000D02*
X37237641Y-29336000D01*
X36930359Y-28576000D02*
X37237641Y-28576000D01*
X37237641Y-31116000D02*
X36930359Y-31116000D01*
X37237641Y-31876000D02*
X36930359Y-31876000D01*
X35739000Y-113220000D02*
X33239000Y-113220000D01*
D11*
X43494000Y-114410000D02*
X43494000Y-109910000D01*
X27489000Y-125915000D02*
X27489000Y-111915000D01*
X41489000Y-125915000D02*
X27489000Y-125915000D01*
X25494000Y-127910000D02*
X29494000Y-127910000D01*
X27489000Y-111915000D02*
X41489000Y-111915000D01*
X41489000Y-111915000D02*
X41489000Y-125915000D01*
D10*
X35739000Y-114470000D02*
X35739000Y-113220000D01*
X33239000Y-113220000D02*
X33239000Y-114470000D01*
D11*
X25494000Y-109910000D02*
X29494000Y-109910000D01*
X43494000Y-109910000D02*
X39494000Y-109910000D01*
X25494000Y-109910000D02*
X25494000Y-114410000D01*
X43494000Y-123410000D02*
X43494000Y-127910000D01*
D10*
X35739000Y-114470000D02*
X33239000Y-114470000D01*
D11*
X39494000Y-127910000D02*
X43494000Y-127910000D01*
X25494000Y-123410000D02*
X25494000Y-127910000D01*
D10*
X52744000Y-95595000D02*
X52744000Y-93995000D01*
X52744000Y-93995000D02*
X54344000Y-93995000D01*
X54344000Y-95595000D02*
X52744000Y-95595000D01*
X54344000Y-95595000D02*
X54344000Y-93995000D01*
X54344000Y-93995000D02*
X54344000Y-95595000D01*
X36976164Y-35158000D02*
X37191836Y-35158000D01*
X36976164Y-34438000D02*
X37191836Y-34438000D01*
X92444000Y-84470000D02*
X92444000Y-86070000D01*
X90844000Y-84470000D02*
X92444000Y-84470000D01*
X90844000Y-86070000D02*
X90844000Y-84470000D01*
X92444000Y-86070000D02*
X92444000Y-84470000D01*
X92444000Y-86070000D02*
X90844000Y-86070000D01*
X82639000Y-62460000D02*
X82639000Y-60610000D01*
X83839000Y-62460000D02*
X83839000Y-60610000D01*
X83839000Y-60610000D02*
X82639000Y-60610000D01*
X25489000Y-100560000D02*
X25489000Y-98710000D01*
X26689000Y-98710000D02*
X25489000Y-98710000D01*
X26689000Y-100560000D02*
X26689000Y-98710000D01*
D11*
X62544000Y-95360000D02*
X62544000Y-90860000D01*
X44544000Y-90860000D02*
X44544000Y-95360000D01*
X62544000Y-104360000D02*
X62544000Y-108860000D01*
D10*
X54789000Y-95420000D02*
X52289000Y-95420000D01*
X54789000Y-95420000D02*
X54789000Y-94170000D01*
D11*
X58544000Y-108860000D02*
X62544000Y-108860000D01*
X62544000Y-90860000D02*
X58544000Y-90860000D01*
X60539000Y-106865000D02*
X46539000Y-106865000D01*
X46539000Y-106865000D02*
X46539000Y-92865000D01*
D10*
X52289000Y-94170000D02*
X52289000Y-95420000D01*
D11*
X44544000Y-108860000D02*
X48544000Y-108860000D01*
D10*
X54789000Y-94170000D02*
X52289000Y-94170000D01*
D11*
X44544000Y-90860000D02*
X48544000Y-90860000D01*
X60539000Y-92865000D02*
X60539000Y-106865000D01*
X46539000Y-92865000D02*
X60539000Y-92865000D01*
X44544000Y-104360000D02*
X44544000Y-108860000D01*
D10*
X46552000Y-87814000D02*
X46552000Y-88239000D01*
X46127000Y-87814000D02*
X46552000Y-87814000D01*
X41757000Y-87814000D02*
X41332000Y-87814000D01*
X46127000Y-93034000D02*
X46552000Y-93034000D01*
X41757000Y-93034000D02*
X41332000Y-93034000D01*
X46552000Y-93034000D02*
X46552000Y-92609000D01*
X41332000Y-93034000D02*
X41332000Y-92609000D01*
X65729000Y-106737000D02*
X65729000Y-107162000D01*
X65304000Y-111957000D02*
X65729000Y-111957000D01*
X60934000Y-111957000D02*
X60509000Y-111957000D01*
X65304000Y-106737000D02*
X65729000Y-106737000D01*
X65729000Y-111957000D02*
X65729000Y-111532000D01*
X60934000Y-106737000D02*
X60509000Y-106737000D01*
X60509000Y-111957000D02*
X60509000Y-111532000D01*
D11*
X65589000Y-92865000D02*
X79589000Y-92865000D01*
X81594000Y-90860000D02*
X77594000Y-90860000D01*
X65589000Y-106865000D02*
X65589000Y-92865000D01*
D10*
X73839000Y-95420000D02*
X73839000Y-94170000D01*
D11*
X63594000Y-90860000D02*
X63594000Y-95360000D01*
X79589000Y-106865000D02*
X65589000Y-106865000D01*
X63594000Y-104360000D02*
X63594000Y-108860000D01*
X63594000Y-90860000D02*
X67594000Y-90860000D01*
D10*
X73839000Y-94170000D02*
X71339000Y-94170000D01*
D11*
X63594000Y-108860000D02*
X67594000Y-108860000D01*
X81594000Y-95360000D02*
X81594000Y-90860000D01*
X79589000Y-92865000D02*
X79589000Y-106865000D01*
D10*
X71339000Y-94170000D02*
X71339000Y-95420000D01*
X73839000Y-95420000D02*
X71339000Y-95420000D01*
D11*
X77594000Y-108860000D02*
X81594000Y-108860000D01*
X81594000Y-104360000D02*
X81594000Y-108860000D01*
D10*
X51708164Y-90826000D02*
X51492492Y-90826000D01*
X51708164Y-91546000D02*
X51492492Y-91546000D01*
D11*
X81594000Y-66260000D02*
X81594000Y-70760000D01*
X81594000Y-57260000D02*
X81594000Y-52760000D01*
D10*
X71339000Y-56070000D02*
X71339000Y-57320000D01*
D11*
X63594000Y-66260000D02*
X63594000Y-70760000D01*
X63594000Y-52760000D02*
X63594000Y-57260000D01*
X65589000Y-54765000D02*
X79589000Y-54765000D01*
X79589000Y-68765000D02*
X65589000Y-68765000D01*
X79589000Y-54765000D02*
X79589000Y-68765000D01*
X63594000Y-52760000D02*
X67594000Y-52760000D01*
D10*
X73839000Y-56070000D02*
X71339000Y-56070000D01*
X73839000Y-57320000D02*
X71339000Y-57320000D01*
D11*
X65589000Y-68765000D02*
X65589000Y-54765000D01*
X63594000Y-70760000D02*
X67594000Y-70760000D01*
X77594000Y-70760000D02*
X81594000Y-70760000D01*
X81594000Y-52760000D02*
X77594000Y-52760000D01*
D10*
X73839000Y-57320000D02*
X73839000Y-56070000D01*
D11*
X60539000Y-73815000D02*
X60539000Y-87815000D01*
D10*
X54789000Y-76370000D02*
X54789000Y-75120000D01*
D11*
X60539000Y-87815000D02*
X46539000Y-87815000D01*
X44544000Y-71810000D02*
X48544000Y-71810000D01*
D10*
X54789000Y-76370000D02*
X52289000Y-76370000D01*
D11*
X62544000Y-85310000D02*
X62544000Y-89810000D01*
X44544000Y-89810000D02*
X48544000Y-89810000D01*
X44544000Y-71810000D02*
X44544000Y-76310000D01*
D10*
X52289000Y-75120000D02*
X52289000Y-76370000D01*
D11*
X46539000Y-87815000D02*
X46539000Y-73815000D01*
X58544000Y-89810000D02*
X62544000Y-89810000D01*
X62544000Y-76310000D02*
X62544000Y-71810000D01*
X46539000Y-73815000D02*
X60539000Y-73815000D01*
X62544000Y-71810000D02*
X58544000Y-71810000D01*
D10*
X54789000Y-75120000D02*
X52289000Y-75120000D01*
D11*
X44544000Y-85310000D02*
X44544000Y-89810000D01*
D10*
X43256000Y-37224000D02*
X41926000Y-37224000D01*
X40596000Y-34624000D02*
X40596000Y-26944000D01*
X43256000Y-34624000D02*
X40596000Y-34624000D01*
X43256000Y-34624000D02*
X43256000Y-26944000D01*
X43256000Y-26944000D02*
X40596000Y-26944000D01*
X43256000Y-35894000D02*
X43256000Y-37224000D01*
X73394000Y-74945000D02*
X73394000Y-76545000D01*
X73394000Y-76545000D02*
X71794000Y-76545000D01*
X73394000Y-76545000D02*
X73394000Y-74945000D01*
X71794000Y-74945000D02*
X73394000Y-74945000D01*
X71794000Y-76545000D02*
X71794000Y-74945000D01*
X51708164Y-89556000D02*
X51492492Y-89556000D01*
X51708164Y-90276000D02*
X51492492Y-90276000D01*
D11*
X41489000Y-54765000D02*
X41489000Y-68765000D01*
D10*
X35739000Y-57320000D02*
X35739000Y-56070000D01*
D11*
X25494000Y-66260000D02*
X25494000Y-70760000D01*
X25494000Y-70760000D02*
X29494000Y-70760000D01*
X43494000Y-57260000D02*
X43494000Y-52760000D01*
D10*
X35739000Y-57320000D02*
X33239000Y-57320000D01*
D11*
X27489000Y-68765000D02*
X27489000Y-54765000D01*
X39494000Y-70760000D02*
X43494000Y-70760000D01*
D10*
X33239000Y-56070000D02*
X33239000Y-57320000D01*
X35739000Y-56070000D02*
X33239000Y-56070000D01*
D11*
X27489000Y-54765000D02*
X41489000Y-54765000D01*
X25494000Y-52760000D02*
X25494000Y-57260000D01*
X43494000Y-66260000D02*
X43494000Y-70760000D01*
X41489000Y-68765000D02*
X27489000Y-68765000D01*
X25494000Y-52760000D02*
X29494000Y-52760000D01*
X43494000Y-52760000D02*
X39494000Y-52760000D01*
D10*
X64789000Y-136810000D02*
X63589000Y-136810000D01*
X63589000Y-138660000D02*
X63589000Y-136810000D01*
X64789000Y-138660000D02*
X64789000Y-136810000D01*
D11*
X63594000Y-89810000D02*
X67594000Y-89810000D01*
X81594000Y-71810000D02*
X77594000Y-71810000D01*
D10*
X73839000Y-76370000D02*
X71339000Y-76370000D01*
D11*
X63594000Y-71810000D02*
X67594000Y-71810000D01*
X79589000Y-87815000D02*
X65589000Y-87815000D01*
D10*
X73839000Y-75120000D02*
X71339000Y-75120000D01*
D11*
X81594000Y-76310000D02*
X81594000Y-71810000D01*
X81594000Y-85310000D02*
X81594000Y-89810000D01*
X63594000Y-85310000D02*
X63594000Y-89810000D01*
D10*
X73839000Y-76370000D02*
X73839000Y-75120000D01*
D11*
X63594000Y-71810000D02*
X63594000Y-76310000D01*
D10*
X71339000Y-75120000D02*
X71339000Y-76370000D01*
D11*
X77594000Y-89810000D02*
X81594000Y-89810000D01*
X65589000Y-73815000D02*
X79589000Y-73815000D01*
X79589000Y-73815000D02*
X79589000Y-87815000D01*
X65589000Y-87815000D02*
X65589000Y-73815000D01*
D10*
X45739000Y-81510000D02*
X45739000Y-79660000D01*
X44539000Y-81510000D02*
X44539000Y-79660000D01*
X45739000Y-79660000D02*
X44539000Y-79660000D01*
%LPC*%
D14*
X26089000Y-61060000D03*
X26089000Y-62460000D03*
D15*
X47829000Y-140500000D03*
D16*
X44019000Y-137960000D03*
D17*
X55957000Y-130975000D03*
D18*
X32081000Y-146215000D03*
X55957000Y-146215000D03*
D15*
X41479000Y-143040000D03*
D17*
X32081000Y-130975000D03*
D19*
X72194000Y-94095000D03*
X72194000Y-95495000D03*
X72994000Y-94095000D03*
X72994000Y-95495000D03*
D20*
X36574000Y-30226000D03*
X37594000Y-30226000D03*
D21*
X37594000Y-33528000D03*
X36574000Y-33528000D03*
D22*
X33764000Y-33028000D03*
X33264000Y-33028000D03*
X32764000Y-33028000D03*
X32264000Y-33028000D03*
X31764000Y-33028000D03*
X31264000Y-33028000D03*
X30764000Y-33028000D03*
X30264000Y-33028000D03*
X29764000Y-33028000D03*
X29264000Y-33028000D03*
D23*
X28579000Y-33713000D03*
X28579000Y-34213000D03*
X28579000Y-34713000D03*
X28579000Y-35213000D03*
X28579000Y-35713000D03*
X28579000Y-36213000D03*
X28579000Y-36713000D03*
X28579000Y-37213000D03*
X28579000Y-37713000D03*
X28579000Y-38213000D03*
D22*
X29264000Y-38898000D03*
X29764000Y-38898000D03*
X30264000Y-38898000D03*
X30764000Y-38898000D03*
X31264000Y-38898000D03*
X31764000Y-38898000D03*
X32264000Y-38898000D03*
X32764000Y-38898000D03*
X33264000Y-38898000D03*
X33764000Y-38898000D03*
D23*
X34449000Y-38213000D03*
X34449000Y-37713000D03*
X34449000Y-37213000D03*
X34449000Y-36713000D03*
X34449000Y-36213000D03*
X34449000Y-35713000D03*
X34449000Y-35213000D03*
X34449000Y-34713000D03*
X34449000Y-34213000D03*
X34449000Y-33713000D03*
D24*
X31514000Y-35963000D03*
D14*
X45139000Y-99160000D03*
X45139000Y-100560000D03*
D21*
X69190000Y-108000000D03*
X70210000Y-108000000D03*
D15*
X50999000Y-123995000D03*
D16*
X53539000Y-118915000D03*
D15*
X57349000Y-121455000D03*
X76399000Y-140505000D03*
D16*
X72589000Y-137965000D03*
D15*
X70049000Y-143045000D03*
D19*
X72194000Y-55995000D03*
X72194000Y-57395000D03*
X72994000Y-55995000D03*
X72994000Y-57395000D03*
X34094000Y-113145000D03*
X34094000Y-114545000D03*
X34894000Y-113145000D03*
X34894000Y-114545000D03*
D16*
X53539000Y-61765000D03*
D15*
X50999000Y-66845000D03*
X57349000Y-64305000D03*
D14*
X26089000Y-80110000D03*
X26089000Y-81510000D03*
X64189000Y-99160000D03*
X64189000Y-100560000D03*
X64189000Y-61060000D03*
X64189000Y-62460000D03*
D19*
X53144000Y-55995000D03*
X53144000Y-57395000D03*
X53944000Y-55995000D03*
X53944000Y-57395000D03*
D17*
X84659000Y-140373000D03*
D15*
X95454000Y-130975000D03*
X89104000Y-133515000D03*
D17*
X84659000Y-116497000D03*
D16*
X91644000Y-128435000D03*
D18*
X99899000Y-140373000D03*
X99899000Y-116497000D03*
D19*
X34094000Y-94095000D03*
X34094000Y-95495000D03*
X34894000Y-94095000D03*
X34894000Y-95495000D03*
X72194000Y-113145000D03*
X72194000Y-114545000D03*
X72994000Y-113145000D03*
X72994000Y-114545000D03*
D21*
X49024000Y-88900000D03*
X48004000Y-88900000D03*
D19*
X53144000Y-75045000D03*
X53144000Y-76445000D03*
X53944000Y-75045000D03*
X53944000Y-76445000D03*
D15*
X89099000Y-66845000D03*
X95449000Y-64305000D03*
D16*
X91639000Y-61765000D03*
D14*
X83239000Y-127735000D03*
X83239000Y-129135000D03*
X83239000Y-89635000D03*
X83239000Y-91035000D03*
D19*
X43619000Y-132195000D03*
X43619000Y-133595000D03*
X44419000Y-132195000D03*
X44419000Y-133595000D03*
D25*
X100320000Y-35894000D03*
D26*
X100320000Y-33354000D03*
X100320000Y-30814000D03*
X100320000Y-28274000D03*
D19*
X91244000Y-122670000D03*
X91244000Y-124070000D03*
X92044000Y-122670000D03*
X92044000Y-124070000D03*
X53144000Y-113145000D03*
X53144000Y-114545000D03*
X53944000Y-113145000D03*
X53944000Y-114545000D03*
D14*
X45139000Y-118210000D03*
X45139000Y-119610000D03*
X35614000Y-137260000D03*
X35614000Y-138660000D03*
D15*
X95454000Y-92875000D03*
D18*
X99899000Y-102273000D03*
D17*
X84659000Y-78397000D03*
D16*
X91644000Y-90335000D03*
D15*
X89104000Y-95415000D03*
D17*
X84659000Y-102273000D03*
D18*
X99899000Y-78397000D03*
D19*
X34094000Y-75045000D03*
X34094000Y-76445000D03*
X34894000Y-75045000D03*
X34894000Y-76445000D03*
D15*
X76399000Y-121455000D03*
D16*
X72589000Y-118915000D03*
D15*
X70049000Y-123995000D03*
D16*
X34489000Y-80815000D03*
D15*
X38299000Y-83355000D03*
X31949000Y-85895000D03*
D14*
X64189000Y-118210000D03*
X64189000Y-119610000D03*
D19*
X72194000Y-132195000D03*
X72194000Y-133595000D03*
X72994000Y-132195000D03*
X72994000Y-133595000D03*
X91244000Y-55995000D03*
X91244000Y-57395000D03*
X92044000Y-55995000D03*
X92044000Y-57395000D03*
X34094000Y-55995000D03*
X34094000Y-57395000D03*
X34894000Y-55995000D03*
X34894000Y-57395000D03*
D14*
X26089000Y-118210000D03*
X26089000Y-119610000D03*
X64189000Y-80110000D03*
X64189000Y-81510000D03*
D15*
X31949000Y-104945000D03*
X38299000Y-102405000D03*
D16*
X34489000Y-99865000D03*
D14*
X45139000Y-61060000D03*
X45139000Y-62460000D03*
D20*
X36574000Y-28956000D03*
X37594000Y-28956000D03*
D21*
X37594000Y-31496000D03*
X36574000Y-31496000D03*
D15*
X38299000Y-121455000D03*
D16*
X34489000Y-118915000D03*
D15*
X31949000Y-123995000D03*
D19*
X53144000Y-94095000D03*
X53144000Y-95495000D03*
X53944000Y-94095000D03*
X53944000Y-95495000D03*
D27*
X36604000Y-34798000D03*
X37564000Y-34798000D03*
D19*
X91244000Y-84570000D03*
X91244000Y-85970000D03*
X92044000Y-84570000D03*
X92044000Y-85970000D03*
D14*
X83239000Y-61060000D03*
X83239000Y-62460000D03*
X26089000Y-99160000D03*
X26089000Y-100560000D03*
D15*
X50999000Y-104945000D03*
X57349000Y-102405000D03*
D16*
X53539000Y-99865000D03*
D28*
X41504500Y-88624000D03*
X41504500Y-89024000D03*
X41504500Y-89424000D03*
X41504500Y-89824000D03*
X41504500Y-90224000D03*
X41504500Y-90624000D03*
X41504500Y-91024000D03*
X41504500Y-91424000D03*
X41504500Y-91824000D03*
X41504500Y-92224000D03*
D29*
X42142000Y-92861500D03*
X42542000Y-92861500D03*
X42942000Y-92861500D03*
X43342000Y-92861500D03*
X43742000Y-92861500D03*
X44142000Y-92861500D03*
X44542000Y-92861500D03*
X44942000Y-92861500D03*
X45342000Y-92861500D03*
X45742000Y-92861500D03*
D28*
X46379500Y-92224000D03*
X46379500Y-91824000D03*
D30*
X45142000Y-90424000D03*
X43942000Y-91624000D03*
X43942000Y-90424000D03*
X45142000Y-89224000D03*
X42742000Y-90424000D03*
X45142000Y-91624000D03*
X42742000Y-91624000D03*
X42742000Y-89224000D03*
X43942000Y-89224000D03*
D28*
X46379500Y-91424000D03*
X46379500Y-91024000D03*
X46379500Y-90624000D03*
X46379500Y-90224000D03*
X46379500Y-89824000D03*
X46379500Y-89424000D03*
X46379500Y-89024000D03*
X46379500Y-88624000D03*
D29*
X45742000Y-87986500D03*
X45342000Y-87986500D03*
X44942000Y-87986500D03*
X44542000Y-87986500D03*
X44142000Y-87986500D03*
X43742000Y-87986500D03*
X43342000Y-87986500D03*
X42942000Y-87986500D03*
X42542000Y-87986500D03*
X42142000Y-87986500D03*
D28*
X60681500Y-107547000D03*
X60681500Y-107947000D03*
X60681500Y-108347000D03*
X60681500Y-108747000D03*
X60681500Y-109147000D03*
X60681500Y-109547000D03*
X60681500Y-109947000D03*
X60681500Y-110347000D03*
X60681500Y-110747000D03*
X60681500Y-111147000D03*
D29*
X61319000Y-111784500D03*
X61719000Y-111784500D03*
X62119000Y-111784500D03*
X62519000Y-111784500D03*
X62919000Y-111784500D03*
X63319000Y-111784500D03*
X63719000Y-111784500D03*
X64119000Y-111784500D03*
X64519000Y-111784500D03*
X64919000Y-111784500D03*
D28*
X65556500Y-111147000D03*
X65556500Y-110747000D03*
D30*
X63119000Y-109347000D03*
X64319000Y-108147000D03*
X64319000Y-109347000D03*
X61919000Y-108147000D03*
D28*
X65556500Y-110347000D03*
D30*
X63119000Y-110547000D03*
X63119000Y-108147000D03*
X61919000Y-109347000D03*
X61919000Y-110547000D03*
X64319000Y-110547000D03*
D28*
X65556500Y-109947000D03*
X65556500Y-109547000D03*
X65556500Y-109147000D03*
X65556500Y-108747000D03*
X65556500Y-108347000D03*
X65556500Y-107947000D03*
X65556500Y-107547000D03*
D29*
X64919000Y-106909500D03*
X64519000Y-106909500D03*
X64119000Y-106909500D03*
X63719000Y-106909500D03*
X63319000Y-106909500D03*
X62919000Y-106909500D03*
X62519000Y-106909500D03*
X62119000Y-106909500D03*
X61719000Y-106909500D03*
X61319000Y-106909500D03*
D16*
X72589000Y-99865000D03*
D15*
X76399000Y-102405000D03*
X70049000Y-104945000D03*
D31*
X52080328Y-91186000D03*
X51120328Y-91186000D03*
D16*
X72589000Y-61765000D03*
D15*
X70049000Y-66845000D03*
X76399000Y-64305000D03*
D16*
X53539000Y-80815000D03*
D15*
X50999000Y-85895000D03*
X57349000Y-83355000D03*
D25*
X41926000Y-35894000D03*
D26*
X41926000Y-33354000D03*
X41926000Y-30814000D03*
X41926000Y-28274000D03*
D19*
X72194000Y-75045000D03*
X72194000Y-76445000D03*
X72994000Y-75045000D03*
X72994000Y-76445000D03*
D31*
X52080328Y-89916000D03*
X51120328Y-89916000D03*
D16*
X34489000Y-61765000D03*
D15*
X31949000Y-66845000D03*
X38299000Y-64305000D03*
D14*
X64189000Y-137260000D03*
X64189000Y-138660000D03*
D15*
X76399000Y-83355000D03*
X70049000Y-85895000D03*
D16*
X72589000Y-80815000D03*
D14*
X45139000Y-80110000D03*
X45139000Y-81510000D03*
M02*
