M48
; DRILL file {KiCad (6.0.5)} date Tue Jun 21 22:30:17 2022
; FORMAT={-:-/ absolute / metric / decimal}
; #@! TF.CreationDate,2022-06-21T22:30:17+02:00
; #@! TF.GenerationSoftware,Kicad,Pcbnew,(6.0.5)
; #@! TF.FileFunction,NonPlated,1,2,NPTH
FMAT,2
METRIC
; #@! TA.AperFunction,NonPlated,NPTH,ComponentDrill
T1C3.000
; #@! TA.AperFunction,NonPlated,NPTH,ComponentDrill
T2C3.048
; #@! TA.AperFunction,NonPlated,NPTH,ComponentDrill
T3C3.988
; #@! TA.AperFunction,NonPlated,NPTH,ComponentDrill
T4C4.000
%
G90
G05
T1
X31.949Y-66.845
X31.949Y-85.895
X31.949Y-104.945
X31.949Y-123.995
X38.299Y-64.305
X38.299Y-83.355
X38.299Y-102.405
X38.299Y-121.455
X41.479Y-143.04
X47.829Y-140.5
X50.999Y-66.845
X50.999Y-85.895
X50.999Y-104.945
X50.999Y-123.995
X57.349Y-64.305
X57.349Y-83.355
X57.349Y-102.405
X57.349Y-121.455
X70.049Y-66.845
X70.049Y-85.895
X70.049Y-104.945
X70.049Y-123.995
X70.049Y-143.045
X76.399Y-64.305
X76.399Y-83.355
X76.399Y-102.405
X76.399Y-121.455
X76.399Y-140.505
X89.099Y-66.845
X89.104Y-95.415
X89.104Y-133.515
X95.449Y-64.305
X95.454Y-92.875
X95.454Y-130.975
T2
X32.081Y-130.975
X55.957Y-130.975
X84.659Y-78.397
X84.659Y-102.273
X84.659Y-116.497
X84.659Y-140.373
T3
X32.081Y-146.215
X55.957Y-146.215
X99.899Y-78.397
X99.899Y-102.273
X99.899Y-116.497
X99.899Y-140.373
T4
X34.489Y-61.765
X34.489Y-80.815
X34.489Y-99.865
X34.489Y-118.915
X44.019Y-137.96
X53.539Y-61.765
X53.539Y-80.815
X53.539Y-99.865
X53.539Y-118.915
X72.589Y-61.765
X72.589Y-80.815
X72.589Y-99.865
X72.589Y-118.915
X72.589Y-137.965
X91.639Y-61.765
X91.644Y-90.335
X91.644Y-128.435
T0
M30
