M48
; DRILL file {KiCad (6.0.5)} date Tue Jun 21 22:30:17 2022
; FORMAT={-:-/ absolute / metric / decimal}
; #@! TF.CreationDate,2022-06-21T22:30:17+02:00
; #@! TF.GenerationSoftware,Kicad,Pcbnew,(6.0.5)
; #@! TF.FileFunction,Plated,1,2,PTH
FMAT,2
METRIC
; #@! TA.AperFunction,Plated,PTH,ViaDrill
T1C0.300
; #@! TA.AperFunction,Plated,PTH,ComponentDrill
T2C0.500
; #@! TA.AperFunction,Plated,PTH,ComponentDrill
T3C1.000
%
G90
G05
T1
X22.606Y-45.974
X22.606Y-47.498
X23.114Y-48.514
X23.368Y-44.958
X23.626Y-49.305
X24.102Y-50.198
X24.13Y-43.942
X24.384Y-89.408
X24.638Y-51.054
X24.892Y-42.926
X25.146Y-38.608
X25.146Y-58.42
X25.654Y-41.656
X26.162Y-38.608
X26.416Y-40.894
X26.466Y-82.788
X26.466Y-102.092
X26.466Y-121.396
X26.974Y-63.992
X27.178Y-38.608
X36.118Y-140.192
X36.626Y-55.864
X36.626Y-112.76
X36.741Y-93.416
X36.83Y-51.562
X37.134Y-74.66
X37.592Y-50.8
X38.1Y-96.885
X38.354Y-89.916
X38.608Y-40.386
X38.608Y-50.038
X38.612Y-34.789
X38.701Y-36.445
X38.862Y-30.988
X39.116Y-81.026
X39.164Y-97.627
X39.37Y-32.766
X39.779Y-89.489
X40.132Y-39.624
X40.132Y-94.234
X40.132Y-99.06
X40.386Y-79.502
X40.386Y-80.772
X40.602Y-56.68
X41.364Y-58.204
X41.706Y-132.826
X42.126Y-54.648
X42.219Y-94.229
X42.688Y-75.676
X43.18Y-85.344
X43.18Y-94.742
X43.434Y-77.216
X43.434Y-130.81
X43.815Y-94.107
X44.069Y-85.217
X44.323Y-94.869
X44.72Y-73.644
X44.958Y-85.598
X45.212Y-94.742
X45.77Y-63.992
X45.77Y-82.788
X45.77Y-102.092
X45.77Y-121.396
X46.101Y-94.742
X46.482Y-134.62
X46.99Y-94.742
X47.371Y-91.44
X47.498Y-133.604
X47.879Y-93.853
X48.514Y-90.424
X48.641Y-92.075
X48.641Y-97.155
X49.276Y-90.932
X49.784Y-89.662
X49.927Y-111.744
X50.673Y-115.316
X50.8Y-88.9
X51.705Y-113.776
X54.356Y-90.424
X54.81Y-109.147
X55.177Y-95.725
X55.93Y-55.864
X55.93Y-74.66
X55.93Y-93.456
X55.93Y-97.232
X55.93Y-112.76
X56.388Y-87.884
X56.642Y-96.266
X57.096Y-86.865
X57.404Y-93.726
X57.952Y-114.058
X57.985Y-109.147
X58.674Y-87.122
X58.783Y-95.649
X59.182Y-108.458
X59.182Y-115.316
X59.309Y-110.363
X59.944Y-87.122
X59.944Y-90.678
X59.944Y-96.774
X59.972Y-114.917
X60.452Y-50.038
X61.468Y-81.026
X61.468Y-100.33
X61.468Y-113.03
X61.722Y-99.314
X61.976Y-80.264
X62.23Y-98.552
X62.404Y-35.894
X62.484Y-102.87
X62.992Y-113.03
X62.992Y-114.046
X62.992Y-130.175
X63.246Y-25.4
X63.299Y-103.322
X63.627Y-114.935
X64.262Y-103.378
X64.502Y-113.461
X64.566Y-63.992
X64.566Y-82.788
X64.566Y-102.092
X64.566Y-140.192
X64.72Y-96.805
X65.024Y-95.758
X65.074Y-121.396
X66.675Y-110.363
X66.802Y-115.316
X67.31Y-110.998
X68.326Y-56.642
X68.326Y-98.298
X68.326Y-107.696
X68.58Y-75.692
X68.725Y-94.851
X69.088Y-98.806
X69.351Y-57.395
X69.524Y-76.436
X69.85Y-99.568
X69.859Y-95.495
X70.231Y-112.903
X70.231Y-115.189
X70.243Y-55.995
X70.497Y-75.045
X70.612Y-94.234
X72.08Y-107.923
X72.898Y-108.712
X72.898Y-124.206
X73.787Y-123.825
X74.726Y-55.864
X74.726Y-74.66
X74.726Y-93.456
X74.726Y-112.76
X74.726Y-131.556
X79.248Y-50.8
X80.518Y-92.202
X80.772Y-85.344
X80.822Y-123.428
X80.822Y-130.54
X81.28Y-95.504
X81.584Y-132.826
X81.788Y-85.852
X81.788Y-96.52
X81.838Y-123.428
X82.296Y-86.868
X82.346Y-134.604
X82.48Y-124.07
X83.362Y-97.52
X83.362Y-126.476
X83.362Y-135.62
X83.386Y-87.707
X83.87Y-63.992
X83.87Y-92.44
X83.87Y-130.54
X93.522Y-84.82
X93.522Y-122.92
X94.03Y-56.372
X98.044Y-52.324
T2
X42.742Y-89.224
X42.742Y-90.424
X42.742Y-91.624
X43.942Y-89.224
X43.942Y-90.424
X43.942Y-91.624
X45.142Y-89.224
X45.142Y-90.424
X45.142Y-91.624
X61.919Y-108.147
X61.919Y-109.347
X61.919Y-110.547
X63.119Y-108.147
X63.119Y-109.347
X63.119Y-110.547
X64.319Y-108.147
X64.319Y-109.347
X64.319Y-110.547
T3
X41.926Y-28.274
X41.926Y-30.814
X41.926Y-33.354
X41.926Y-35.894
X100.32Y-28.274
X100.32Y-30.814
X100.32Y-33.354
X100.32Y-35.894
T0
M30
