G04 #@! TF.GenerationSoftware,KiCad,Pcbnew,(6.0.5)*
G04 #@! TF.CreationDate,2022-10-12T22:06:10+02:00*
G04 #@! TF.ProjectId,vakeyboard,76616b65-7962-46f6-9172-642e6b696361,rev?*
G04 #@! TF.SameCoordinates,Original*
G04 #@! TF.FileFunction,Legend,Bot*
G04 #@! TF.FilePolarity,Positive*
%FSLAX46Y46*%
G04 Gerber Fmt 4.6, Leading zero omitted, Abs format (unit mm)*
G04 Created by KiCad (PCBNEW (6.0.5)) date 2022-10-12 22:06:10*
%MOMM*%
%LPD*%
G01*
G04 APERTURE LIST*
G04 Aperture macros list*
%AMRoundRect*
0 Rectangle with rounded corners*
0 $1 Rounding radius*
0 $2 $3 $4 $5 $6 $7 $8 $9 X,Y pos of 4 corners*
0 Add a 4 corners polygon primitive as box body*
4,1,4,$2,$3,$4,$5,$6,$7,$8,$9,$2,$3,0*
0 Add four circle primitives for the rounded corners*
1,1,$1+$1,$2,$3*
1,1,$1+$1,$4,$5*
1,1,$1+$1,$6,$7*
1,1,$1+$1,$8,$9*
0 Add four rect primitives between the rounded corners*
20,1,$1+$1,$2,$3,$4,$5,0*
20,1,$1+$1,$4,$5,$6,$7,0*
20,1,$1+$1,$6,$7,$8,$9,0*
20,1,$1+$1,$8,$9,$2,$3,0*%
G04 Aperture macros list end*
%ADD10C,0.150000*%
%ADD11C,0.120000*%
%ADD12C,3.000000*%
%ADD13C,4.000000*%
%ADD14R,2.550000X2.500000*%
%ADD15RoundRect,0.242500X-0.242500X-0.242500X0.242500X-0.242500X0.242500X0.242500X-0.242500X0.242500X0*%
%ADD16R,1.700000X1.700000*%
%ADD17O,1.700000X1.700000*%
G04 APERTURE END LIST*
D10*
X234720380Y-103954666D02*
X235434666Y-103954666D01*
X235577523Y-103907047D01*
X235672761Y-103811809D01*
X235720380Y-103668952D01*
X235720380Y-103573714D01*
X235720380Y-104954666D02*
X235720380Y-104383238D01*
X235720380Y-104668952D02*
X234720380Y-104668952D01*
X234863238Y-104573714D01*
X234958476Y-104478476D01*
X235006095Y-104383238D01*
X61990380Y-105732666D02*
X62704666Y-105732666D01*
X62847523Y-105685047D01*
X62942761Y-105589809D01*
X62990380Y-105446952D01*
X62990380Y-105351714D01*
X62085619Y-106161238D02*
X62038000Y-106208857D01*
X61990380Y-106304095D01*
X61990380Y-106542190D01*
X62038000Y-106637428D01*
X62085619Y-106685047D01*
X62180857Y-106732666D01*
X62276095Y-106732666D01*
X62418952Y-106685047D01*
X62990380Y-106113619D01*
X62990380Y-106732666D01*
D11*
X223988000Y-105618000D02*
X223988000Y-102958000D01*
X231668000Y-105618000D02*
X223988000Y-105618000D01*
X231668000Y-105618000D02*
X231668000Y-102958000D01*
X234268000Y-105618000D02*
X234268000Y-104288000D01*
X232938000Y-105618000D02*
X234268000Y-105618000D01*
X231668000Y-102958000D02*
X223988000Y-102958000D01*
X58938000Y-107396000D02*
X58938000Y-104736000D01*
X58938000Y-107396000D02*
X51258000Y-107396000D01*
X60208000Y-107396000D02*
X61538000Y-107396000D01*
X51258000Y-107396000D02*
X51258000Y-104736000D01*
X58938000Y-104736000D02*
X51258000Y-104736000D01*
X61538000Y-107396000D02*
X61538000Y-106066000D01*
%LPC*%
D12*
X296300000Y-148035000D03*
X302650000Y-145495000D03*
D13*
X298840000Y-142955000D03*
D14*
X305925000Y-145495000D03*
X292998000Y-148035000D03*
D12*
X39120000Y-148035000D03*
X45470000Y-145495000D03*
D13*
X41660000Y-142955000D03*
D14*
X48745000Y-145495000D03*
X35818000Y-148035000D03*
D12*
X155805000Y-205185000D03*
X162155000Y-202645000D03*
D13*
X158345000Y-200105000D03*
D14*
X165430000Y-202645000D03*
X152503000Y-205185000D03*
D12*
X284390000Y-186135000D03*
X290740000Y-183595000D03*
D13*
X286930000Y-181055000D03*
D14*
X294015000Y-183595000D03*
X281088000Y-186135000D03*
D12*
X298675000Y-205185000D03*
X305025000Y-202645000D03*
D13*
X301215000Y-200105000D03*
D14*
X308300000Y-202645000D03*
X295373000Y-205185000D03*
D12*
X46265000Y-186135000D03*
X52615000Y-183595000D03*
D13*
X48805000Y-181055000D03*
D14*
X55890000Y-183595000D03*
X42963000Y-186135000D03*
D12*
X36745000Y-205185000D03*
X43095000Y-202645000D03*
D13*
X39285000Y-200105000D03*
D14*
X46370000Y-202645000D03*
X33443000Y-205185000D03*
D12*
X289155000Y-167085000D03*
X295505000Y-164545000D03*
D13*
X291695000Y-162005000D03*
D14*
X298780000Y-164545000D03*
X285853000Y-167085000D03*
D12*
X41505000Y-167085000D03*
X47855000Y-164545000D03*
D13*
X44045000Y-162005000D03*
D14*
X51130000Y-164545000D03*
X38203000Y-167085000D03*
D12*
X291535000Y-128985000D03*
X297885000Y-126445000D03*
D13*
X294075000Y-123905000D03*
D14*
X301160000Y-126445000D03*
X288233000Y-128985000D03*
D13*
X232160000Y-181055000D03*
D12*
X229620000Y-186135000D03*
X235970000Y-183595000D03*
D14*
X239245000Y-183595000D03*
X226318000Y-186135000D03*
D13*
X227395000Y-123905000D03*
D12*
X231205000Y-126445000D03*
X224855000Y-128985000D03*
D14*
X234480000Y-126445000D03*
X221553000Y-128985000D03*
D13*
X213110000Y-181055000D03*
D12*
X210570000Y-186135000D03*
X216920000Y-183595000D03*
D14*
X220195000Y-183595000D03*
X207268000Y-186135000D03*
D13*
X55945000Y-123905000D03*
D12*
X59755000Y-126445000D03*
X53405000Y-128985000D03*
D14*
X63030000Y-126445000D03*
X50103000Y-128985000D03*
D13*
X74995000Y-123905000D03*
D12*
X78805000Y-126445000D03*
X72455000Y-128985000D03*
D14*
X82080000Y-126445000D03*
X69153000Y-128985000D03*
D12*
X91505000Y-128985000D03*
X97855000Y-126445000D03*
D13*
X94045000Y-123905000D03*
D14*
X101130000Y-126445000D03*
X88203000Y-128985000D03*
D13*
X113095000Y-123905000D03*
D12*
X110555000Y-128985000D03*
X116905000Y-126445000D03*
D14*
X120180000Y-126445000D03*
X107253000Y-128985000D03*
D12*
X129605000Y-128985000D03*
D13*
X132145000Y-123905000D03*
D12*
X135955000Y-126445000D03*
D14*
X139230000Y-126445000D03*
X126303000Y-128985000D03*
D12*
X155005000Y-126445000D03*
X148655000Y-128985000D03*
D13*
X151195000Y-123905000D03*
D14*
X158280000Y-126445000D03*
X145353000Y-128985000D03*
D12*
X167705000Y-128985000D03*
D13*
X170245000Y-123905000D03*
D12*
X174055000Y-126445000D03*
D14*
X177330000Y-126445000D03*
X164403000Y-128985000D03*
D12*
X193105000Y-126445000D03*
D13*
X189295000Y-123905000D03*
D12*
X186755000Y-128985000D03*
D14*
X196380000Y-126445000D03*
X183453000Y-128985000D03*
D13*
X208345000Y-123905000D03*
D12*
X212155000Y-126445000D03*
X205805000Y-128985000D03*
D14*
X215430000Y-126445000D03*
X202503000Y-128985000D03*
D12*
X264550000Y-164545000D03*
D13*
X260740000Y-162005000D03*
D12*
X258200000Y-167085000D03*
D14*
X267825000Y-164545000D03*
X254898000Y-167085000D03*
D13*
X251210000Y-181055000D03*
D12*
X248670000Y-186135000D03*
X255020000Y-183595000D03*
D14*
X258295000Y-183595000D03*
X245368000Y-186135000D03*
D12*
X239150000Y-167085000D03*
D13*
X241690000Y-162005000D03*
D12*
X245500000Y-164545000D03*
D14*
X248775000Y-164545000D03*
X235848000Y-167085000D03*
D12*
X259785000Y-145495000D03*
X253435000Y-148035000D03*
D13*
X255975000Y-142955000D03*
D14*
X263060000Y-145495000D03*
X250133000Y-148035000D03*
D12*
X278835000Y-145495000D03*
X272485000Y-148035000D03*
D13*
X275025000Y-142955000D03*
D14*
X282110000Y-145495000D03*
X269183000Y-148035000D03*
D12*
X74050000Y-164545000D03*
D13*
X70240000Y-162005000D03*
D12*
X67700000Y-167085000D03*
D14*
X77325000Y-164545000D03*
X64398000Y-167085000D03*
D13*
X155960000Y-181055000D03*
D12*
X153420000Y-186135000D03*
X159770000Y-183595000D03*
D14*
X163045000Y-183595000D03*
X150118000Y-186135000D03*
D12*
X121670000Y-183595000D03*
X115320000Y-186135000D03*
D13*
X117860000Y-181055000D03*
D14*
X124945000Y-183595000D03*
X112018000Y-186135000D03*
D12*
X105800000Y-167085000D03*
D13*
X108340000Y-162005000D03*
D12*
X112150000Y-164545000D03*
D14*
X115425000Y-164545000D03*
X102498000Y-167085000D03*
D12*
X324855000Y-148035000D03*
D13*
X327395000Y-142955000D03*
D12*
X331205000Y-145495000D03*
D14*
X334480000Y-145495000D03*
X321553000Y-148035000D03*
D12*
X350255000Y-202645000D03*
D13*
X346445000Y-200105000D03*
D12*
X343905000Y-205185000D03*
D14*
X353530000Y-202645000D03*
X340603000Y-205185000D03*
D13*
X103575000Y-142955000D03*
D12*
X107385000Y-145495000D03*
X101035000Y-148035000D03*
D14*
X110660000Y-145495000D03*
X97733000Y-148035000D03*
D12*
X350255000Y-145495000D03*
X343905000Y-148035000D03*
D13*
X346445000Y-142955000D03*
D14*
X353530000Y-145495000D03*
X340603000Y-148035000D03*
D12*
X269305000Y-126445000D03*
X262955000Y-128985000D03*
D13*
X265495000Y-123905000D03*
D14*
X272580000Y-126445000D03*
X259653000Y-128985000D03*
X31053000Y-100415000D03*
X43980000Y-97875000D03*
D12*
X40705000Y-97875000D03*
X34355000Y-100415000D03*
D13*
X36895000Y-95335000D03*
D12*
X72455000Y-100415000D03*
X78805000Y-97875000D03*
D13*
X74995000Y-95335000D03*
D14*
X82080000Y-97875000D03*
X69153000Y-100415000D03*
D12*
X97855000Y-97875000D03*
X91505000Y-100415000D03*
D13*
X94045000Y-95335000D03*
D14*
X101130000Y-97875000D03*
X88203000Y-100415000D03*
D12*
X110555000Y-100415000D03*
D13*
X113095000Y-95335000D03*
D12*
X116905000Y-97875000D03*
D14*
X120180000Y-97875000D03*
X107253000Y-100415000D03*
D12*
X135955000Y-97875000D03*
D13*
X132145000Y-95335000D03*
D12*
X129605000Y-100415000D03*
D14*
X139230000Y-97875000D03*
X126303000Y-100415000D03*
D12*
X158182500Y-100415000D03*
X164532500Y-97875000D03*
D13*
X160722500Y-95335000D03*
D14*
X167807500Y-97875000D03*
X154880500Y-100415000D03*
D13*
X179772500Y-95335000D03*
D12*
X177232500Y-100415000D03*
X183582500Y-97875000D03*
D14*
X186857500Y-97875000D03*
X173930500Y-100415000D03*
D13*
X198822500Y-95335000D03*
D12*
X196282500Y-100415000D03*
X202632500Y-97875000D03*
D14*
X205907500Y-97875000D03*
X192980500Y-100415000D03*
D12*
X221682500Y-97875000D03*
X215332500Y-100415000D03*
D13*
X217872500Y-95335000D03*
D14*
X224957500Y-97875000D03*
X212030500Y-100415000D03*
D12*
X250260000Y-97875000D03*
D13*
X246450000Y-95335000D03*
D12*
X243910000Y-100415000D03*
D14*
X253535000Y-97875000D03*
X240608000Y-100415000D03*
D13*
X265500000Y-95335000D03*
D12*
X269310000Y-97875000D03*
X262960000Y-100415000D03*
D14*
X272585000Y-97875000D03*
X259658000Y-100415000D03*
D12*
X288360000Y-97875000D03*
D13*
X284550000Y-95335000D03*
D12*
X282010000Y-100415000D03*
D14*
X291635000Y-97875000D03*
X278708000Y-100415000D03*
D12*
X307410000Y-97875000D03*
X301060000Y-100415000D03*
D13*
X303600000Y-95335000D03*
D14*
X310685000Y-97875000D03*
X297758000Y-100415000D03*
D12*
X124850000Y-167085000D03*
D13*
X127390000Y-162005000D03*
D12*
X131200000Y-164545000D03*
D14*
X134475000Y-164545000D03*
X121548000Y-167085000D03*
D13*
X146440000Y-162005000D03*
D12*
X150250000Y-164545000D03*
X143900000Y-167085000D03*
D14*
X153525000Y-164545000D03*
X140598000Y-167085000D03*
D12*
X162950000Y-167085000D03*
X169300000Y-164545000D03*
D13*
X165490000Y-162005000D03*
D14*
X172575000Y-164545000D03*
X159648000Y-167085000D03*
D12*
X343905000Y-128985000D03*
X350255000Y-126445000D03*
D13*
X346445000Y-123905000D03*
D14*
X353530000Y-126445000D03*
X340603000Y-128985000D03*
D12*
X202635000Y-145495000D03*
D13*
X198825000Y-142955000D03*
D12*
X196285000Y-148035000D03*
D14*
X205910000Y-145495000D03*
X192983000Y-148035000D03*
D12*
X324855000Y-128985000D03*
X331205000Y-126445000D03*
D13*
X327395000Y-123905000D03*
D14*
X334480000Y-126445000D03*
X321553000Y-128985000D03*
D13*
X184540000Y-162005000D03*
D12*
X188350000Y-164545000D03*
X182000000Y-167085000D03*
D14*
X191625000Y-164545000D03*
X178698000Y-167085000D03*
D12*
X207400000Y-164545000D03*
X201050000Y-167085000D03*
D13*
X203590000Y-162005000D03*
D14*
X210675000Y-164545000D03*
X197748000Y-167085000D03*
D13*
X222640000Y-162005000D03*
D12*
X220100000Y-167085000D03*
X226450000Y-164545000D03*
D14*
X229725000Y-164545000D03*
X216798000Y-167085000D03*
D12*
X324855000Y-205185000D03*
X331205000Y-202645000D03*
D13*
X327395000Y-200105000D03*
D14*
X334480000Y-202645000D03*
X321553000Y-205185000D03*
D12*
X191520000Y-186135000D03*
X197870000Y-183595000D03*
D13*
X194060000Y-181055000D03*
D14*
X201145000Y-183595000D03*
X188218000Y-186135000D03*
D12*
X243905000Y-128985000D03*
D13*
X246445000Y-123905000D03*
D12*
X250255000Y-126445000D03*
D14*
X253530000Y-126445000D03*
X240603000Y-128985000D03*
D12*
X172470000Y-186135000D03*
D13*
X175010000Y-181055000D03*
D12*
X178820000Y-183595000D03*
D14*
X182095000Y-183595000D03*
X169168000Y-186135000D03*
D12*
X215335000Y-148035000D03*
D13*
X217875000Y-142955000D03*
D12*
X221685000Y-145495000D03*
D14*
X224960000Y-145495000D03*
X212033000Y-148035000D03*
D12*
X234385000Y-148035000D03*
X240735000Y-145495000D03*
D13*
X236925000Y-142955000D03*
D14*
X244010000Y-145495000D03*
X231083000Y-148035000D03*
D12*
X362955000Y-100415000D03*
D13*
X365495000Y-95335000D03*
D12*
X369305000Y-97875000D03*
D14*
X372580000Y-97875000D03*
X359653000Y-100415000D03*
D13*
X365495000Y-142955000D03*
D12*
X362955000Y-148035000D03*
X369305000Y-145495000D03*
D14*
X372580000Y-145495000D03*
X359653000Y-148035000D03*
D12*
X369305000Y-126445000D03*
D13*
X365495000Y-123905000D03*
D12*
X362955000Y-128985000D03*
D14*
X372580000Y-126445000D03*
X359653000Y-128985000D03*
D13*
X327395000Y-95335000D03*
D12*
X331205000Y-97875000D03*
X324855000Y-100415000D03*
D14*
X334480000Y-97875000D03*
X321553000Y-100415000D03*
D12*
X69285000Y-145495000D03*
D13*
X65475000Y-142955000D03*
D12*
X62935000Y-148035000D03*
D14*
X72560000Y-145495000D03*
X59633000Y-148035000D03*
D12*
X126435000Y-145495000D03*
D13*
X122625000Y-142955000D03*
D12*
X120085000Y-148035000D03*
D14*
X129710000Y-145495000D03*
X116783000Y-148035000D03*
D13*
X365495000Y-200105000D03*
D12*
X369305000Y-202645000D03*
X362955000Y-205185000D03*
D14*
X372580000Y-202645000D03*
X359653000Y-205185000D03*
D13*
X89290000Y-162005000D03*
D12*
X93100000Y-164545000D03*
X86750000Y-167085000D03*
D14*
X96375000Y-164545000D03*
X83448000Y-167085000D03*
D13*
X346445000Y-95335000D03*
D12*
X343905000Y-100415000D03*
X350255000Y-97875000D03*
D14*
X353530000Y-97875000D03*
X340603000Y-100415000D03*
D12*
X145485000Y-145495000D03*
X139135000Y-148035000D03*
D13*
X141675000Y-142955000D03*
D14*
X148760000Y-145495000D03*
X135833000Y-148035000D03*
D12*
X40705000Y-126445000D03*
X34355000Y-128985000D03*
D13*
X36895000Y-123905000D03*
D14*
X43980000Y-126445000D03*
X31053000Y-128985000D03*
D12*
X177235000Y-148035000D03*
D13*
X179775000Y-142955000D03*
D12*
X183585000Y-145495000D03*
D14*
X186860000Y-145495000D03*
X173933000Y-148035000D03*
D13*
X136910000Y-181055000D03*
D12*
X140720000Y-183595000D03*
X134370000Y-186135000D03*
D14*
X143995000Y-183595000D03*
X131068000Y-186135000D03*
D13*
X84525000Y-142955000D03*
D12*
X88335000Y-145495000D03*
X81985000Y-148035000D03*
D14*
X91610000Y-145495000D03*
X78683000Y-148035000D03*
D12*
X102620000Y-183595000D03*
X96270000Y-186135000D03*
D13*
X98810000Y-181055000D03*
D14*
X105895000Y-183595000D03*
X92968000Y-186135000D03*
D12*
X158185000Y-148035000D03*
D13*
X160725000Y-142955000D03*
D12*
X164535000Y-145495000D03*
D14*
X167810000Y-145495000D03*
X154883000Y-148035000D03*
D13*
X79760000Y-181055000D03*
D12*
X83570000Y-183595000D03*
X77220000Y-186135000D03*
D14*
X86845000Y-183595000D03*
X73918000Y-186135000D03*
D12*
X274865000Y-205185000D03*
D13*
X277405000Y-200105000D03*
D12*
X281215000Y-202645000D03*
D14*
X284490000Y-202645000D03*
X271563000Y-205185000D03*
D12*
X66905000Y-202645000D03*
D13*
X63095000Y-200105000D03*
D12*
X60555000Y-205185000D03*
D14*
X70180000Y-202645000D03*
X57253000Y-205185000D03*
D12*
X84365000Y-205185000D03*
D13*
X86905000Y-200105000D03*
D12*
X90715000Y-202645000D03*
D14*
X93990000Y-202645000D03*
X81063000Y-205185000D03*
D12*
X257405000Y-202645000D03*
D13*
X253595000Y-200105000D03*
D12*
X251055000Y-205185000D03*
D14*
X260680000Y-202645000D03*
X247753000Y-205185000D03*
D13*
X229785000Y-200105000D03*
D12*
X227245000Y-205185000D03*
X233595000Y-202645000D03*
D14*
X236870000Y-202645000D03*
X223943000Y-205185000D03*
D12*
X350255000Y-183555000D03*
D13*
X346445000Y-181015000D03*
D12*
X343905000Y-186095000D03*
D14*
X353530000Y-183555000D03*
X340603000Y-186095000D03*
D15*
X161700000Y-109220000D03*
X161700000Y-110420000D03*
X159300000Y-109220000D03*
X160500000Y-110420000D03*
X161700000Y-108020000D03*
X160500000Y-109220000D03*
X159300000Y-108020000D03*
X160500000Y-108020000D03*
X159300000Y-110420000D03*
X364560000Y-108020000D03*
X366960000Y-110420000D03*
X364560000Y-109220000D03*
X365760000Y-110420000D03*
X364560000Y-110420000D03*
X366960000Y-108020000D03*
X366960000Y-109220000D03*
X365760000Y-109220000D03*
X365760000Y-108020000D03*
X36830000Y-109220000D03*
X35630000Y-110420000D03*
X38030000Y-109220000D03*
X36830000Y-108020000D03*
X35630000Y-109220000D03*
X38030000Y-108020000D03*
X38030000Y-110420000D03*
X36830000Y-110420000D03*
X35630000Y-108020000D03*
X326460000Y-108020000D03*
X328860000Y-109220000D03*
X327660000Y-108020000D03*
X327660000Y-109220000D03*
X326460000Y-109220000D03*
X326460000Y-110420000D03*
X328860000Y-108020000D03*
X327660000Y-110420000D03*
X328860000Y-110420000D03*
X197420000Y-108020000D03*
X198620000Y-108020000D03*
X197420000Y-110420000D03*
X197420000Y-109220000D03*
X198620000Y-109220000D03*
X199820000Y-109220000D03*
X199820000Y-108020000D03*
X199820000Y-110420000D03*
X198620000Y-110420000D03*
X114230000Y-110420000D03*
X111830000Y-110420000D03*
X111830000Y-109220000D03*
X113030000Y-110420000D03*
X111830000Y-108020000D03*
X113030000Y-108020000D03*
X113030000Y-109220000D03*
X114230000Y-109220000D03*
X114230000Y-108020000D03*
X76130000Y-108020000D03*
X74930000Y-110420000D03*
X73730000Y-108020000D03*
X73730000Y-110420000D03*
X74930000Y-109220000D03*
X76130000Y-110420000D03*
X73730000Y-109220000D03*
X76130000Y-109220000D03*
X74930000Y-108020000D03*
X245180000Y-109220000D03*
X247580000Y-109220000D03*
X247580000Y-108020000D03*
X245180000Y-110420000D03*
X246380000Y-108020000D03*
X245180000Y-108020000D03*
X247580000Y-110420000D03*
X246380000Y-110420000D03*
X246380000Y-109220000D03*
X283280000Y-109220000D03*
X285680000Y-108020000D03*
X284480000Y-110420000D03*
X283280000Y-110420000D03*
X284480000Y-109220000D03*
X285680000Y-109220000D03*
X285680000Y-110420000D03*
X284480000Y-108020000D03*
X283280000Y-108020000D03*
D16*
X232938000Y-104288000D03*
D17*
X230398000Y-104288000D03*
X227858000Y-104288000D03*
X225318000Y-104288000D03*
D16*
X60208000Y-106066000D03*
D17*
X57668000Y-106066000D03*
X55128000Y-106066000D03*
X52588000Y-106066000D03*
M02*
