G04 #@! TF.GenerationSoftware,KiCad,Pcbnew,(6.0.5)*
G04 #@! TF.CreationDate,2022-10-12T22:06:10+02:00*
G04 #@! TF.ProjectId,vakeyboard,76616b65-7962-46f6-9172-642e6b696361,rev?*
G04 #@! TF.SameCoordinates,Original*
G04 #@! TF.FileFunction,Paste,Bot*
G04 #@! TF.FilePolarity,Positive*
%FSLAX46Y46*%
G04 Gerber Fmt 4.6, Leading zero omitted, Abs format (unit mm)*
G04 Created by KiCad (PCBNEW (6.0.5)) date 2022-10-12 22:06:10*
%MOMM*%
%LPD*%
G01*
G04 APERTURE LIST*
%ADD10R,2.550000X2.500000*%
G04 APERTURE END LIST*
D10*
X305925000Y-145495000D03*
X292998000Y-148035000D03*
X48745000Y-145495000D03*
X35818000Y-148035000D03*
X165430000Y-202645000D03*
X152503000Y-205185000D03*
X294015000Y-183595000D03*
X281088000Y-186135000D03*
X308300000Y-202645000D03*
X295373000Y-205185000D03*
X55890000Y-183595000D03*
X42963000Y-186135000D03*
X46370000Y-202645000D03*
X33443000Y-205185000D03*
X298780000Y-164545000D03*
X285853000Y-167085000D03*
X51130000Y-164545000D03*
X38203000Y-167085000D03*
X301160000Y-126445000D03*
X288233000Y-128985000D03*
X239245000Y-183595000D03*
X226318000Y-186135000D03*
X234480000Y-126445000D03*
X221553000Y-128985000D03*
X220195000Y-183595000D03*
X207268000Y-186135000D03*
X63030000Y-126445000D03*
X50103000Y-128985000D03*
X82080000Y-126445000D03*
X69153000Y-128985000D03*
X101130000Y-126445000D03*
X88203000Y-128985000D03*
X120180000Y-126445000D03*
X107253000Y-128985000D03*
X139230000Y-126445000D03*
X126303000Y-128985000D03*
X158280000Y-126445000D03*
X145353000Y-128985000D03*
X177330000Y-126445000D03*
X164403000Y-128985000D03*
X196380000Y-126445000D03*
X183453000Y-128985000D03*
X215430000Y-126445000D03*
X202503000Y-128985000D03*
X267825000Y-164545000D03*
X254898000Y-167085000D03*
X258295000Y-183595000D03*
X245368000Y-186135000D03*
X248775000Y-164545000D03*
X235848000Y-167085000D03*
X263060000Y-145495000D03*
X250133000Y-148035000D03*
X282110000Y-145495000D03*
X269183000Y-148035000D03*
X77325000Y-164545000D03*
X64398000Y-167085000D03*
X163045000Y-183595000D03*
X150118000Y-186135000D03*
X124945000Y-183595000D03*
X112018000Y-186135000D03*
X115425000Y-164545000D03*
X102498000Y-167085000D03*
X334480000Y-145495000D03*
X321553000Y-148035000D03*
X353530000Y-202645000D03*
X340603000Y-205185000D03*
X110660000Y-145495000D03*
X97733000Y-148035000D03*
X353530000Y-145495000D03*
X340603000Y-148035000D03*
X272580000Y-126445000D03*
X259653000Y-128985000D03*
X31053000Y-100415000D03*
X43980000Y-97875000D03*
X82080000Y-97875000D03*
X69153000Y-100415000D03*
X101130000Y-97875000D03*
X88203000Y-100415000D03*
X120180000Y-97875000D03*
X107253000Y-100415000D03*
X139230000Y-97875000D03*
X126303000Y-100415000D03*
X167807500Y-97875000D03*
X154880500Y-100415000D03*
X186857500Y-97875000D03*
X173930500Y-100415000D03*
X205907500Y-97875000D03*
X192980500Y-100415000D03*
X224957500Y-97875000D03*
X212030500Y-100415000D03*
X253535000Y-97875000D03*
X240608000Y-100415000D03*
X272585000Y-97875000D03*
X259658000Y-100415000D03*
X291635000Y-97875000D03*
X278708000Y-100415000D03*
X310685000Y-97875000D03*
X297758000Y-100415000D03*
X134475000Y-164545000D03*
X121548000Y-167085000D03*
X153525000Y-164545000D03*
X140598000Y-167085000D03*
X172575000Y-164545000D03*
X159648000Y-167085000D03*
X353530000Y-126445000D03*
X340603000Y-128985000D03*
X205910000Y-145495000D03*
X192983000Y-148035000D03*
X334480000Y-126445000D03*
X321553000Y-128985000D03*
X191625000Y-164545000D03*
X178698000Y-167085000D03*
X210675000Y-164545000D03*
X197748000Y-167085000D03*
X229725000Y-164545000D03*
X216798000Y-167085000D03*
X334480000Y-202645000D03*
X321553000Y-205185000D03*
X201145000Y-183595000D03*
X188218000Y-186135000D03*
X253530000Y-126445000D03*
X240603000Y-128985000D03*
X182095000Y-183595000D03*
X169168000Y-186135000D03*
X224960000Y-145495000D03*
X212033000Y-148035000D03*
X244010000Y-145495000D03*
X231083000Y-148035000D03*
X372580000Y-97875000D03*
X359653000Y-100415000D03*
X372580000Y-145495000D03*
X359653000Y-148035000D03*
X372580000Y-126445000D03*
X359653000Y-128985000D03*
X334480000Y-97875000D03*
X321553000Y-100415000D03*
X72560000Y-145495000D03*
X59633000Y-148035000D03*
X129710000Y-145495000D03*
X116783000Y-148035000D03*
X372580000Y-202645000D03*
X359653000Y-205185000D03*
X96375000Y-164545000D03*
X83448000Y-167085000D03*
X353530000Y-97875000D03*
X340603000Y-100415000D03*
X148760000Y-145495000D03*
X135833000Y-148035000D03*
X43980000Y-126445000D03*
X31053000Y-128985000D03*
X186860000Y-145495000D03*
X173933000Y-148035000D03*
X143995000Y-183595000D03*
X131068000Y-186135000D03*
X91610000Y-145495000D03*
X78683000Y-148035000D03*
X105895000Y-183595000D03*
X92968000Y-186135000D03*
X167810000Y-145495000D03*
X154883000Y-148035000D03*
X86845000Y-183595000D03*
X73918000Y-186135000D03*
X284490000Y-202645000D03*
X271563000Y-205185000D03*
X70180000Y-202645000D03*
X57253000Y-205185000D03*
X93990000Y-202645000D03*
X81063000Y-205185000D03*
X260680000Y-202645000D03*
X247753000Y-205185000D03*
X236870000Y-202645000D03*
X223943000Y-205185000D03*
X353530000Y-183555000D03*
X340603000Y-186095000D03*
M02*
