G04 #@! TF.GenerationSoftware,KiCad,Pcbnew,(6.0.5)*
G04 #@! TF.CreationDate,2022-10-12T22:06:10+02:00*
G04 #@! TF.ProjectId,vakeyboard,76616b65-7962-46f6-9172-642e6b696361,rev?*
G04 #@! TF.SameCoordinates,Original*
G04 #@! TF.FileFunction,Paste,Top*
G04 #@! TF.FilePolarity,Positive*
%FSLAX46Y46*%
G04 Gerber Fmt 4.6, Leading zero omitted, Abs format (unit mm)*
G04 Created by KiCad (PCBNEW (6.0.5)) date 2022-10-12 22:06:10*
%MOMM*%
%LPD*%
G01*
G04 APERTURE LIST*
G04 Aperture macros list*
%AMRoundRect*
0 Rectangle with rounded corners*
0 $1 Rounding radius*
0 $2 $3 $4 $5 $6 $7 $8 $9 X,Y pos of 4 corners*
0 Add a 4 corners polygon primitive as box body*
4,1,4,$2,$3,$4,$5,$6,$7,$8,$9,$2,$3,0*
0 Add four circle primitives for the rounded corners*
1,1,$1+$1,$2,$3*
1,1,$1+$1,$4,$5*
1,1,$1+$1,$6,$7*
1,1,$1+$1,$8,$9*
0 Add four rect primitives between the rounded corners*
20,1,$1+$1,$2,$3,$4,$5,0*
20,1,$1+$1,$4,$5,$6,$7,0*
20,1,$1+$1,$6,$7,$8,$9,0*
20,1,$1+$1,$8,$9,$2,$3,0*%
G04 Aperture macros list end*
%ADD10C,0.010000*%
%ADD11RoundRect,0.008100X0.421900X0.126900X-0.421900X0.126900X-0.421900X-0.126900X0.421900X-0.126900X0*%
%ADD12RoundRect,0.008100X-0.126900X0.421900X-0.126900X-0.421900X0.126900X-0.421900X0.126900X0.421900X0*%
%ADD13RoundRect,0.135000X-0.185000X0.135000X-0.185000X-0.135000X0.185000X-0.135000X0.185000X0.135000X0*%
%ADD14R,0.700000X0.600000*%
%ADD15R,0.650000X0.600000*%
%ADD16RoundRect,0.140000X-0.170000X0.140000X-0.170000X-0.140000X0.170000X-0.140000X0.170000X0.140000X0*%
%ADD17RoundRect,0.135000X0.185000X-0.135000X0.185000X0.135000X-0.185000X0.135000X-0.185000X-0.135000X0*%
%ADD18RoundRect,0.062500X-0.350000X-0.062500X0.350000X-0.062500X0.350000X0.062500X-0.350000X0.062500X0*%
%ADD19RoundRect,0.062500X-0.062500X-0.350000X0.062500X-0.350000X0.062500X0.350000X-0.062500X0.350000X0*%
%ADD20RoundRect,0.135000X0.135000X0.185000X-0.135000X0.185000X-0.135000X-0.185000X0.135000X-0.185000X0*%
%ADD21RoundRect,0.212500X-0.212500X-0.212500X0.212500X-0.212500X0.212500X0.212500X-0.212500X0.212500X0*%
%ADD22RoundRect,0.062500X-0.375000X-0.062500X0.375000X-0.062500X0.375000X0.062500X-0.375000X0.062500X0*%
%ADD23RoundRect,0.062500X-0.062500X-0.375000X0.062500X-0.375000X0.062500X0.375000X-0.062500X0.375000X0*%
%ADD24RoundRect,0.135000X-0.135000X-0.185000X0.135000X-0.185000X0.135000X0.185000X-0.135000X0.185000X0*%
%ADD25RoundRect,0.140000X0.140000X0.170000X-0.140000X0.170000X-0.140000X-0.170000X0.140000X-0.170000X0*%
%ADD26RoundRect,0.140000X-0.140000X-0.170000X0.140000X-0.170000X0.140000X0.170000X-0.140000X0.170000X0*%
G04 APERTURE END LIST*
G36*
X124994000Y-198655000D02*
G01*
X123694000Y-198655000D01*
X123694000Y-197355000D01*
X124994000Y-197355000D01*
X124994000Y-198655000D01*
G37*
D10*
X124994000Y-198655000D02*
X123694000Y-198655000D01*
X123694000Y-197355000D01*
X124994000Y-197355000D01*
X124994000Y-198655000D01*
G36*
X124994000Y-200705000D02*
G01*
X123694000Y-200705000D01*
X123694000Y-199405000D01*
X124994000Y-199405000D01*
X124994000Y-200705000D01*
G37*
X124994000Y-200705000D02*
X123694000Y-200705000D01*
X123694000Y-199405000D01*
X124994000Y-199405000D01*
X124994000Y-200705000D01*
G36*
X127044000Y-200705000D02*
G01*
X125744000Y-200705000D01*
X125744000Y-199405000D01*
X127044000Y-199405000D01*
X127044000Y-200705000D01*
G37*
X127044000Y-200705000D02*
X125744000Y-200705000D01*
X125744000Y-199405000D01*
X127044000Y-199405000D01*
X127044000Y-200705000D01*
G36*
X127044000Y-198655000D02*
G01*
X125744000Y-198655000D01*
X125744000Y-197355000D01*
X127044000Y-197355000D01*
X127044000Y-198655000D01*
G37*
X127044000Y-198655000D02*
X125744000Y-198655000D01*
X125744000Y-197355000D01*
X127044000Y-197355000D01*
X127044000Y-198655000D01*
D11*
X128304000Y-201280000D03*
X128304000Y-200780000D03*
X128304000Y-200280000D03*
X128304000Y-199780000D03*
X128304000Y-199280000D03*
X128304000Y-198780000D03*
X128304000Y-198280000D03*
X128304000Y-197780000D03*
X128304000Y-197280000D03*
X128304000Y-196780000D03*
D12*
X127619000Y-196095000D03*
X127119000Y-196095000D03*
X126619000Y-196095000D03*
X126119000Y-196095000D03*
X125619000Y-196095000D03*
X125119000Y-196095000D03*
X124619000Y-196095000D03*
X124119000Y-196095000D03*
X123619000Y-196095000D03*
X123119000Y-196095000D03*
D11*
X122434000Y-196780000D03*
X122434000Y-197280000D03*
X122434000Y-197780000D03*
X122434000Y-198280000D03*
X122434000Y-198780000D03*
X122434000Y-199280000D03*
X122434000Y-199780000D03*
X122434000Y-200280000D03*
X122434000Y-200780000D03*
X122434000Y-201280000D03*
D12*
X123119000Y-201965000D03*
X123619000Y-201965000D03*
X124119000Y-201965000D03*
X124619000Y-201965000D03*
X125119000Y-201965000D03*
X125619000Y-201965000D03*
X126119000Y-201965000D03*
X126619000Y-201965000D03*
X127119000Y-201965000D03*
X127619000Y-201965000D03*
D13*
X129814000Y-204108000D03*
X129814000Y-205128000D03*
D14*
X223774000Y-180355000D03*
X223774000Y-181755000D03*
X204724000Y-180355000D03*
X204724000Y-181755000D03*
X47874000Y-123205000D03*
X47874000Y-124605000D03*
X66924000Y-123205000D03*
X66924000Y-124605000D03*
X85974000Y-123205000D03*
X85974000Y-124605000D03*
X105024000Y-123205000D03*
X105024000Y-124605000D03*
X124074000Y-123205000D03*
X124074000Y-124605000D03*
X143124000Y-123205000D03*
X143124000Y-124605000D03*
X162174000Y-123205000D03*
X162174000Y-124605000D03*
X181224000Y-123205000D03*
X181224000Y-124605000D03*
X200274000Y-123205000D03*
X200274000Y-124605000D03*
X219324000Y-123205000D03*
X219324000Y-124605000D03*
X252359000Y-161305000D03*
X252359000Y-162705000D03*
X242824000Y-180355000D03*
X242824000Y-181755000D03*
X233309000Y-161305000D03*
X233309000Y-162705000D03*
X247909000Y-142255000D03*
X247909000Y-143655000D03*
X290454000Y-142255000D03*
X290454000Y-143655000D03*
X266959000Y-142255000D03*
X266959000Y-143655000D03*
X61859000Y-161305000D03*
X61859000Y-162705000D03*
X147574000Y-180355000D03*
X147574000Y-181755000D03*
X275209000Y-123205000D03*
X275209000Y-124605000D03*
X109474000Y-180355000D03*
X109474000Y-181755000D03*
X35819000Y-161305000D03*
X35819000Y-162705000D03*
X99959000Y-161305000D03*
X99959000Y-162705000D03*
X319019000Y-142255000D03*
X319019000Y-143655000D03*
X338069000Y-199753000D03*
X338069000Y-201153000D03*
X95509000Y-142255000D03*
X95509000Y-143655000D03*
X338069000Y-142255000D03*
X338069000Y-143655000D03*
X272288000Y-161305000D03*
X272288000Y-162705000D03*
X257424000Y-123205000D03*
X257424000Y-124605000D03*
X28824000Y-94630000D03*
X28824000Y-96030000D03*
X66919000Y-94630000D03*
X66919000Y-96030000D03*
X85974000Y-94630000D03*
X85974000Y-96030000D03*
X105024000Y-94630000D03*
X105024000Y-96030000D03*
X124074000Y-94630000D03*
X124074000Y-96030000D03*
X152659000Y-94630000D03*
X152659000Y-96030000D03*
X171684000Y-94630000D03*
X171684000Y-96030000D03*
X190734000Y-94630000D03*
X190734000Y-96030000D03*
X209784000Y-94630000D03*
X209784000Y-96030000D03*
X238394000Y-94630000D03*
X238394000Y-96030000D03*
X257439000Y-94630000D03*
X257439000Y-96030000D03*
X276489000Y-94630000D03*
X276489000Y-96030000D03*
X295539000Y-94630000D03*
X295539000Y-96030000D03*
X119009000Y-161305000D03*
X119009000Y-162705000D03*
X268864000Y-199753000D03*
X268864000Y-201153000D03*
X138059000Y-161305000D03*
X138059000Y-162705000D03*
X157109000Y-161305000D03*
X157109000Y-162705000D03*
X338069000Y-123205000D03*
X338069000Y-124605000D03*
X190759000Y-142255000D03*
X190759000Y-143655000D03*
X319019000Y-123205000D03*
X319019000Y-124605000D03*
X176159000Y-161305000D03*
X176159000Y-162705000D03*
X195209000Y-161305000D03*
X195209000Y-162705000D03*
X214259000Y-161305000D03*
X214259000Y-162705000D03*
X54869000Y-199405000D03*
X54869000Y-200805000D03*
X31374000Y-199405000D03*
X31374000Y-200805000D03*
X319019000Y-199753000D03*
X319019000Y-201153000D03*
X31877000Y-180402000D03*
X31877000Y-181802000D03*
X78999000Y-199405000D03*
X78999000Y-200805000D03*
X185674000Y-180355000D03*
X185674000Y-181755000D03*
X238374000Y-123205000D03*
X238374000Y-124605000D03*
X166624000Y-180355000D03*
X166624000Y-181755000D03*
X209809000Y-142255000D03*
X209809000Y-143655000D03*
X228859000Y-142255000D03*
X228859000Y-143655000D03*
X357119000Y-94630000D03*
X357119000Y-96030000D03*
X357119000Y-142255000D03*
X357119000Y-143655000D03*
X357119000Y-123205000D03*
X357119000Y-124605000D03*
X319019000Y-94630000D03*
X319019000Y-96030000D03*
X57409000Y-142255000D03*
X57409000Y-143655000D03*
X114559000Y-142255000D03*
X114559000Y-143655000D03*
X245369000Y-199753000D03*
X245369000Y-201153000D03*
X292994000Y-199753000D03*
X292994000Y-201153000D03*
X357119000Y-199753000D03*
X357119000Y-201153000D03*
X268986000Y-180355000D03*
X268986000Y-181755000D03*
X221239000Y-199753000D03*
X221239000Y-201153000D03*
X80909000Y-161305000D03*
X80909000Y-162705000D03*
X338069000Y-94630000D03*
X338069000Y-96030000D03*
X150119000Y-199405000D03*
X150119000Y-200805000D03*
X133609000Y-142255000D03*
X133609000Y-143655000D03*
X33274000Y-142255000D03*
X33274000Y-143655000D03*
X28824000Y-123205000D03*
X28824000Y-124605000D03*
X171709000Y-142255000D03*
X171709000Y-143655000D03*
X338069000Y-180355000D03*
X338069000Y-181755000D03*
X128524000Y-180355000D03*
X128524000Y-181755000D03*
X76459000Y-142255000D03*
X76459000Y-143655000D03*
X90424000Y-180355000D03*
X90424000Y-181755000D03*
X152659000Y-142255000D03*
X152659000Y-143655000D03*
X71374000Y-180355000D03*
X71374000Y-181755000D03*
D15*
X231765000Y-175270000D03*
X231765000Y-176670000D03*
X232565000Y-175270000D03*
X232565000Y-176670000D03*
X260345000Y-156220000D03*
X260345000Y-157620000D03*
X261145000Y-156220000D03*
X261145000Y-157620000D03*
X250815000Y-175270000D03*
X250815000Y-176670000D03*
X251615000Y-175270000D03*
X251615000Y-176670000D03*
X241295000Y-156220000D03*
X241295000Y-157620000D03*
X242095000Y-156220000D03*
X242095000Y-157620000D03*
X255580000Y-137170000D03*
X255580000Y-138570000D03*
X256380000Y-137170000D03*
X256380000Y-138570000D03*
X298445000Y-137170000D03*
X298445000Y-138570000D03*
X299245000Y-137170000D03*
X299245000Y-138570000D03*
X274630000Y-137170000D03*
X274630000Y-138570000D03*
X275430000Y-137170000D03*
X275430000Y-138570000D03*
X69845000Y-156220000D03*
X69845000Y-157620000D03*
X70645000Y-156220000D03*
X70645000Y-157620000D03*
X155565000Y-175270000D03*
X155565000Y-176670000D03*
X156365000Y-175270000D03*
X156365000Y-176670000D03*
X293680000Y-118120000D03*
X293680000Y-119520000D03*
X294480000Y-118120000D03*
X294480000Y-119520000D03*
X117465000Y-175270000D03*
X117465000Y-176670000D03*
X118265000Y-175270000D03*
X118265000Y-176670000D03*
X43650000Y-156220000D03*
X43650000Y-157620000D03*
X44450000Y-156220000D03*
X44450000Y-157620000D03*
X212715000Y-175270000D03*
X212715000Y-176670000D03*
X213515000Y-175270000D03*
X213515000Y-176670000D03*
X107945000Y-156220000D03*
X107945000Y-157620000D03*
X108745000Y-156220000D03*
X108745000Y-157620000D03*
X327000000Y-137170000D03*
X327000000Y-138570000D03*
X327800000Y-137170000D03*
X327800000Y-138570000D03*
X346050000Y-194320000D03*
X346050000Y-195720000D03*
X346850000Y-194320000D03*
X346850000Y-195720000D03*
X103180000Y-137170000D03*
X103180000Y-138570000D03*
X103980000Y-137170000D03*
X103980000Y-138570000D03*
X188900000Y-118120000D03*
X188900000Y-119520000D03*
X189700000Y-118120000D03*
X189700000Y-119520000D03*
X346050000Y-137170000D03*
X346050000Y-138570000D03*
X346850000Y-137170000D03*
X346850000Y-138570000D03*
X291300000Y-156220000D03*
X291300000Y-157620000D03*
X292100000Y-156220000D03*
X292100000Y-157620000D03*
X265100000Y-118120000D03*
X265100000Y-119520000D03*
X265900000Y-118120000D03*
X265900000Y-119520000D03*
X36500000Y-89550000D03*
X36500000Y-90950000D03*
X37300000Y-89550000D03*
X37300000Y-90950000D03*
X74600000Y-89550000D03*
X74600000Y-90950000D03*
X75400000Y-89550000D03*
X75400000Y-90950000D03*
X93650000Y-89550000D03*
X93650000Y-90950000D03*
X94450000Y-89550000D03*
X94450000Y-90950000D03*
X112700000Y-89550000D03*
X112700000Y-90950000D03*
X113500000Y-89550000D03*
X113500000Y-90950000D03*
X131750000Y-89550000D03*
X131750000Y-90950000D03*
X132550000Y-89550000D03*
X132550000Y-90950000D03*
X160327500Y-89550000D03*
X160327500Y-90950000D03*
X161127500Y-89550000D03*
X161127500Y-90950000D03*
X179377500Y-89550000D03*
X179377500Y-90950000D03*
X180177500Y-89550000D03*
X180177500Y-90950000D03*
X198427500Y-89550000D03*
X198427500Y-90950000D03*
X199227500Y-89550000D03*
X199227500Y-90950000D03*
X217477500Y-89550000D03*
X217477500Y-90950000D03*
X218277500Y-89550000D03*
X218277500Y-90950000D03*
X246055000Y-89550000D03*
X246055000Y-90950000D03*
X246855000Y-89550000D03*
X246855000Y-90950000D03*
X265105000Y-89550000D03*
X265105000Y-90950000D03*
X265905000Y-89550000D03*
X265905000Y-90950000D03*
X284155000Y-89550000D03*
X284155000Y-90950000D03*
X284955000Y-89550000D03*
X284955000Y-90950000D03*
X303205000Y-89550000D03*
X303205000Y-90950000D03*
X304005000Y-89550000D03*
X304005000Y-90950000D03*
X126995000Y-156220000D03*
X126995000Y-157620000D03*
X127795000Y-156220000D03*
X127795000Y-157620000D03*
X131750000Y-118120000D03*
X131750000Y-119520000D03*
X132550000Y-118120000D03*
X132550000Y-119520000D03*
X277010000Y-194320000D03*
X277010000Y-195720000D03*
X277810000Y-194320000D03*
X277810000Y-195720000D03*
X112700000Y-118120000D03*
X112700000Y-119520000D03*
X113500000Y-118120000D03*
X113500000Y-119520000D03*
X146045000Y-156220000D03*
X146045000Y-157620000D03*
X146845000Y-156220000D03*
X146845000Y-157620000D03*
X165095000Y-156220000D03*
X165095000Y-157620000D03*
X165895000Y-156220000D03*
X165895000Y-157620000D03*
X346050000Y-118120000D03*
X346050000Y-119520000D03*
X346850000Y-118120000D03*
X346850000Y-119520000D03*
X198430000Y-137170000D03*
X198430000Y-138570000D03*
X199230000Y-137170000D03*
X199230000Y-138570000D03*
X327000000Y-118120000D03*
X327000000Y-119520000D03*
X327800000Y-118120000D03*
X327800000Y-119520000D03*
X184145000Y-156220000D03*
X184145000Y-157620000D03*
X184945000Y-156220000D03*
X184945000Y-157620000D03*
X203195000Y-156220000D03*
X203195000Y-157620000D03*
X203995000Y-156220000D03*
X203995000Y-157620000D03*
X222245000Y-156220000D03*
X222245000Y-157620000D03*
X223045000Y-156220000D03*
X223045000Y-157620000D03*
X62700000Y-194320000D03*
X62700000Y-195720000D03*
X63500000Y-194320000D03*
X63500000Y-195720000D03*
X38890000Y-194320000D03*
X38890000Y-195720000D03*
X39690000Y-194320000D03*
X39690000Y-195720000D03*
X327000000Y-194320000D03*
X327000000Y-195720000D03*
X327800000Y-194320000D03*
X327800000Y-195720000D03*
X48410000Y-175270000D03*
X48410000Y-176670000D03*
X49210000Y-175270000D03*
X49210000Y-176670000D03*
X86510000Y-194320000D03*
X86510000Y-195720000D03*
X87310000Y-194320000D03*
X87310000Y-195720000D03*
X193665000Y-175270000D03*
X193665000Y-176670000D03*
X194465000Y-175270000D03*
X194465000Y-176670000D03*
X246050000Y-118120000D03*
X246050000Y-119520000D03*
X246850000Y-118120000D03*
X246850000Y-119520000D03*
X174615000Y-175270000D03*
X174615000Y-176670000D03*
X175415000Y-175270000D03*
X175415000Y-176670000D03*
X207950000Y-118120000D03*
X207950000Y-119520000D03*
X208750000Y-118120000D03*
X208750000Y-119520000D03*
X217480000Y-137170000D03*
X217480000Y-138570000D03*
X218280000Y-137170000D03*
X218280000Y-138570000D03*
X55550000Y-118120000D03*
X55550000Y-119520000D03*
X56350000Y-118120000D03*
X56350000Y-119520000D03*
X236530000Y-137170000D03*
X236530000Y-138570000D03*
X237330000Y-137170000D03*
X237330000Y-138570000D03*
X365100000Y-89550000D03*
X365100000Y-90950000D03*
X365900000Y-89550000D03*
X365900000Y-90950000D03*
X365100000Y-137170000D03*
X365100000Y-138570000D03*
X365900000Y-137170000D03*
X365900000Y-138570000D03*
X365100000Y-118120000D03*
X365100000Y-119520000D03*
X365900000Y-118120000D03*
X365900000Y-119520000D03*
X327000000Y-89550000D03*
X327000000Y-90950000D03*
X327800000Y-89550000D03*
X327800000Y-90950000D03*
X65080000Y-137170000D03*
X65080000Y-138570000D03*
X65880000Y-137170000D03*
X65880000Y-138570000D03*
X122230000Y-137170000D03*
X122230000Y-138570000D03*
X123030000Y-137170000D03*
X123030000Y-138570000D03*
X253200000Y-194320000D03*
X253200000Y-195720000D03*
X254000000Y-194320000D03*
X254000000Y-195720000D03*
X300820000Y-194320000D03*
X300820000Y-195720000D03*
X301620000Y-194320000D03*
X301620000Y-195720000D03*
X286535000Y-175270000D03*
X286535000Y-176670000D03*
X287335000Y-175270000D03*
X287335000Y-176670000D03*
X229390000Y-194320000D03*
X229390000Y-195720000D03*
X230190000Y-194320000D03*
X230190000Y-195720000D03*
X88895000Y-156220000D03*
X88895000Y-157620000D03*
X89695000Y-156220000D03*
X89695000Y-157620000D03*
X346050000Y-89550000D03*
X346050000Y-90950000D03*
X346850000Y-89550000D03*
X346850000Y-90950000D03*
X169850000Y-118120000D03*
X169850000Y-119520000D03*
X170650000Y-118120000D03*
X170650000Y-119520000D03*
X150800000Y-118120000D03*
X150800000Y-119520000D03*
X151600000Y-118120000D03*
X151600000Y-119520000D03*
X157950000Y-194320000D03*
X157950000Y-195720000D03*
X158750000Y-194320000D03*
X158750000Y-195720000D03*
X141280000Y-137170000D03*
X141280000Y-138570000D03*
X142080000Y-137170000D03*
X142080000Y-138570000D03*
X41265000Y-137170000D03*
X41265000Y-138570000D03*
X42065000Y-137170000D03*
X42065000Y-138570000D03*
X93650000Y-118120000D03*
X93650000Y-119520000D03*
X94450000Y-118120000D03*
X94450000Y-119520000D03*
X36500000Y-118120000D03*
X36500000Y-119520000D03*
X37300000Y-118120000D03*
X37300000Y-119520000D03*
X74600000Y-118120000D03*
X74600000Y-119520000D03*
X75400000Y-118120000D03*
X75400000Y-119520000D03*
X179380000Y-137170000D03*
X179380000Y-138570000D03*
X180180000Y-137170000D03*
X180180000Y-138570000D03*
X346050000Y-175230000D03*
X346050000Y-176630000D03*
X346850000Y-175230000D03*
X346850000Y-176630000D03*
X136515000Y-175270000D03*
X136515000Y-176670000D03*
X137315000Y-175270000D03*
X137315000Y-176670000D03*
X84130000Y-137170000D03*
X84130000Y-138570000D03*
X84930000Y-137170000D03*
X84930000Y-138570000D03*
X98415000Y-175270000D03*
X98415000Y-176670000D03*
X99215000Y-175270000D03*
X99215000Y-176670000D03*
X160330000Y-137170000D03*
X160330000Y-138570000D03*
X161130000Y-137170000D03*
X161130000Y-138570000D03*
X79365000Y-175270000D03*
X79365000Y-176670000D03*
X80165000Y-175270000D03*
X80165000Y-176670000D03*
X227000000Y-118120000D03*
X227000000Y-119520000D03*
X227800000Y-118120000D03*
X227800000Y-119520000D03*
X365100000Y-194320000D03*
X365100000Y-195720000D03*
X365900000Y-194320000D03*
X365900000Y-195720000D03*
D16*
X290830000Y-110010000D03*
X290830000Y-110970000D03*
D17*
X373380000Y-112270000D03*
X373380000Y-111250000D03*
D18*
X158062500Y-107420000D03*
X158062500Y-107820000D03*
X158062500Y-108220000D03*
X158062500Y-108620000D03*
X158062500Y-109020000D03*
X158062500Y-109420000D03*
X158062500Y-109820000D03*
X158062500Y-110220000D03*
X158062500Y-110620000D03*
X158062500Y-111020000D03*
D19*
X158700000Y-111657500D03*
X159100000Y-111657500D03*
X159500000Y-111657500D03*
X159900000Y-111657500D03*
X160300000Y-111657500D03*
X160700000Y-111657500D03*
X161100000Y-111657500D03*
X161500000Y-111657500D03*
X161900000Y-111657500D03*
X162300000Y-111657500D03*
D18*
X162937500Y-111020000D03*
X162937500Y-110620000D03*
X162937500Y-110220000D03*
X162937500Y-109820000D03*
X162937500Y-109420000D03*
X162937500Y-109020000D03*
X162937500Y-108620000D03*
X162937500Y-108220000D03*
X162937500Y-107820000D03*
X162937500Y-107420000D03*
D19*
X162300000Y-106782500D03*
X161900000Y-106782500D03*
X161500000Y-106782500D03*
X161100000Y-106782500D03*
X160700000Y-106782500D03*
X160300000Y-106782500D03*
X159900000Y-106782500D03*
X159500000Y-106782500D03*
X159100000Y-106782500D03*
X158700000Y-106782500D03*
D16*
X334010000Y-110010000D03*
X334010000Y-110970000D03*
D20*
X290070000Y-107315000D03*
X289050000Y-107315000D03*
D18*
X363322500Y-107420000D03*
X363322500Y-107820000D03*
X363322500Y-108220000D03*
X363322500Y-108620000D03*
X363322500Y-109020000D03*
X363322500Y-109420000D03*
X363322500Y-109820000D03*
X363322500Y-110220000D03*
X363322500Y-110620000D03*
X363322500Y-111020000D03*
D19*
X363960000Y-111657500D03*
X364360000Y-111657500D03*
X364760000Y-111657500D03*
X365160000Y-111657500D03*
X365560000Y-111657500D03*
X365960000Y-111657500D03*
X366360000Y-111657500D03*
X366760000Y-111657500D03*
X367160000Y-111657500D03*
X367560000Y-111657500D03*
D18*
X368197500Y-111020000D03*
X368197500Y-110620000D03*
X368197500Y-110220000D03*
X368197500Y-109820000D03*
X368197500Y-109420000D03*
X368197500Y-109020000D03*
X368197500Y-108620000D03*
X368197500Y-108220000D03*
X368197500Y-107820000D03*
X368197500Y-107420000D03*
D19*
X367560000Y-106782500D03*
X367160000Y-106782500D03*
X366760000Y-106782500D03*
X366360000Y-106782500D03*
X365960000Y-106782500D03*
X365560000Y-106782500D03*
X365160000Y-106782500D03*
X364760000Y-106782500D03*
X364360000Y-106782500D03*
X363960000Y-106782500D03*
D13*
X190500000Y-195070000D03*
X190500000Y-196090000D03*
D21*
X186800000Y-199500000D03*
X186800000Y-200550000D03*
X187850000Y-199500000D03*
X187850000Y-200550000D03*
D22*
X185387500Y-198775000D03*
X185387500Y-199275000D03*
X185387500Y-199775000D03*
X185387500Y-200275000D03*
X185387500Y-200775000D03*
X185387500Y-201275000D03*
D23*
X186075000Y-201962500D03*
X186575000Y-201962500D03*
X187075000Y-201962500D03*
X187575000Y-201962500D03*
X188075000Y-201962500D03*
X188575000Y-201962500D03*
D22*
X189262500Y-201275000D03*
X189262500Y-200775000D03*
X189262500Y-200275000D03*
X189262500Y-199775000D03*
X189262500Y-199275000D03*
X189262500Y-198775000D03*
D23*
X188575000Y-198087500D03*
X188075000Y-198087500D03*
X187575000Y-198087500D03*
X187075000Y-198087500D03*
X186575000Y-198087500D03*
X186075000Y-198087500D03*
D13*
X185420000Y-195070000D03*
X185420000Y-196090000D03*
D16*
X118110000Y-110010000D03*
X118110000Y-110970000D03*
D18*
X34392500Y-107420000D03*
X34392500Y-107820000D03*
X34392500Y-108220000D03*
X34392500Y-108620000D03*
X34392500Y-109020000D03*
X34392500Y-109420000D03*
X34392500Y-109820000D03*
X34392500Y-110220000D03*
X34392500Y-110620000D03*
X34392500Y-111020000D03*
D19*
X35030000Y-111657500D03*
X35430000Y-111657500D03*
X35830000Y-111657500D03*
X36230000Y-111657500D03*
X36630000Y-111657500D03*
X37030000Y-111657500D03*
X37430000Y-111657500D03*
X37830000Y-111657500D03*
X38230000Y-111657500D03*
X38630000Y-111657500D03*
D18*
X39267500Y-111020000D03*
X39267500Y-110620000D03*
X39267500Y-110220000D03*
X39267500Y-109820000D03*
X39267500Y-109420000D03*
X39267500Y-109020000D03*
X39267500Y-108620000D03*
X39267500Y-108220000D03*
X39267500Y-107820000D03*
X39267500Y-107420000D03*
D19*
X38630000Y-106782500D03*
X38230000Y-106782500D03*
X37830000Y-106782500D03*
X37430000Y-106782500D03*
X37030000Y-106782500D03*
X36630000Y-106782500D03*
X36230000Y-106782500D03*
X35830000Y-106782500D03*
X35430000Y-106782500D03*
X35030000Y-106782500D03*
D24*
X170305000Y-109855000D03*
X171325000Y-109855000D03*
D13*
X373380000Y-106170000D03*
X373380000Y-107190000D03*
D20*
X251970000Y-107315000D03*
X250950000Y-107315000D03*
D16*
X166370000Y-110010000D03*
X166370000Y-110970000D03*
D18*
X325222500Y-107420000D03*
X325222500Y-107820000D03*
X325222500Y-108220000D03*
X325222500Y-108620000D03*
X325222500Y-109020000D03*
X325222500Y-109420000D03*
X325222500Y-109820000D03*
X325222500Y-110220000D03*
X325222500Y-110620000D03*
X325222500Y-111020000D03*
D19*
X325860000Y-111657500D03*
X326260000Y-111657500D03*
X326660000Y-111657500D03*
X327060000Y-111657500D03*
X327460000Y-111657500D03*
X327860000Y-111657500D03*
X328260000Y-111657500D03*
X328660000Y-111657500D03*
X329060000Y-111657500D03*
X329460000Y-111657500D03*
D18*
X330097500Y-111020000D03*
X330097500Y-110620000D03*
X330097500Y-110220000D03*
X330097500Y-109820000D03*
X330097500Y-109420000D03*
X330097500Y-109020000D03*
X330097500Y-108620000D03*
X330097500Y-108220000D03*
X330097500Y-107820000D03*
X330097500Y-107420000D03*
D19*
X329460000Y-106782500D03*
X329060000Y-106782500D03*
X328660000Y-106782500D03*
X328260000Y-106782500D03*
X327860000Y-106782500D03*
X327460000Y-106782500D03*
X327060000Y-106782500D03*
X326660000Y-106782500D03*
X326260000Y-106782500D03*
X325860000Y-106782500D03*
D20*
X340235000Y-108585000D03*
X339215000Y-108585000D03*
D25*
X187825000Y-194966000D03*
X186865000Y-194966000D03*
D16*
X204470000Y-110010000D03*
X204470000Y-110970000D03*
D20*
X204345000Y-107315000D03*
X203325000Y-107315000D03*
D16*
X203200000Y-110010000D03*
X203200000Y-110970000D03*
D20*
X43055000Y-107315000D03*
X42035000Y-107315000D03*
D16*
X81280000Y-110010000D03*
X81280000Y-110970000D03*
X371650000Y-110150000D03*
X371650000Y-111110000D03*
D18*
X196182500Y-107420000D03*
X196182500Y-107820000D03*
X196182500Y-108220000D03*
X196182500Y-108620000D03*
X196182500Y-109020000D03*
X196182500Y-109420000D03*
X196182500Y-109820000D03*
X196182500Y-110220000D03*
X196182500Y-110620000D03*
X196182500Y-111020000D03*
D19*
X196820000Y-111657500D03*
X197220000Y-111657500D03*
X197620000Y-111657500D03*
X198020000Y-111657500D03*
X198420000Y-111657500D03*
X198820000Y-111657500D03*
X199220000Y-111657500D03*
X199620000Y-111657500D03*
X200020000Y-111657500D03*
X200420000Y-111657500D03*
D18*
X201057500Y-111020000D03*
X201057500Y-110620000D03*
X201057500Y-110220000D03*
X201057500Y-109820000D03*
X201057500Y-109420000D03*
X201057500Y-109020000D03*
X201057500Y-108620000D03*
X201057500Y-108220000D03*
X201057500Y-107820000D03*
X201057500Y-107420000D03*
D19*
X200420000Y-106782500D03*
X200020000Y-106782500D03*
X199620000Y-106782500D03*
X199220000Y-106782500D03*
X198820000Y-106782500D03*
X198420000Y-106782500D03*
X198020000Y-106782500D03*
X197620000Y-106782500D03*
X197220000Y-106782500D03*
X196820000Y-106782500D03*
D20*
X333250000Y-107315000D03*
X332230000Y-107315000D03*
X171325000Y-108585000D03*
X170305000Y-108585000D03*
D18*
X110592500Y-107420000D03*
X110592500Y-107820000D03*
X110592500Y-108220000D03*
X110592500Y-108620000D03*
X110592500Y-109020000D03*
X110592500Y-109420000D03*
X110592500Y-109820000D03*
X110592500Y-110220000D03*
X110592500Y-110620000D03*
X110592500Y-111020000D03*
D19*
X111230000Y-111657500D03*
X111630000Y-111657500D03*
X112030000Y-111657500D03*
X112430000Y-111657500D03*
X112830000Y-111657500D03*
X113230000Y-111657500D03*
X113630000Y-111657500D03*
X114030000Y-111657500D03*
X114430000Y-111657500D03*
X114830000Y-111657500D03*
D18*
X115467500Y-111020000D03*
X115467500Y-110620000D03*
X115467500Y-110220000D03*
X115467500Y-109820000D03*
X115467500Y-109420000D03*
X115467500Y-109020000D03*
X115467500Y-108620000D03*
X115467500Y-108220000D03*
X115467500Y-107820000D03*
X115467500Y-107420000D03*
D19*
X114830000Y-106782500D03*
X114430000Y-106782500D03*
X114030000Y-106782500D03*
X113630000Y-106782500D03*
X113230000Y-106782500D03*
X112830000Y-106782500D03*
X112430000Y-106782500D03*
X112030000Y-106782500D03*
X111630000Y-106782500D03*
X111230000Y-106782500D03*
D20*
X81030000Y-106680000D03*
X80010000Y-106680000D03*
D18*
X72492500Y-107420000D03*
X72492500Y-107820000D03*
X72492500Y-108220000D03*
X72492500Y-108620000D03*
X72492500Y-109020000D03*
X72492500Y-109420000D03*
X72492500Y-109820000D03*
X72492500Y-110220000D03*
X72492500Y-110620000D03*
X72492500Y-111020000D03*
D19*
X73130000Y-111657500D03*
X73530000Y-111657500D03*
X73930000Y-111657500D03*
X74330000Y-111657500D03*
X74730000Y-111657500D03*
X75130000Y-111657500D03*
X75530000Y-111657500D03*
X75930000Y-111657500D03*
X76330000Y-111657500D03*
X76730000Y-111657500D03*
D18*
X77367500Y-111020000D03*
X77367500Y-110620000D03*
X77367500Y-110220000D03*
X77367500Y-109820000D03*
X77367500Y-109420000D03*
X77367500Y-109020000D03*
X77367500Y-108620000D03*
X77367500Y-108220000D03*
X77367500Y-107820000D03*
X77367500Y-107420000D03*
D19*
X76730000Y-106782500D03*
X76330000Y-106782500D03*
X75930000Y-106782500D03*
X75530000Y-106782500D03*
X75130000Y-106782500D03*
X74730000Y-106782500D03*
X74330000Y-106782500D03*
X73930000Y-106782500D03*
X73530000Y-106782500D03*
X73130000Y-106782500D03*
D20*
X127149000Y-203856000D03*
X126129000Y-203856000D03*
D16*
X370380000Y-110150000D03*
X370380000Y-111110000D03*
D20*
X119255000Y-107315000D03*
X118235000Y-107315000D03*
D18*
X243942500Y-107420000D03*
X243942500Y-107820000D03*
X243942500Y-108220000D03*
X243942500Y-108620000D03*
X243942500Y-109020000D03*
X243942500Y-109420000D03*
X243942500Y-109820000D03*
X243942500Y-110220000D03*
X243942500Y-110620000D03*
X243942500Y-111020000D03*
D19*
X244580000Y-111657500D03*
X244980000Y-111657500D03*
X245380000Y-111657500D03*
X245780000Y-111657500D03*
X246180000Y-111657500D03*
X246580000Y-111657500D03*
X246980000Y-111657500D03*
X247380000Y-111657500D03*
X247780000Y-111657500D03*
X248180000Y-111657500D03*
D18*
X248817500Y-111020000D03*
X248817500Y-110620000D03*
X248817500Y-110220000D03*
X248817500Y-109820000D03*
X248817500Y-109420000D03*
X248817500Y-109020000D03*
X248817500Y-108620000D03*
X248817500Y-108220000D03*
X248817500Y-107820000D03*
X248817500Y-107420000D03*
D19*
X248180000Y-106782500D03*
X247780000Y-106782500D03*
X247380000Y-106782500D03*
X246980000Y-106782500D03*
X246580000Y-106782500D03*
X246180000Y-106782500D03*
X245780000Y-106782500D03*
X245380000Y-106782500D03*
X244980000Y-106782500D03*
X244580000Y-106782500D03*
D16*
X119380000Y-110010000D03*
X119380000Y-110970000D03*
X252730000Y-110010000D03*
X252730000Y-110970000D03*
D20*
X371350000Y-107315000D03*
X370330000Y-107315000D03*
X166245000Y-107315000D03*
X165225000Y-107315000D03*
D16*
X43180000Y-110010000D03*
X43180000Y-110970000D03*
X42057000Y-110031000D03*
X42057000Y-110991000D03*
D17*
X189230000Y-196090000D03*
X189230000Y-195070000D03*
D16*
X289560000Y-110010000D03*
X289560000Y-110970000D03*
D18*
X282042500Y-107420000D03*
X282042500Y-107820000D03*
X282042500Y-108220000D03*
X282042500Y-108620000D03*
X282042500Y-109020000D03*
X282042500Y-109420000D03*
X282042500Y-109820000D03*
X282042500Y-110220000D03*
X282042500Y-110620000D03*
X282042500Y-111020000D03*
D19*
X282680000Y-111657500D03*
X283080000Y-111657500D03*
X283480000Y-111657500D03*
X283880000Y-111657500D03*
X284280000Y-111657500D03*
X284680000Y-111657500D03*
X285080000Y-111657500D03*
X285480000Y-111657500D03*
X285880000Y-111657500D03*
X286280000Y-111657500D03*
D18*
X286917500Y-111020000D03*
X286917500Y-110620000D03*
X286917500Y-110220000D03*
X286917500Y-109820000D03*
X286917500Y-109420000D03*
X286917500Y-109020000D03*
X286917500Y-108620000D03*
X286917500Y-108220000D03*
X286917500Y-107820000D03*
X286917500Y-107420000D03*
D19*
X286280000Y-106782500D03*
X285880000Y-106782500D03*
X285480000Y-106782500D03*
X285080000Y-106782500D03*
X284680000Y-106782500D03*
X284280000Y-106782500D03*
X283880000Y-106782500D03*
X283480000Y-106782500D03*
X283080000Y-106782500D03*
X282680000Y-106782500D03*
D26*
X126159000Y-205126000D03*
X127119000Y-205126000D03*
D20*
X340235000Y-109855000D03*
X339215000Y-109855000D03*
M02*
