M48
; DRILL file {KiCad (6.0.5)} date Wed Oct 12 22:08:03 2022
; FORMAT={-:-/ absolute / metric / decimal}
; #@! TF.CreationDate,2022-10-12T22:08:03+02:00
; #@! TF.GenerationSoftware,Kicad,Pcbnew,(6.0.5)
; #@! TF.FileFunction,NonPlated,1,2,NPTH
FMAT,2
METRIC
; #@! TA.AperFunction,NonPlated,NPTH,ComponentDrill
T1C3.000
; #@! TA.AperFunction,NonPlated,NPTH,ComponentDrill
T2C4.000
%
G90
G05
T1
X34.355Y-100.415
X34.355Y-128.985
X36.745Y-205.185
X39.12Y-148.035
X40.705Y-97.875
X40.705Y-126.445
X41.505Y-167.085
X43.095Y-202.645
X45.47Y-145.495
X46.265Y-186.135
X47.855Y-164.545
X52.615Y-183.595
X53.405Y-128.985
X59.755Y-126.445
X60.555Y-205.185
X62.935Y-148.035
X66.905Y-202.645
X67.7Y-167.085
X69.285Y-145.495
X72.455Y-100.415
X72.455Y-128.985
X74.05Y-164.545
X77.22Y-186.135
X78.805Y-97.875
X78.805Y-126.445
X81.985Y-148.035
X83.57Y-183.595
X84.365Y-205.185
X86.75Y-167.085
X88.335Y-145.495
X90.715Y-202.645
X91.505Y-100.415
X91.505Y-128.985
X93.1Y-164.545
X96.27Y-186.135
X97.855Y-97.875
X97.855Y-126.445
X101.035Y-148.035
X102.62Y-183.595
X105.8Y-167.085
X107.385Y-145.495
X110.555Y-100.415
X110.555Y-128.985
X112.15Y-164.545
X115.32Y-186.135
X116.905Y-97.875
X116.905Y-126.445
X120.085Y-148.035
X121.67Y-183.595
X124.85Y-167.085
X126.435Y-145.495
X129.605Y-100.415
X129.605Y-128.985
X131.2Y-164.545
X134.37Y-186.135
X135.955Y-97.875
X135.955Y-126.445
X139.135Y-148.035
X140.72Y-183.595
X143.9Y-167.085
X145.485Y-145.495
X148.655Y-128.985
X150.25Y-164.545
X153.42Y-186.135
X155.005Y-126.445
X155.805Y-205.185
X158.183Y-100.415
X158.185Y-148.035
X159.77Y-183.595
X162.155Y-202.645
X162.95Y-167.085
X164.532Y-97.875
X164.535Y-145.495
X167.705Y-128.985
X169.3Y-164.545
X172.47Y-186.135
X174.055Y-126.445
X177.232Y-100.415
X177.235Y-148.035
X178.82Y-183.595
X182.0Y-167.085
X183.582Y-97.875
X183.585Y-145.495
X186.755Y-128.985
X188.35Y-164.545
X191.52Y-186.135
X193.105Y-126.445
X196.282Y-100.415
X196.285Y-148.035
X197.87Y-183.595
X201.05Y-167.085
X202.632Y-97.875
X202.635Y-145.495
X205.805Y-128.985
X207.4Y-164.545
X210.57Y-186.135
X212.155Y-126.445
X215.332Y-100.415
X215.335Y-148.035
X216.92Y-183.595
X220.1Y-167.085
X221.682Y-97.875
X221.685Y-145.495
X224.855Y-128.985
X226.45Y-164.545
X227.245Y-205.185
X229.62Y-186.135
X231.205Y-126.445
X233.595Y-202.645
X234.385Y-148.035
X235.97Y-183.595
X239.15Y-167.085
X240.735Y-145.495
X243.905Y-128.985
X243.91Y-100.415
X245.5Y-164.545
X248.67Y-186.135
X250.255Y-126.445
X250.26Y-97.875
X251.055Y-205.185
X253.435Y-148.035
X255.02Y-183.595
X257.405Y-202.645
X258.2Y-167.085
X259.785Y-145.495
X262.955Y-128.985
X262.96Y-100.415
X264.55Y-164.545
X269.305Y-126.445
X269.31Y-97.875
X272.485Y-148.035
X274.865Y-205.185
X278.835Y-145.495
X281.215Y-202.645
X282.01Y-100.415
X284.39Y-186.135
X288.36Y-97.875
X289.155Y-167.085
X290.74Y-183.595
X291.535Y-128.985
X295.505Y-164.545
X296.3Y-148.035
X297.885Y-126.445
X298.675Y-205.185
X301.06Y-100.415
X302.65Y-145.495
X305.025Y-202.645
X307.41Y-97.875
X324.855Y-100.415
X324.855Y-128.985
X324.855Y-148.035
X324.855Y-205.185
X331.205Y-97.875
X331.205Y-126.445
X331.205Y-145.495
X331.205Y-202.645
X343.905Y-100.415
X343.905Y-128.985
X343.905Y-148.035
X343.905Y-186.095
X343.905Y-205.185
X350.255Y-97.875
X350.255Y-126.445
X350.255Y-145.495
X350.255Y-183.555
X350.255Y-202.645
X362.955Y-100.415
X362.955Y-128.985
X362.955Y-148.035
X362.955Y-205.185
X369.305Y-97.875
X369.305Y-126.445
X369.305Y-145.495
X369.305Y-202.645
T2
X36.895Y-95.335
X36.895Y-123.905
X39.285Y-200.105
X41.66Y-142.955
X44.045Y-162.005
X48.805Y-181.055
X55.945Y-123.905
X63.095Y-200.105
X65.475Y-142.955
X70.24Y-162.005
X74.995Y-95.335
X74.995Y-123.905
X79.76Y-181.055
X84.525Y-142.955
X86.905Y-200.105
X89.29Y-162.005
X94.045Y-95.335
X94.045Y-123.905
X98.81Y-181.055
X103.575Y-142.955
X108.34Y-162.005
X113.095Y-95.335
X113.095Y-123.905
X117.86Y-181.055
X122.625Y-142.955
X127.39Y-162.005
X132.145Y-95.335
X132.145Y-123.905
X136.91Y-181.055
X141.675Y-142.955
X146.44Y-162.005
X151.195Y-123.905
X155.96Y-181.055
X158.345Y-200.105
X160.722Y-95.335
X160.725Y-142.955
X165.49Y-162.005
X170.245Y-123.905
X175.01Y-181.055
X179.772Y-95.335
X179.775Y-142.955
X184.54Y-162.005
X189.295Y-123.905
X194.06Y-181.055
X198.822Y-95.335
X198.825Y-142.955
X203.59Y-162.005
X208.345Y-123.905
X213.11Y-181.055
X217.873Y-95.335
X217.875Y-142.955
X222.64Y-162.005
X227.395Y-123.905
X229.785Y-200.105
X232.16Y-181.055
X236.925Y-142.955
X241.69Y-162.005
X246.445Y-123.905
X246.45Y-95.335
X251.21Y-181.055
X253.595Y-200.105
X255.975Y-142.955
X260.74Y-162.005
X265.495Y-123.905
X265.5Y-95.335
X275.025Y-142.955
X277.405Y-200.105
X284.55Y-95.335
X286.93Y-181.055
X291.695Y-162.005
X294.075Y-123.905
X298.84Y-142.955
X301.215Y-200.105
X303.6Y-95.335
X327.395Y-95.335
X327.395Y-123.905
X327.395Y-142.955
X327.395Y-200.105
X346.445Y-95.335
X346.445Y-123.905
X346.445Y-142.955
X346.445Y-181.015
X346.445Y-200.105
X365.495Y-95.335
X365.495Y-123.905
X365.495Y-142.955
X365.495Y-200.105
T0
M30
