M48
; DRILL file {KiCad (6.0.5)} date Wed Oct 12 22:08:03 2022
; FORMAT={-:-/ absolute / metric / decimal}
; #@! TF.CreationDate,2022-10-12T22:08:03+02:00
; #@! TF.GenerationSoftware,Kicad,Pcbnew,(6.0.5)
; #@! TF.FileFunction,Plated,1,2,PTH
FMAT,2
METRIC
; #@! TA.AperFunction,Plated,PTH,ViaDrill
T1C0.300
; #@! TA.AperFunction,Plated,PTH,ComponentDrill
T2C0.500
; #@! TA.AperFunction,Plated,PTH,ComponentDrill
T3C1.000
; #@! TA.AperFunction,Plated,PTH,ViaDrill
T4C3.100
%
G90
G05
T1
X29.845Y-177.165
X29.845Y-193.675
X30.226Y-122.809
X30.48Y-107.315
X30.48Y-108.585
X30.48Y-157.48
X30.48Y-174.625
X30.48Y-195.58
X30.607Y-124.46
X30.861Y-96.998
X30.988Y-94.077
X31.115Y-118.745
X31.115Y-154.94
X31.75Y-111.76
X32.385Y-157.48
X32.385Y-174.625
X33.02Y-154.94
X33.401Y-201.549
X33.431Y-86.965
X33.655Y-92.075
X33.655Y-117.475
X33.655Y-118.745
X34.925Y-117.475
X34.925Y-118.745
X34.925Y-120.015
X35.369Y-141.668
X35.687Y-144.399
X36.195Y-134.62
X36.195Y-194.31
X36.195Y-196.215
X36.83Y-92.075
X36.83Y-104.775
X36.83Y-113.665
X37.465Y-104.14
X38.1Y-103.505
X38.1Y-160.782
X38.1Y-163.322
X38.735Y-102.87
X38.735Y-118.11
X38.735Y-153.035
X39.37Y-102.235
X40.005Y-101.6
X40.005Y-176.53
X40.36Y-120.295
X40.64Y-110.236
X41.275Y-101.6
X41.275Y-107.95
X41.91Y-100.33
X41.91Y-194.31
X42.545Y-182.372
X42.608Y-179.768
X43.18Y-170.815
X43.815Y-137.16
X45.72Y-102.235
X45.72Y-109.855
X45.948Y-156.438
X46.355Y-100.33
X46.51Y-103.518
X46.51Y-110.97
X46.99Y-114.3
X48.26Y-98.425
X48.26Y-107.95
X48.514Y-108.966
X48.895Y-99.695
X49.847Y-116.141
X49.974Y-122.872
X50.038Y-125.349
X50.941Y-175.26
X55.392Y-210.46
X56.916Y-109.114
X57.146Y-191.774
X57.15Y-199.009
X57.277Y-201.422
X57.775Y-118.12
X57.785Y-109.855
X57.785Y-133.35
X59.436Y-141.859
X59.436Y-144.399
X59.69Y-134.62
X60.164Y-114.175
X63.5Y-132.08
X63.9Y-152.635
X64.072Y-163.131
X64.135Y-90.805
X64.135Y-105.41
X64.135Y-121.92
X64.135Y-160.909
X64.29Y-110.97
X64.77Y-91.44
X64.77Y-104.775
X64.77Y-211.455
X65.405Y-89.535
X65.405Y-104.14
X65.405Y-121.285
X66.04Y-108.585
X66.04Y-133.35
X66.675Y-112.395
X67.31Y-113.03
X67.31Y-193.04
X67.945Y-113.665
X67.945Y-137.795
X68.516Y-122.745
X68.58Y-102.87
X68.58Y-116.078
X68.58Y-125.095
X68.58Y-195.58
X68.897Y-96.426
X68.961Y-94.204
X69.215Y-86.965
X69.215Y-103.505
X69.85Y-114.3
X69.85Y-194.945
X69.872Y-104.125
X70.485Y-114.935
X71.12Y-111.125
X71.12Y-118.11
X71.374Y-115.316
X71.755Y-106.68
X72.39Y-120.65
X72.39Y-132.08
X73.025Y-119.38
X73.025Y-156.845
X73.025Y-170.815
X73.533Y-179.959
X73.66Y-194.31
X73.787Y-182.372
X74.93Y-113.665
X74.95Y-209.444
X76.835Y-89.535
X77.47Y-118.11
X78.486Y-141.859
X78.676Y-144.208
X78.74Y-102.235
X78.74Y-134.62
X78.778Y-106.649
X78.966Y-110.01
X79.375Y-107.95
X80.01Y-112.395
X80.01Y-121.92
X81.026Y-201.295
X81.153Y-199.009
X81.268Y-175.883
X81.276Y-191.774
X82.95Y-152.635
X83.185Y-160.909
X83.312Y-163.195
X83.82Y-106.045
X84.455Y-105.41
X85.09Y-97.155
X85.09Y-104.775
X86.36Y-99.06
X86.36Y-107.95
X86.36Y-137.795
X86.518Y-108.966
X86.995Y-174.625
X87.82Y-125.031
X87.884Y-122.682
X87.915Y-116.109
X87.947Y-94.267
X88.138Y-96.49
X88.265Y-86.965
X88.9Y-114.935
X88.9Y-177.165
X89.535Y-114.3
X89.535Y-176.289
X90.17Y-113.665
X91.228Y-136.737
X91.44Y-156.21
X92.075Y-170.815
X92.583Y-180.086
X92.71Y-139.7
X92.837Y-182.372
X93.205Y-138.57
X95.802Y-200.832
X96.031Y-118.256
X96.52Y-89.535
X97.137Y-155.593
X97.155Y-194.31
X97.536Y-141.732
X97.79Y-134.62
X97.79Y-144.018
X97.79Y-158.75
X99.06Y-156.845
X100.965Y-175.895
X102.0Y-152.635
X102.362Y-160.909
X102.362Y-163.195
X102.87Y-91.44
X102.87Y-104.775
X103.505Y-92.075
X103.505Y-104.14
X104.14Y-89.535
X104.14Y-103.505
X104.14Y-116.84
X104.295Y-110.97
X105.41Y-108.585
X105.41Y-121.285
X106.045Y-137.16
X106.426Y-116.078
X106.489Y-122.999
X106.655Y-102.852
X106.997Y-94.394
X107.061Y-125.095
X107.188Y-96.363
X107.315Y-86.965
X107.315Y-103.505
X107.95Y-104.14
X107.95Y-113.665
X108.585Y-114.935
X109.22Y-110.49
X109.22Y-118.11
X109.855Y-120.015
X110.481Y-156.201
X110.49Y-106.68
X110.49Y-114.935
X111.125Y-119.38
X111.125Y-170.815
X111.379Y-180.086
X111.76Y-182.245
X113.03Y-113.03
X113.558Y-201.062
X114.574Y-199.792
X115.57Y-89.535
X116.205Y-118.11
X116.522Y-142.049
X116.586Y-144.272
X116.84Y-102.235
X116.84Y-106.68
X116.84Y-116.84
X116.84Y-134.62
X116.86Y-206.904
X116.9Y-191.116
X116.995Y-112.113
X117.109Y-110.983
X117.622Y-202.332
X118.638Y-199.03
X119.38Y-106.172
X119.654Y-198.268
X120.142Y-109.982
X120.416Y-188.616
X120.416Y-197.506
X120.65Y-175.26
X121.05Y-152.635
X121.094Y-161.1
X121.285Y-107.95
X121.285Y-114.935
X121.432Y-189.378
X121.539Y-163.195
X121.539Y-108.966
X122.555Y-97.155
X122.555Y-113.665
X122.555Y-114.935
X123.19Y-99.06
X123.19Y-105.41
X123.812Y-104.79
X124.46Y-104.14
X125.095Y-175.26
X125.496Y-206.142
X125.73Y-125.095
X125.73Y-137.16
X126.005Y-116.099
X126.111Y-122.936
X126.238Y-94.204
X126.258Y-210.206
X126.301Y-96.426
X126.365Y-86.965
X126.365Y-176.53
X127.274Y-209.952
X128.27Y-176.53
X128.29Y-205.634
X130.175Y-170.815
X130.556Y-180.086
X130.81Y-156.21
X130.937Y-182.245
X131.227Y-169.624
X132.354Y-170.074
X133.624Y-170.074
X133.967Y-136.543
X134.131Y-118.256
X134.62Y-89.535
X134.62Y-139.7
X135.237Y-155.593
X135.656Y-192.172
X135.89Y-134.62
X135.89Y-141.859
X135.89Y-144.145
X136.525Y-158.75
X136.926Y-192.68
X137.16Y-137.795
X137.434Y-194.712
X137.795Y-156.845
X138.196Y-192.934
X138.704Y-194.966
X139.72Y-192.68
X140.1Y-152.635
X140.335Y-175.26
X140.589Y-160.909
X140.716Y-163.195
X140.97Y-108.585
X140.97Y-120.65
X142.006Y-186.584
X142.24Y-113.03
X142.24Y-114.3
X143.51Y-114.935
X144.78Y-137.16
X145.161Y-123.063
X145.288Y-116.078
X145.288Y-125.222
X145.562Y-191.918
X146.685Y-114.935
X147.094Y-205.656
X147.848Y-204.618
X148.59Y-114.935
X149.225Y-90.805
X149.225Y-118.11
X149.225Y-156.21
X149.225Y-170.815
X149.233Y-106.029
X149.606Y-179.832
X149.86Y-105.41
X149.86Y-182.245
X149.863Y-91.455
X150.495Y-114.935
X150.517Y-104.756
X150.52Y-89.528
X151.765Y-102.87
X151.765Y-120.65
X152.146Y-198.755
X152.4Y-103.505
X152.4Y-201.422
X152.419Y-191.116
X152.895Y-119.52
X153.035Y-104.14
X153.67Y-116.84
X153.67Y-118.11
X153.825Y-110.97
X154.876Y-96.68
X154.94Y-86.965
X154.94Y-94.077
X154.94Y-134.62
X154.94Y-141.732
X154.94Y-144.145
X156.845Y-110.49
X157.48Y-106.68
X158.115Y-175.26
X159.15Y-152.635
X159.385Y-161.036
X159.385Y-163.195
X160.02Y-114.3
X160.548Y-189.124
X162.56Y-193.04
X163.195Y-89.535
X163.83Y-102.235
X163.83Y-114.3
X163.83Y-137.16
X163.913Y-106.637
X164.02Y-123.126
X164.15Y-110.052
X164.211Y-116.205
X164.211Y-124.968
X164.465Y-107.95
X164.465Y-195.621
X165.1Y-173.99
X165.735Y-113.665
X165.735Y-114.935
X165.735Y-176.53
X166.37Y-113.03
X166.37Y-195.58
X167.005Y-176.53
X167.152Y-123.084
X167.64Y-107.95
X167.64Y-112.395
X167.64Y-116.84
X167.64Y-156.21
X167.64Y-194.31
X167.914Y-197.76
X168.275Y-170.815
X168.529Y-108.966
X168.91Y-179.959
X169.037Y-182.372
X170.18Y-97.155
X170.962Y-126.894
X171.45Y-99.06
X172.548Y-117.938
X172.558Y-120.812
X172.994Y-207.666
X173.355Y-155.575
X173.482Y-94.204
X173.672Y-96.299
X173.756Y-208.174
X173.863Y-141.732
X173.99Y-86.965
X173.99Y-134.62
X173.99Y-144.018
X174.518Y-208.682
X174.625Y-158.75
X175.28Y-209.19
X176.39Y-157.62
X177.153Y-175.248
X178.2Y-152.635
X178.371Y-160.972
X178.689Y-163.195
X179.353Y-204.34
X179.598Y-188.108
X179.705Y-106.045
X180.106Y-188.87
X180.36Y-204.11
X180.381Y-211.455
X180.44Y-106.595
X180.868Y-189.632
X181.376Y-203.094
X181.376Y-209.952
X181.61Y-106.68
X181.61Y-112.395
X181.63Y-190.394
X182.245Y-89.535
X182.245Y-137.16
X182.245Y-194.31
X182.308Y-201.232
X182.866Y-201.913
X183.154Y-210.206
X183.261Y-125.222
X183.515Y-116.205
X183.515Y-122.682
X184.15Y-108.585
X184.15Y-121.285
X184.15Y-196.85
X184.15Y-203.2
X184.678Y-209.952
X184.785Y-114.3
X185.42Y-115.57
X186.055Y-136.525
X186.436Y-197.104
X186.69Y-115.57
X186.69Y-118.11
X186.69Y-156.21
X187.325Y-170.815
X187.379Y-119.275
X187.706Y-179.578
X187.757Y-196.417
X187.974Y-139.621
X188.087Y-182.626
X188.595Y-138.43
X189.211Y-106.024
X189.23Y-90.17
X189.865Y-90.805
X189.865Y-105.41
X190.47Y-115.575
X190.5Y-104.775
X190.5Y-203.876
X190.594Y-89.539
X190.655Y-110.97
X190.995Y-119.52
X191.135Y-197.485
X191.135Y-204.511
X191.77Y-118.11
X191.79Y-211.73
X192.044Y-194.966
X192.108Y-168.486
X192.405Y-102.87
X192.659Y-94.204
X192.849Y-96.426
X192.913Y-141.986
X193.04Y-86.965
X193.04Y-103.505
X193.04Y-134.62
X193.04Y-144.145
X193.675Y-104.14
X194.945Y-110.49
X196.215Y-106.68
X196.215Y-175.237
X197.25Y-152.635
X197.358Y-160.909
X197.612Y-163.322
X198.12Y-113.665
X200.66Y-174.625
X201.295Y-89.535
X201.295Y-115.57
X201.295Y-137.16
X201.93Y-102.235
X201.93Y-106.68
X201.93Y-114.935
X201.93Y-176.53
X202.184Y-111.252
X202.184Y-123.063
X202.2Y-110.22
X202.311Y-116.205
X202.374Y-125.031
X202.565Y-107.95
X203.2Y-194.31
X203.835Y-113.665
X203.835Y-114.935
X204.47Y-176.53
X205.74Y-156.21
X206.375Y-170.815
X206.629Y-179.705
X206.883Y-182.245
X207.645Y-107.95
X208.28Y-97.155
X208.28Y-98.425
X208.915Y-108.585
X210.331Y-118.256
X211.437Y-155.593
X211.836Y-94.204
X211.856Y-168.042
X211.899Y-144.335
X211.963Y-96.617
X211.963Y-141.732
X212.09Y-86.965
X212.09Y-134.62
X212.11Y-132.482
X212.725Y-158.75
X213.424Y-132.46
X213.888Y-133.498
X214.49Y-157.62
X214.904Y-133.752
X215.265Y-175.26
X216.408Y-153.797
X216.408Y-160.909
X216.535Y-163.068
X217.17Y-103.505
X217.17Y-104.775
X217.178Y-106.001
X219.662Y-89.52
X219.71Y-107.95
X219.71Y-137.16
X220.98Y-135.89
X221.361Y-116.205
X221.361Y-122.936
X221.488Y-125.476
X221.615Y-196.85
X223.52Y-114.3
X223.52Y-115.57
X223.52Y-198.628
X223.52Y-201.549
X223.539Y-191.116
X224.79Y-115.57
X224.79Y-139.7
X224.79Y-156.21
X225.425Y-170.815
X225.565Y-138.57
X226.06Y-182.499
X226.314Y-180.086
X226.596Y-110.97
X226.695Y-116.967
X230.335Y-168.105
X230.759Y-144.272
X230.906Y-123.338
X231.013Y-141.859
X231.14Y-134.62
X231.414Y-187.6
X231.922Y-188.616
X232.41Y-198.12
X232.43Y-189.378
X232.957Y-124.292
X233.192Y-190.14
X234.315Y-175.26
X234.97Y-108.86
X235.458Y-153.797
X235.458Y-160.909
X235.585Y-106.045
X235.585Y-163.068
X235.667Y-90.173
X235.962Y-108.122
X236.365Y-90.95
X236.778Y-208.163
X236.855Y-89.535
X236.855Y-105.41
X236.855Y-111.76
X236.855Y-118.11
X236.855Y-132.08
X237.002Y-130.958
X237.49Y-104.521
X237.637Y-133.879
X238.107Y-193.693
X238.76Y-196.85
X239.395Y-137.16
X240.03Y-132.08
X240.411Y-123.063
X240.411Y-125.095
X240.474Y-96.426
X240.525Y-195.72
X240.538Y-94.204
X240.538Y-116.205
X241.046Y-87.884
X241.3Y-104.648
X241.3Y-118.745
X241.935Y-194.31
X242.062Y-104.14
X242.57Y-114.3
X242.824Y-108.204
X243.078Y-103.886
X243.205Y-114.935
X243.84Y-115.57
X243.84Y-156.21
X243.87Y-106.731
X244.475Y-170.815
X244.602Y-182.245
X244.729Y-179.832
X244.924Y-119.529
X245.237Y-117.348
X246.38Y-113.665
X247.587Y-201.867
X247.669Y-191.116
X248.031Y-199.009
X248.875Y-89.55
X249.936Y-110.236
X249.936Y-117.348
X250.063Y-141.732
X250.063Y-144.145
X250.19Y-106.68
X250.19Y-134.62
X250.255Y-102.221
X250.444Y-111.252
X250.792Y-118.077
X252.984Y-106.68
X253.365Y-172.085
X253.365Y-175.26
X254.508Y-160.782
X254.508Y-163.322
X254.635Y-107.95
X255.27Y-109.22
X255.27Y-173.99
X255.905Y-97.155
X255.905Y-115.57
X256.54Y-173.99
X256.653Y-114.921
X257.048Y-113.792
X257.175Y-99.06
X257.81Y-106.68
X257.81Y-153.67
X258.445Y-106.045
X258.445Y-137.16
X259.08Y-105.41
X259.207Y-94.204
X259.397Y-123.126
X259.461Y-87.884
X259.461Y-116.205
X259.588Y-96.49
X259.588Y-124.968
X259.862Y-208.428
X261.62Y-113.03
X262.255Y-114.3
X262.89Y-114.935
X262.89Y-156.21
X263.398Y-136.144
X263.525Y-194.31
X265.43Y-136.398
X265.43Y-138.176
X266.065Y-120.65
X266.82Y-117.355
X267.335Y-193.675
X267.399Y-119.951
X267.925Y-89.55
X268.605Y-154.305
X268.605Y-157.48
X268.605Y-196.215
X268.859Y-141.986
X269.113Y-144.018
X269.24Y-104.14
X269.24Y-134.62
X269.259Y-191.116
X269.875Y-104.775
X269.875Y-155.575
X269.875Y-195.58
X270.51Y-105.41
X271.462Y-118.427
X271.462Y-201.739
X271.653Y-199.009
X272.58Y-121.45
X274.32Y-90.17
X274.32Y-106.045
X275.445Y-90.95
X275.445Y-105.555
X276.21Y-89.55
X276.225Y-104.775
X276.86Y-111.76
X276.86Y-137.16
X277.495Y-123.825
X278.13Y-108.585
X278.285Y-110.97
X278.765Y-94.204
X278.765Y-96.363
X278.765Y-121.92
X279.146Y-87.884
X280.035Y-194.31
X280.606Y-182.054
X280.797Y-179.705
X281.94Y-106.68
X282.571Y-172.724
X283.21Y-114.3
X283.484Y-206.904
X284.48Y-113.665
X285.115Y-114.3
X285.115Y-153.67
X285.115Y-160.909
X285.716Y-174.024
X285.75Y-115.57
X285.75Y-163.068
X286.385Y-113.665
X286.975Y-89.55
X287.655Y-113.665
X288.29Y-111.125
X288.29Y-124.968
X288.29Y-177.8
X288.299Y-102.226
X288.317Y-106.614
X288.77Y-110.01
X288.925Y-114.3
X288.925Y-116.205
X288.925Y-123.19
X289.56Y-176.53
X290.195Y-121.92
X290.195Y-175.26
X290.597Y-106.654
X291.465Y-121.285
X292.735Y-108.585
X292.735Y-134.62
X292.862Y-141.986
X292.862Y-144.018
X293.37Y-154.305
X294.005Y-97.155
X294.005Y-109.22
X294.64Y-99.06
X294.64Y-158.75
X294.64Y-190.5
X295.148Y-201.676
X295.402Y-199.009
X296.545Y-157.48
X297.561Y-96.49
X297.688Y-94.204
X297.815Y-156.21
X298.196Y-87.884
X298.45Y-118.11
X300.99Y-137.16
X303.53Y-194.31
X305.328Y-208.174
X306.07Y-89.505
X306.705Y-136.525
X307.34Y-139.7
X308.61Y-106.68
X308.61Y-138.43
X309.245Y-106.045
X309.88Y-105.41
X314.98Y-210.714
X315.595Y-90.17
X315.595Y-106.045
X315.595Y-107.315
X316.23Y-109.22
X316.23Y-121.285
X316.865Y-90.805
X316.865Y-105.41
X317.5Y-89.535
X317.5Y-104.775
X317.5Y-116.84
X317.655Y-110.97
X318.77Y-114.3
X319.405Y-114.935
X320.04Y-115.57
X320.867Y-189.673
X321.183Y-141.986
X321.31Y-86.965
X321.31Y-102.87
X321.31Y-116.205
X321.31Y-122.936
X321.31Y-134.62
X321.31Y-201.676
X321.437Y-94.204
X321.437Y-144.018
X321.5Y-96.553
X321.564Y-125.222
X321.564Y-198.882
X321.945Y-103.505
X322.58Y-104.14
X322.58Y-118.11
X322.58Y-193.675
X323.215Y-119.38
X323.215Y-196.215
X323.85Y-110.49
X324.485Y-119.38
X324.485Y-195.58
X325.12Y-106.68
X328.295Y-114.3
X329.387Y-194.005
X329.438Y-118.11
X329.438Y-136.906
X330.2Y-89.535
X331.425Y-110.015
X331.47Y-106.68
X331.47Y-116.84
X331.474Y-102.231
X331.625Y-110.97
X333.756Y-106.172
X333.776Y-208.936
X335.915Y-108.585
X336.55Y-97.155
X337.185Y-99.06
X337.185Y-109.22
X339.917Y-189.673
X340.169Y-174.561
X340.169Y-179.768
X340.233Y-141.605
X340.233Y-143.891
X340.233Y-182.245
X340.36Y-86.965
X340.36Y-116.205
X340.36Y-134.62
X340.487Y-122.682
X340.487Y-201.676
X340.55Y-96.553
X340.614Y-94.204
X340.741Y-124.968
X340.868Y-199.136
X340.995Y-115.57
X341.627Y-114.912
X342.265Y-114.3
X342.9Y-174.625
X342.9Y-176.53
X344.17Y-176.53
X348.437Y-175.311
X348.437Y-194.259
X348.488Y-117.856
X348.488Y-137.16
X349.256Y-89.521
X352.318Y-209.19
X352.425Y-106.68
X353.695Y-106.68
X354.33Y-135.89
X354.33Y-139.7
X354.965Y-106.68
X354.965Y-138.43
X355.6Y-90.17
X355.6Y-106.045
X356.87Y-90.805
X356.87Y-105.41
X357.505Y-89.535
X357.505Y-104.775
X358.676Y-110.97
X359.029Y-120.523
X359.156Y-94.331
X359.283Y-143.891
X359.283Y-201.676
X359.41Y-86.965
X359.41Y-134.62
X359.41Y-189.865
X359.537Y-96.617
X359.601Y-141.796
X359.664Y-125.222
X359.664Y-199.136
X359.727Y-122.618
X360.045Y-102.87
X360.045Y-116.205
X360.68Y-103.505
X360.68Y-115.57
X361.315Y-104.14
X361.315Y-116.205
X361.315Y-193.675
X361.95Y-109.855
X361.95Y-117.475
X361.95Y-196.215
X362.585Y-118.11
X362.585Y-119.38
X363.22Y-106.68
X363.339Y-195.45
X363.855Y-119.38
X365.76Y-193.04
X365.777Y-209.949
X366.395Y-113.03
X366.395Y-211.455
X367.487Y-118.059
X367.487Y-136.957
X367.665Y-212.09
X368.3Y-89.535
X368.554Y-120.523
X369.205Y-110.22
X369.57Y-102.235
X369.57Y-106.68
X369.57Y-123.19
X369.572Y-107.952
X369.707Y-110.988
X370.205Y-106.045
X370.84Y-105.41
X371.475Y-104.775
X371.475Y-121.92
X371.879Y-123.594
X373.38Y-110.49
X373.395Y-108.553
X374.015Y-109.22
T2
X35.63Y-108.02
X35.63Y-109.22
X35.63Y-110.42
X36.83Y-108.02
X36.83Y-109.22
X36.83Y-110.42
X38.03Y-108.02
X38.03Y-109.22
X38.03Y-110.42
X73.73Y-108.02
X73.73Y-109.22
X73.73Y-110.42
X74.93Y-108.02
X74.93Y-109.22
X74.93Y-110.42
X76.13Y-108.02
X76.13Y-109.22
X76.13Y-110.42
X111.83Y-108.02
X111.83Y-109.22
X111.83Y-110.42
X113.03Y-108.02
X113.03Y-109.22
X113.03Y-110.42
X114.23Y-108.02
X114.23Y-109.22
X114.23Y-110.42
X159.3Y-108.02
X159.3Y-109.22
X159.3Y-110.42
X160.5Y-108.02
X160.5Y-109.22
X160.5Y-110.42
X161.7Y-108.02
X161.7Y-109.22
X161.7Y-110.42
X197.42Y-108.02
X197.42Y-109.22
X197.42Y-110.42
X198.62Y-108.02
X198.62Y-109.22
X198.62Y-110.42
X199.82Y-108.02
X199.82Y-109.22
X199.82Y-110.42
X245.18Y-108.02
X245.18Y-109.22
X245.18Y-110.42
X246.38Y-108.02
X246.38Y-109.22
X246.38Y-110.42
X247.58Y-108.02
X247.58Y-109.22
X247.58Y-110.42
X283.28Y-108.02
X283.28Y-109.22
X283.28Y-110.42
X284.48Y-108.02
X284.48Y-109.22
X284.48Y-110.42
X285.68Y-108.02
X285.68Y-109.22
X285.68Y-110.42
X326.46Y-108.02
X326.46Y-109.22
X326.46Y-110.42
X327.66Y-108.02
X327.66Y-109.22
X327.66Y-110.42
X328.86Y-108.02
X328.86Y-109.22
X328.86Y-110.42
X364.56Y-108.02
X364.56Y-109.22
X364.56Y-110.42
X365.76Y-108.02
X365.76Y-109.22
X365.76Y-110.42
X366.96Y-108.02
X366.96Y-109.22
X366.96Y-110.42
T3
X52.588Y-106.066
X55.128Y-106.066
X57.668Y-106.066
X60.208Y-106.066
X225.318Y-104.288
X227.858Y-104.288
X230.398Y-104.288
X232.938Y-104.288
T4
X29.19Y-87.5
X29.19Y-210.5
X152.53Y-153.9
X247.78Y-153.9
X373.19Y-87.5
X373.19Y-210.5
T0
M30
