0
SECTION
2
HEADER
9
$INSUNITS
70
4
0
ENDSEC
0
SECTION
2
TABLES
0
TABLE
2
LTYPE
0
LTYPE
72
65
70
64
2
CONTINUOUS
3
______
73
0
40
0
0
ENDTAB
0
TABLE
2
LAYER
0
ENDTAB
0
ENDSEC
0
SECTION
2
ENTITIES
0
ARC
8
0
10
3.025
20
-16.025
40
0.5
50
180
51
270
0
ARC
8
0
10
16.025
20
-16.025
40
0.5
50
270
51
0
0
ARC
8
0
10
16.025
20
-3.025
40
0.5
50
0
51
90
0
ARC
8
0
10
3.025
20
-3.025
40
0.5
50
90
51
180
0
LINE
8
0
10
3.025
20
-16.525
11
16.025
21
-16.525
0
LINE
8
0
10
16.025
20
-2.525
11
3.025
21
-2.525
0
LINE
8
0
10
16.525
20
-16.025
11
16.525
21
-3.025
0
LINE
8
0
10
2.525
20
-3.025
11
2.525
21
-16.025
0
ARC
8
0
10
22.075
20
-16.025
40
0.5
50
180
51
270
0
ARC
8
0
10
35.075
20
-16.025
40
0.5
50
270
51
0
0
ARC
8
0
10
35.075
20
-3.025
40
0.5
50
0
51
90
0
ARC
8
0
10
22.075
20
-3.025
40
0.5
50
90
51
180
0
LINE
8
0
10
22.075
20
-16.525
11
35.075
21
-16.525
0
LINE
8
0
10
35.075
20
-2.525
11
22.075
21
-2.525
0
LINE
8
0
10
35.575
20
-16.025
11
35.575
21
-3.025
0
LINE
8
0
10
21.575
20
-3.025
11
21.575
21
-16.025
0
ARC
8
0
10
41.125
20
-16.025
40
0.5
50
180
51
270
0
ARC
8
0
10
54.125
20
-16.025
40
0.5
50
270
51
0
0
ARC
8
0
10
54.125
20
-3.025
40
0.5
50
0
51
90
0
ARC
8
0
10
41.125
20
-3.025
40
0.5
50
90
51
180
0
LINE
8
0
10
41.125
20
-16.525
11
54.125
21
-16.525
0
LINE
8
0
10
54.125
20
-2.525
11
41.125
21
-2.525
0
LINE
8
0
10
54.625
20
-16.025
11
54.625
21
-3.025
0
LINE
8
0
10
40.625
20
-3.025
11
40.625
21
-16.025
0
ARC
8
0
10
60.175
20
-16.025
40
0.5
50
180
51
270
0
ARC
8
0
10
73.175
20
-16.025
40
0.5
50
270
51
0
0
ARC
8
0
10
73.175
20
-3.025
40
0.5
50
0
51
90
0
ARC
8
0
10
60.175
20
-3.025
40
0.5
50
90
51
180
0
LINE
8
0
10
60.175
20
-16.525
11
73.175
21
-16.525
0
LINE
8
0
10
73.175
20
-2.525
11
60.175
21
-2.525
0
LINE
8
0
10
73.675
20
-16.025
11
73.675
21
-3.025
0
LINE
8
0
10
59.675
20
-3.025
11
59.675
21
-16.025
0
ARC
8
0
10
3.025
20
-35.075
40
0.5
50
180
51
270
0
ARC
8
0
10
16.025
20
-35.075
40
0.5
50
270
51
0
0
ARC
8
0
10
16.025
20
-22.075
40
0.5
50
0
51
90
0
ARC
8
0
10
3.025
20
-22.075
40
0.5
50
90
51
180
0
LINE
8
0
10
3.025
20
-35.575
11
16.025
21
-35.575
0
LINE
8
0
10
16.025
20
-21.575
11
3.025
21
-21.575
0
LINE
8
0
10
16.525
20
-35.075
11
16.525
21
-22.075
0
LINE
8
0
10
2.525
20
-22.075
11
2.525
21
-35.075
0
ARC
8
0
10
22.075
20
-35.075
40
0.5
50
180
51
270
0
ARC
8
0
10
35.075
20
-35.075
40
0.5
50
270
51
0
0
ARC
8
0
10
35.075
20
-22.075
40
0.5
50
0
51
90
0
ARC
8
0
10
22.075
20
-22.075
40
0.5
50
90
51
180
0
LINE
8
0
10
22.075
20
-35.575
11
35.075
21
-35.575
0
LINE
8
0
10
35.075
20
-21.575
11
22.075
21
-21.575
0
LINE
8
0
10
35.575
20
-35.075
11
35.575
21
-22.075
0
LINE
8
0
10
21.575
20
-22.075
11
21.575
21
-35.075
0
ARC
8
0
10
41.125
20
-35.075
40
0.5
50
180
51
270
0
ARC
8
0
10
54.125
20
-35.075
40
0.5
50
270
51
0
0
ARC
8
0
10
54.125
20
-22.075
40
0.5
50
0
51
90
0
ARC
8
0
10
41.125
20
-22.075
40
0.5
50
90
51
180
0
LINE
8
0
10
41.125
20
-35.575
11
54.125
21
-35.575
0
LINE
8
0
10
54.125
20
-21.575
11
41.125
21
-21.575
0
LINE
8
0
10
54.625
20
-35.075
11
54.625
21
-22.075
0
LINE
8
0
10
40.625
20
-22.075
11
40.625
21
-35.075
0
ARC
8
0
10
60.175
20
-44.6
40
0.5
50
180
51
270
0
ARC
8
0
10
73.175
20
-44.6
40
0.5
50
270
51
0
0
ARC
8
0
10
73.175
20
-31.6
40
0.5
50
0
51
90
0
ARC
8
0
10
60.175
20
-31.6
40
0.5
50
90
51
180
0
LINE
8
0
10
60.175
20
-45.1
11
73.175
21
-45.1
0
LINE
8
0
10
73.175
20
-31.1
11
60.175
21
-31.1
0
LINE
8
0
10
73.675
20
-44.6
11
73.675
21
-31.6
0
LINE
8
0
10
59.675
20
-31.6
11
59.675
21
-44.6
0
ARC
8
0
10
59.175
20
-23.162
40
0.5
50
90
51
180
0
ARC
8
0
10
59.175
20
-29.162
40
0.5
50
180
51
270
0
ARC
8
0
10
73.175
20
-29.162
40
0.5
50
270
51
0
0
ARC
8
0
10
73.175
20
-23.162
40
0.5
50
0
51
90
0
LINE
8
0
10
58.675
20
-23.162
11
58.675
21
-29.162
0
LINE
8
0
10
73.675
20
-29.162
11
73.675
21
-23.162
0
LINE
8
0
10
59.175
20
-29.662
11
73.175
21
-29.662
0
LINE
8
0
10
73.175
20
-22.662
11
59.175
21
-22.662
0
ARC
8
0
10
59.175
20
-47.038
40
0.5
50
90
51
180
0
ARC
8
0
10
59.175
20
-53.038
40
0.5
50
180
51
270
0
ARC
8
0
10
73.175
20
-53.038
40
0.5
50
270
51
0
0
ARC
8
0
10
73.175
20
-47.038
40
0.5
50
0
51
90
0
LINE
8
0
10
58.675
20
-47.038
11
58.675
21
-53.038
0
LINE
8
0
10
73.675
20
-53.038
11
73.675
21
-47.038
0
LINE
8
0
10
59.175
20
-53.538
11
73.175
21
-53.538
0
LINE
8
0
10
73.175
20
-46.538
11
59.175
21
-46.538
0
ARC
8
0
10
3.025
20
-54.125
40
0.5
50
180
51
270
0
ARC
8
0
10
16.025
20
-54.125
40
0.5
50
270
51
0
0
ARC
8
0
10
16.025
20
-41.125
40
0.5
50
0
51
90
0
ARC
8
0
10
3.025
20
-41.125
40
0.5
50
90
51
180
0
LINE
8
0
10
3.025
20
-54.625
11
16.025
21
-54.625
0
LINE
8
0
10
16.025
20
-40.625
11
3.025
21
-40.625
0
LINE
8
0
10
16.525
20
-54.125
11
16.525
21
-41.125
0
LINE
8
0
10
2.525
20
-41.125
11
2.525
21
-54.125
0
ARC
8
0
10
22.075
20
-54.125
40
0.5
50
180
51
270
0
ARC
8
0
10
35.075
20
-54.125
40
0.5
50
270
51
0
0
ARC
8
0
10
35.075
20
-41.125
40
0.5
50
0
51
90
0
ARC
8
0
10
22.075
20
-41.125
40
0.5
50
90
51
180
0
LINE
8
0
10
22.075
20
-54.625
11
35.075
21
-54.625
0
LINE
8
0
10
35.075
20
-40.625
11
22.075
21
-40.625
0
LINE
8
0
10
35.575
20
-54.125
11
35.575
21
-41.125
0
LINE
8
0
10
21.575
20
-41.125
11
21.575
21
-54.125
0
ARC
8
0
10
41.125
20
-54.125
40
0.5
50
180
51
270
0
ARC
8
0
10
54.125
20
-54.125
40
0.5
50
270
51
0
0
ARC
8
0
10
54.125
20
-41.125
40
0.5
50
0
51
90
0
ARC
8
0
10
41.125
20
-41.125
40
0.5
50
90
51
180
0
LINE
8
0
10
41.125
20
-54.625
11
54.125
21
-54.625
0
LINE
8
0
10
54.125
20
-40.625
11
41.125
21
-40.625
0
LINE
8
0
10
54.625
20
-54.125
11
54.625
21
-41.125
0
LINE
8
0
10
40.625
20
-41.125
11
40.625
21
-54.125
0
ARC
8
0
10
3.025
20
-73.175
40
0.5
50
180
51
270
0
ARC
8
0
10
16.025
20
-73.175
40
0.5
50
270
51
0
0
ARC
8
0
10
16.025
20
-60.175
40
0.5
50
0
51
90
0
ARC
8
0
10
3.025
20
-60.175
40
0.5
50
90
51
180
0
LINE
8
0
10
3.025
20
-73.675
11
16.025
21
-73.675
0
LINE
8
0
10
16.025
20
-59.675
11
3.025
21
-59.675
0
LINE
8
0
10
16.525
20
-73.175
11
16.525
21
-60.175
0
LINE
8
0
10
2.525
20
-60.175
11
2.525
21
-73.175
0
ARC
8
0
10
22.075
20
-73.175
40
0.5
50
180
51
270
0
ARC
8
0
10
35.075
20
-73.175
40
0.5
50
270
51
0
0
ARC
8
0
10
35.075
20
-60.175
40
0.5
50
0
51
90
0
ARC
8
0
10
22.075
20
-60.175
40
0.5
50
90
51
180
0
LINE
8
0
10
22.075
20
-73.675
11
35.075
21
-73.675
0
LINE
8
0
10
35.075
20
-59.675
11
22.075
21
-59.675
0
LINE
8
0
10
35.575
20
-73.175
11
35.575
21
-60.175
0
LINE
8
0
10
21.575
20
-60.175
11
21.575
21
-73.175
0
ARC
8
0
10
41.125
20
-73.175
40
0.5
50
180
51
270
0
ARC
8
0
10
54.125
20
-73.175
40
0.5
50
270
51
0
0
ARC
8
0
10
54.125
20
-60.175
40
0.5
50
0
51
90
0
ARC
8
0
10
41.125
20
-60.175
40
0.5
50
90
51
180
0
LINE
8
0
10
41.125
20
-73.675
11
54.125
21
-73.675
0
LINE
8
0
10
54.125
20
-59.675
11
41.125
21
-59.675
0
LINE
8
0
10
54.625
20
-73.175
11
54.625
21
-60.175
0
LINE
8
0
10
40.625
20
-60.175
11
40.625
21
-73.175
0
ARC
8
0
10
60.175
20
-82.7
40
0.5
50
180
51
270
0
ARC
8
0
10
73.175
20
-82.7
40
0.5
50
270
51
0
0
ARC
8
0
10
73.175
20
-69.7
40
0.5
50
0
51
90
0
ARC
8
0
10
60.175
20
-69.7
40
0.5
50
90
51
180
0
LINE
8
0
10
60.175
20
-83.2
11
73.175
21
-83.2
0
LINE
8
0
10
73.175
20
-69.2
11
60.175
21
-69.2
0
LINE
8
0
10
73.675
20
-82.7
11
73.675
21
-69.7
0
LINE
8
0
10
59.675
20
-69.7
11
59.675
21
-82.7
0
ARC
8
0
10
59.175
20
-61.262
40
0.5
50
90
51
180
0
ARC
8
0
10
59.175
20
-67.262
40
0.5
50
180
51
270
0
ARC
8
0
10
73.175
20
-67.262
40
0.5
50
270
51
0
0
ARC
8
0
10
73.175
20
-61.262
40
0.5
50
0
51
90
0
LINE
8
0
10
58.675
20
-61.262
11
58.675
21
-67.262
0
LINE
8
0
10
73.675
20
-67.262
11
73.675
21
-61.262
0
LINE
8
0
10
59.175
20
-67.762
11
73.175
21
-67.762
0
LINE
8
0
10
73.175
20
-60.762
11
59.175
21
-60.762
0
ARC
8
0
10
59.175
20
-85.138
40
0.5
50
90
51
180
0
ARC
8
0
10
59.175
20
-91.138
40
0.5
50
180
51
270
0
ARC
8
0
10
73.175
20
-91.138
40
0.5
50
270
51
0
0
ARC
8
0
10
73.175
20
-85.138
40
0.5
50
0
51
90
0
LINE
8
0
10
58.675
20
-85.138
11
58.675
21
-91.138
0
LINE
8
0
10
73.675
20
-91.138
11
73.675
21
-85.138
0
LINE
8
0
10
59.175
20
-91.638
11
73.175
21
-91.638
0
LINE
8
0
10
73.175
20
-84.638
11
59.175
21
-84.638
0
ARC
8
0
10
12.55
20
-92.225
40
0.5
50
180
51
270
0
ARC
8
0
10
25.55
20
-92.225
40
0.5
50
270
51
0
0
ARC
8
0
10
25.55
20
-79.225
40
0.5
50
0
51
90
0
ARC
8
0
10
12.55
20
-79.225
40
0.5
50
90
51
180
0
LINE
8
0
10
12.55
20
-92.725
11
25.55
21
-92.725
0
LINE
8
0
10
25.55
20
-78.725
11
12.55
21
-78.725
0
LINE
8
0
10
26.05
20
-92.225
11
26.05
21
-79.225
0
LINE
8
0
10
12.05
20
-79.225
11
12.05
21
-92.225
0
ARC
8
0
10
4.112
20
-93.225
40
0.5
50
180
51
270
0
ARC
8
0
10
10.112
20
-93.225
40
0.5
50
270
51
0
0
ARC
8
0
10
10.112
20
-79.225
40
0.5
50
0
51
90
0
ARC
8
0
10
4.112
20
-79.225
40
0.5
50
90
51
180
0
LINE
8
0
10
4.112
20
-93.725
11
10.112
21
-93.725
0
LINE
8
0
10
10.112
20
-78.725
11
4.112
21
-78.725
0
LINE
8
0
10
10.612
20
-93.225
11
10.612
21
-79.225
0
LINE
8
0
10
3.612
20
-79.225
11
3.612
21
-93.225
0
ARC
8
0
10
27.988
20
-93.225
40
0.5
50
180
51
270
0
ARC
8
0
10
33.988
20
-93.225
40
0.5
50
270
51
0
0
ARC
8
0
10
33.988
20
-79.225
40
0.5
50
0
51
90
0
ARC
8
0
10
27.988
20
-79.225
40
0.5
50
90
51
180
0
LINE
8
0
10
27.988
20
-93.725
11
33.988
21
-93.725
0
LINE
8
0
10
33.988
20
-78.725
11
27.988
21
-78.725
0
LINE
8
0
10
34.488
20
-93.225
11
34.488
21
-79.225
0
LINE
8
0
10
27.488
20
-79.225
11
27.488
21
-93.225
0
ARC
8
0
10
41.125
20
-92.225
40
0.5
50
180
51
270
0
ARC
8
0
10
54.125
20
-92.225
40
0.5
50
270
51
0
0
ARC
8
0
10
54.125
20
-79.225
40
0.5
50
0
51
90
0
ARC
8
0
10
41.125
20
-79.225
40
0.5
50
90
51
180
0
LINE
8
0
10
41.125
20
-92.725
11
54.125
21
-92.725
0
LINE
8
0
10
54.125
20
-78.725
11
41.125
21
-78.725
0
LINE
8
0
10
54.625
20
-92.225
11
54.625
21
-79.225
0
LINE
8
0
10
40.625
20
-79.225
11
40.625
21
-92.225
0
ENDSEC
0
EOF