%TF.GenerationSoftware,KiCad,Pcbnew,(6.0.5)*%
%TF.CreationDate,2022-06-21T22:17:49+02:00*%
%TF.ProjectId,Numpad,4e756d70-6164-42e6-9b69-6361645f7063,rev?*%
%TF.SameCoordinates,Original*%
%TF.FileFunction,Soldermask,Top*%
%TF.FilePolarity,Negative*%
%FSLAX46Y46*%
G04 Gerber Fmt 4.6, Leading zero omitted, Abs format (unit mm)*
G04 Created by KiCad (PCBNEW (6.0.5)) date 2022-06-21 22:17:49*
%MOMM*%
%LPD*%
G01*
G04 APERTURE LIST*
G04 Aperture macros list*
%AMRoundRect*
0 Rectangle with rounded corners*
0 $1 Rounding radius*
0 $2 $3 $4 $5 $6 $7 $8 $9 X,Y pos of 4 corners*
0 Add a 4 corners polygon primitive as box body*
4,1,4,$2,$3,$4,$5,$6,$7,$8,$9,$2,$3,0*
0 Add four circle primitives for the rounded corners*
1,1,$1+$1,$2,$3*
1,1,$1+$1,$4,$5*
1,1,$1+$1,$6,$7*
1,1,$1+$1,$8,$9*
0 Add four rect primitives between the rounded corners*
20,1,$1+$1,$2,$3,$4,$5,0*
20,1,$1+$1,$4,$5,$6,$7,0*
20,1,$1+$1,$6,$7,$8,$9,0*
20,1,$1+$1,$8,$9,$2,$3,0*%
G04 Aperture macros list end*
%ADD10R,0.700000X0.600000*%
%ADD11C,3.000000*%
%ADD12C,4.000000*%
%ADD13C,3.048000*%
%ADD14C,3.987800*%
%ADD15R,0.650000X0.600000*%
%ADD16RoundRect,0.135000X-0.135000X-0.185000X0.135000X-0.185000X0.135000X0.185000X-0.135000X0.185000X0*%
%ADD17RoundRect,0.135000X0.135000X0.185000X-0.135000X0.185000X-0.135000X-0.185000X0.135000X-0.185000X0*%
%ADD18RoundRect,0.008100X-0.126900X0.421900X-0.126900X-0.421900X0.126900X-0.421900X0.126900X0.421900X0*%
%ADD19RoundRect,0.008100X-0.421900X-0.126900X0.421900X-0.126900X0.421900X0.126900X-0.421900X0.126900X0*%
%ADD20R,4.100000X4.100000*%
%ADD21R,1.700000X1.700000*%
%ADD22O,1.700000X1.700000*%
%ADD23RoundRect,0.140000X-0.140000X-0.170000X0.140000X-0.170000X0.140000X0.170000X-0.140000X0.170000X0*%
%ADD24RoundRect,0.062500X-0.350000X-0.062500X0.350000X-0.062500X0.350000X0.062500X-0.350000X0.062500X0*%
%ADD25RoundRect,0.062500X-0.062500X-0.350000X0.062500X-0.350000X0.062500X0.350000X-0.062500X0.350000X0*%
%ADD26RoundRect,0.242500X-0.242500X-0.242500X0.242500X-0.242500X0.242500X0.242500X-0.242500X0.242500X0*%
%ADD27RoundRect,0.140000X0.140000X0.170000X-0.140000X0.170000X-0.140000X-0.170000X0.140000X-0.170000X0*%
%ADD28C,0.600000*%
G04 APERTURE END LIST*
D10*
%TO.C,D18*%
X26089000Y-61060000D03*
X26089000Y-62460000D03*
%TD*%
D11*
%TO.C,K_ZERO1*%
X47829000Y-140500000D03*
D12*
X44019000Y-137960000D03*
D13*
X55957000Y-130975000D03*
D14*
X32081000Y-146215000D03*
X55957000Y-146215000D03*
D11*
X41479000Y-143040000D03*
D13*
X32081000Y-130975000D03*
%TD*%
D15*
%TO.C,D12*%
X72194000Y-94095000D03*
X72194000Y-95495000D03*
X72994000Y-94095000D03*
X72994000Y-95495000D03*
%TD*%
D16*
%TO.C,R5*%
X36574000Y-30226000D03*
X37594000Y-30226000D03*
%TD*%
D17*
%TO.C,R1*%
X37594000Y-33528000D03*
X36574000Y-33528000D03*
%TD*%
D18*
%TO.C,U1*%
X33764000Y-33028000D03*
X33264000Y-33028000D03*
X32764000Y-33028000D03*
X32264000Y-33028000D03*
X31764000Y-33028000D03*
X31264000Y-33028000D03*
X30764000Y-33028000D03*
X30264000Y-33028000D03*
X29764000Y-33028000D03*
X29264000Y-33028000D03*
D19*
X28579000Y-33713000D03*
X28579000Y-34213000D03*
X28579000Y-34713000D03*
X28579000Y-35213000D03*
X28579000Y-35713000D03*
X28579000Y-36213000D03*
X28579000Y-36713000D03*
X28579000Y-37213000D03*
X28579000Y-37713000D03*
X28579000Y-38213000D03*
D18*
X29264000Y-38898000D03*
X29764000Y-38898000D03*
X30264000Y-38898000D03*
X30764000Y-38898000D03*
X31264000Y-38898000D03*
X31764000Y-38898000D03*
X32264000Y-38898000D03*
X32764000Y-38898000D03*
X33264000Y-38898000D03*
X33764000Y-38898000D03*
D19*
X34449000Y-38213000D03*
X34449000Y-37713000D03*
X34449000Y-37213000D03*
X34449000Y-36713000D03*
X34449000Y-36213000D03*
X34449000Y-35713000D03*
X34449000Y-35213000D03*
X34449000Y-34713000D03*
X34449000Y-34213000D03*
X34449000Y-33713000D03*
D20*
X31514000Y-35963000D03*
%TD*%
D10*
%TO.C,D25*%
X45139000Y-99160000D03*
X45139000Y-100560000D03*
%TD*%
D17*
%TO.C,R3*%
X68328000Y-106934000D03*
X67308000Y-106934000D03*
%TD*%
D11*
%TO.C,K_TWO1*%
X50999000Y-123995000D03*
X57349000Y-121455000D03*
D12*
X53539000Y-118915000D03*
%TD*%
D11*
%TO.C,K_DOT1*%
X76399000Y-140505000D03*
D12*
X72589000Y-137965000D03*
D11*
X70049000Y-143045000D03*
%TD*%
D15*
%TO.C,D10*%
X72194000Y-55995000D03*
X72194000Y-57395000D03*
X72994000Y-55995000D03*
X72994000Y-57395000D03*
%TD*%
%TO.C,D4*%
X34094000Y-113145000D03*
X34094000Y-114545000D03*
X34894000Y-113145000D03*
X34894000Y-114545000D03*
%TD*%
D12*
%TO.C,K_SLASH1*%
X53539000Y-61765000D03*
D11*
X50999000Y-66845000D03*
X57349000Y-64305000D03*
%TD*%
D10*
%TO.C,D19*%
X26089000Y-80110000D03*
X26089000Y-81510000D03*
%TD*%
%TO.C,D29*%
X64189000Y-99160000D03*
X64189000Y-100560000D03*
%TD*%
%TO.C,D27*%
X64189000Y-61060000D03*
X64189000Y-62460000D03*
%TD*%
D15*
%TO.C,D6*%
X53144000Y-55995000D03*
X53144000Y-57395000D03*
X53944000Y-55995000D03*
X53944000Y-57395000D03*
%TD*%
D13*
%TO.C,K_ENTER1*%
X84659000Y-140373000D03*
D11*
X95454000Y-130975000D03*
X89104000Y-133515000D03*
D13*
X84659000Y-116497000D03*
D12*
X91644000Y-128435000D03*
D14*
X99899000Y-140373000D03*
X99899000Y-116497000D03*
%TD*%
D15*
%TO.C,D3*%
X34094000Y-94095000D03*
X34094000Y-95495000D03*
X34894000Y-94095000D03*
X34894000Y-95495000D03*
%TD*%
%TO.C,D13*%
X72194000Y-113145000D03*
X72194000Y-114545000D03*
X72994000Y-113145000D03*
X72994000Y-114545000D03*
%TD*%
D17*
%TO.C,R2*%
X49024000Y-88900000D03*
X48004000Y-88900000D03*
%TD*%
D15*
%TO.C,D7*%
X53144000Y-75045000D03*
X53144000Y-76445000D03*
X53944000Y-75045000D03*
X53944000Y-76445000D03*
%TD*%
D11*
%TO.C,K_MINUS1*%
X89099000Y-66845000D03*
D12*
X91639000Y-61765000D03*
D11*
X95449000Y-64305000D03*
%TD*%
D10*
%TO.C,D34*%
X83239000Y-127735000D03*
X83239000Y-129135000D03*
%TD*%
%TO.C,D33*%
X83239000Y-89635000D03*
X83239000Y-91035000D03*
%TD*%
D15*
%TO.C,D5*%
X43619000Y-132195000D03*
X43619000Y-133595000D03*
X44419000Y-132195000D03*
X44419000Y-133595000D03*
%TD*%
D21*
%TO.C,J1*%
X100320000Y-35894000D03*
D22*
X100320000Y-33354000D03*
X100320000Y-30814000D03*
X100320000Y-28274000D03*
%TD*%
D15*
%TO.C,D17*%
X91244000Y-122670000D03*
X91244000Y-124070000D03*
X92044000Y-122670000D03*
X92044000Y-124070000D03*
%TD*%
%TO.C,D9*%
X53144000Y-113145000D03*
X53144000Y-114545000D03*
X53944000Y-113145000D03*
X53944000Y-114545000D03*
%TD*%
D10*
%TO.C,D26*%
X45139000Y-118210000D03*
X45139000Y-119610000D03*
%TD*%
%TO.C,D22*%
X35614000Y-137260000D03*
X35614000Y-138660000D03*
%TD*%
D11*
%TO.C,K_PLUS1*%
X95454000Y-92875000D03*
D14*
X99899000Y-102273000D03*
D13*
X84659000Y-78397000D03*
D12*
X91644000Y-90335000D03*
D11*
X89104000Y-95415000D03*
D13*
X84659000Y-102273000D03*
D14*
X99899000Y-78397000D03*
%TD*%
D15*
%TO.C,D2*%
X34094000Y-75045000D03*
X34094000Y-76445000D03*
X34894000Y-75045000D03*
X34894000Y-76445000D03*
%TD*%
D11*
%TO.C,K_THREE1*%
X70049000Y-123995000D03*
D12*
X72589000Y-118915000D03*
D11*
X76399000Y-121455000D03*
%TD*%
%TO.C,K_SEVEN1*%
X31949000Y-85895000D03*
X38299000Y-83355000D03*
D12*
X34489000Y-80815000D03*
%TD*%
D10*
%TO.C,D30*%
X64189000Y-118210000D03*
X64189000Y-119610000D03*
%TD*%
D15*
%TO.C,D14*%
X72194000Y-132195000D03*
X72194000Y-133595000D03*
X72994000Y-132195000D03*
X72994000Y-133595000D03*
%TD*%
%TO.C,D15*%
X91244000Y-55995000D03*
X91244000Y-57395000D03*
X92044000Y-55995000D03*
X92044000Y-57395000D03*
%TD*%
%TO.C,D1*%
X34094000Y-55995000D03*
X34094000Y-57395000D03*
X34894000Y-55995000D03*
X34894000Y-57395000D03*
%TD*%
D10*
%TO.C,D21*%
X26089000Y-118210000D03*
X26089000Y-119610000D03*
%TD*%
%TO.C,D28*%
X64189000Y-80110000D03*
X64189000Y-81510000D03*
%TD*%
D12*
%TO.C,K_FOUR1*%
X34489000Y-99865000D03*
D11*
X38299000Y-102405000D03*
X31949000Y-104945000D03*
%TD*%
D10*
%TO.C,D23*%
X45139000Y-61060000D03*
X45139000Y-62460000D03*
%TD*%
D16*
%TO.C,R4*%
X36574000Y-28956000D03*
X37594000Y-28956000D03*
%TD*%
D17*
%TO.C,R6*%
X37594000Y-31496000D03*
X36574000Y-31496000D03*
%TD*%
D12*
%TO.C,K_ONE1*%
X34489000Y-118915000D03*
D11*
X38299000Y-121455000D03*
X31949000Y-123995000D03*
%TD*%
D15*
%TO.C,D8*%
X53144000Y-94095000D03*
X53144000Y-95495000D03*
X53944000Y-94095000D03*
X53944000Y-95495000D03*
%TD*%
D23*
%TO.C,C5*%
X36604000Y-34798000D03*
X37564000Y-34798000D03*
%TD*%
D15*
%TO.C,D16*%
X91244000Y-84570000D03*
X91244000Y-85970000D03*
X92044000Y-84570000D03*
X92044000Y-85970000D03*
%TD*%
D10*
%TO.C,D32*%
X83239000Y-61060000D03*
X83239000Y-62460000D03*
%TD*%
%TO.C,D20*%
X26089000Y-99160000D03*
X26089000Y-100560000D03*
%TD*%
D11*
%TO.C,K_FIVE1*%
X50999000Y-104945000D03*
D12*
X53539000Y-99865000D03*
D11*
X57349000Y-102405000D03*
%TD*%
D24*
%TO.C,U2*%
X41504500Y-88624000D03*
X41504500Y-89024000D03*
X41504500Y-89424000D03*
X41504500Y-89824000D03*
X41504500Y-90224000D03*
X41504500Y-90624000D03*
X41504500Y-91024000D03*
X41504500Y-91424000D03*
X41504500Y-91824000D03*
X41504500Y-92224000D03*
D25*
X42142000Y-92861500D03*
X42542000Y-92861500D03*
X42942000Y-92861500D03*
X43342000Y-92861500D03*
X43742000Y-92861500D03*
X44142000Y-92861500D03*
X44542000Y-92861500D03*
X44942000Y-92861500D03*
X45342000Y-92861500D03*
X45742000Y-92861500D03*
D24*
X46379500Y-92224000D03*
X46379500Y-91824000D03*
D26*
X45142000Y-90424000D03*
X43942000Y-91624000D03*
X43942000Y-90424000D03*
X45142000Y-89224000D03*
X42742000Y-90424000D03*
X45142000Y-91624000D03*
X42742000Y-91624000D03*
X42742000Y-89224000D03*
X43942000Y-89224000D03*
D24*
X46379500Y-91424000D03*
X46379500Y-91024000D03*
X46379500Y-90624000D03*
X46379500Y-90224000D03*
X46379500Y-89824000D03*
X46379500Y-89424000D03*
X46379500Y-89024000D03*
X46379500Y-88624000D03*
D25*
X45742000Y-87986500D03*
X45342000Y-87986500D03*
X44942000Y-87986500D03*
X44542000Y-87986500D03*
X44142000Y-87986500D03*
X43742000Y-87986500D03*
X43342000Y-87986500D03*
X42942000Y-87986500D03*
X42542000Y-87986500D03*
X42142000Y-87986500D03*
%TD*%
D24*
%TO.C,U3*%
X60681500Y-107547000D03*
X60681500Y-107947000D03*
X60681500Y-108347000D03*
X60681500Y-108747000D03*
X60681500Y-109147000D03*
X60681500Y-109547000D03*
X60681500Y-109947000D03*
X60681500Y-110347000D03*
X60681500Y-110747000D03*
X60681500Y-111147000D03*
D25*
X61319000Y-111784500D03*
X61719000Y-111784500D03*
X62119000Y-111784500D03*
X62519000Y-111784500D03*
X62919000Y-111784500D03*
X63319000Y-111784500D03*
X63719000Y-111784500D03*
X64119000Y-111784500D03*
X64519000Y-111784500D03*
X64919000Y-111784500D03*
D24*
X65556500Y-111147000D03*
X65556500Y-110747000D03*
D26*
X63119000Y-109347000D03*
X64319000Y-108147000D03*
X64319000Y-109347000D03*
X61919000Y-108147000D03*
D24*
X65556500Y-110347000D03*
D26*
X63119000Y-110547000D03*
X63119000Y-108147000D03*
X61919000Y-109347000D03*
X61919000Y-110547000D03*
X64319000Y-110547000D03*
D24*
X65556500Y-109947000D03*
X65556500Y-109547000D03*
X65556500Y-109147000D03*
X65556500Y-108747000D03*
X65556500Y-108347000D03*
X65556500Y-107947000D03*
X65556500Y-107547000D03*
D25*
X64919000Y-106909500D03*
X64519000Y-106909500D03*
X64119000Y-106909500D03*
X63719000Y-106909500D03*
X63319000Y-106909500D03*
X62919000Y-106909500D03*
X62519000Y-106909500D03*
X62119000Y-106909500D03*
X61719000Y-106909500D03*
X61319000Y-106909500D03*
%TD*%
D11*
%TO.C,K_SIX1*%
X76399000Y-102405000D03*
X70049000Y-104945000D03*
D12*
X72589000Y-99865000D03*
%TD*%
D27*
%TO.C,C1*%
X52080328Y-91186000D03*
X51120328Y-91186000D03*
%TD*%
D11*
%TO.C,K_STAR1*%
X70049000Y-66845000D03*
D12*
X72589000Y-61765000D03*
D11*
X76399000Y-64305000D03*
%TD*%
%TO.C,K_EIGHT1*%
X50999000Y-85895000D03*
X57349000Y-83355000D03*
D12*
X53539000Y-80815000D03*
%TD*%
D21*
%TO.C,J2*%
X41926000Y-35894000D03*
D22*
X41926000Y-33354000D03*
X41926000Y-30814000D03*
X41926000Y-28274000D03*
%TD*%
D15*
%TO.C,D11*%
X72194000Y-75045000D03*
X72194000Y-76445000D03*
X72994000Y-75045000D03*
X72994000Y-76445000D03*
%TD*%
D27*
%TO.C,C2*%
X52080328Y-89916000D03*
X51120328Y-89916000D03*
%TD*%
D11*
%TO.C,K_NUMPAD1*%
X38299000Y-64305000D03*
D12*
X34489000Y-61765000D03*
D11*
X31949000Y-66845000D03*
%TD*%
D10*
%TO.C,D31*%
X64189000Y-137260000D03*
X64189000Y-138660000D03*
%TD*%
D11*
%TO.C,K_NINE1*%
X76399000Y-83355000D03*
X70049000Y-85895000D03*
D12*
X72589000Y-80815000D03*
%TD*%
D10*
%TO.C,D24*%
X45139000Y-80110000D03*
X45139000Y-81510000D03*
%TD*%
D28*
X25654000Y-41656000D03*
X24638000Y-51054000D03*
X26974000Y-63992000D03*
X24102475Y-50197889D03*
X24892000Y-42926000D03*
X26466000Y-82788000D03*
X83385903Y-87707316D03*
X24130000Y-43942000D03*
X23626452Y-49305347D03*
X83362000Y-97520000D03*
X26466000Y-102092000D03*
X23114000Y-48514000D03*
X23368000Y-44958000D03*
X26466000Y-121396000D03*
X22606000Y-47498000D03*
X83362000Y-126476000D03*
X22606000Y-45974000D03*
X83362000Y-135620000D03*
X36118000Y-140192000D03*
X45770000Y-63992000D03*
X45770000Y-82788000D03*
X45770000Y-102092000D03*
X45770000Y-121396000D03*
X64566000Y-63992000D03*
X64566000Y-82788000D03*
X64566000Y-102092000D03*
X65074000Y-121396000D03*
X64566000Y-140192000D03*
X83870000Y-63992000D03*
X83870000Y-92440000D03*
X83870000Y-130540000D03*
X67310000Y-110998000D03*
X66802000Y-115316000D03*
X57985000Y-109147000D03*
X38862000Y-30988000D03*
X57952430Y-114057618D03*
X38608000Y-40386000D03*
X24384000Y-89408000D03*
X38701299Y-36445054D03*
X25146000Y-58420000D03*
X48641000Y-92075000D03*
X54810000Y-109147000D03*
X38612045Y-34788894D03*
X38354000Y-89916000D03*
X38100000Y-96884520D03*
X48641000Y-97155000D03*
X44720000Y-73644000D03*
X44958000Y-85598000D03*
X44069480Y-85216520D03*
X43434000Y-77216000D03*
X43180000Y-85344000D03*
X42688000Y-75676000D03*
X61468000Y-113030000D03*
X43815000Y-94107000D03*
X68326000Y-107696000D03*
X49276000Y-90932000D03*
X40132000Y-39624000D03*
X50800000Y-88900000D03*
X47371000Y-91440000D03*
X62992000Y-113030000D03*
X42218922Y-94229011D03*
X66675000Y-110363000D03*
X40132000Y-94234000D03*
X40132000Y-99060000D03*
X39370000Y-32766000D03*
X82480000Y-124070000D03*
X63627000Y-114935000D03*
X82346000Y-134604000D03*
X72898000Y-124206000D03*
X39116000Y-81026000D03*
X40602000Y-56680000D03*
X40386000Y-80772000D03*
X41364000Y-58204000D03*
X42126000Y-54648000D03*
X40386000Y-79502000D03*
X68580000Y-75692000D03*
X62484000Y-102870000D03*
X63299292Y-103322320D03*
X69523993Y-76436273D03*
X70497000Y-75045000D03*
X64262000Y-103378000D03*
X81788000Y-85852000D03*
X68326000Y-98298000D03*
X81280000Y-95504000D03*
X68724989Y-94851011D03*
X81788000Y-96520000D03*
X69088000Y-98806000D03*
X69859000Y-95495000D03*
X82296000Y-86868000D03*
X80772000Y-85344000D03*
X70612000Y-94234000D03*
X69850000Y-99568000D03*
X80518000Y-92202000D03*
X56388000Y-87884000D03*
X56642000Y-96266000D03*
X62404000Y-35894000D03*
X72898000Y-108712000D03*
X55177262Y-95724876D03*
X65024000Y-95758000D03*
X48514000Y-90424000D03*
X58783011Y-95648989D03*
X58674000Y-87122000D03*
X61468000Y-81026000D03*
X63246000Y-25400000D03*
X59944000Y-90678000D03*
X72080004Y-107923248D03*
X64719750Y-96805095D03*
X59944000Y-87122000D03*
X61976000Y-80264000D03*
X59944000Y-96774000D03*
X54356000Y-90424000D03*
X49784000Y-89662000D03*
X73787000Y-123825000D03*
X81838000Y-123428000D03*
X64501614Y-113461467D03*
X81584000Y-132826000D03*
X57096345Y-86864569D03*
X57404000Y-93726000D03*
X80822000Y-130540000D03*
X80822000Y-123428000D03*
X62992000Y-130175000D03*
X62992000Y-114046000D03*
X70231000Y-115189000D03*
X70231000Y-112903000D03*
X74726000Y-74660000D03*
X74726000Y-55864000D03*
X59309000Y-110363000D03*
X74726000Y-112760000D03*
X59972227Y-114917341D03*
X74726000Y-131556000D03*
X74726000Y-93456000D03*
X41706000Y-132826000D03*
X36626000Y-112760000D03*
X36741335Y-93416482D03*
X36626000Y-55864000D03*
X37134000Y-74660000D03*
X39779308Y-89488624D03*
X39164446Y-97627280D03*
X55930000Y-74660000D03*
X55930000Y-112760000D03*
X55930000Y-93456000D03*
X55930000Y-55864000D03*
X55930000Y-97232000D03*
X59182000Y-108458000D03*
X59182000Y-115316000D03*
X93522000Y-84820000D03*
X93522000Y-122920000D03*
X94030000Y-56372000D03*
X46101000Y-94742000D03*
X49927000Y-111744000D03*
X50673000Y-115316000D03*
X46990000Y-94742000D03*
X47879000Y-93853000D03*
X51705000Y-113776000D03*
X43434000Y-130810000D03*
X43180000Y-94742000D03*
X44323000Y-94869000D03*
X46482000Y-134620000D03*
X45212000Y-94742000D03*
X47498000Y-133604000D03*
X62230000Y-98552000D03*
X70243000Y-55995000D03*
X61722000Y-99314000D03*
X69351000Y-57395000D03*
X68326000Y-56642000D03*
X61468000Y-100330000D03*
X79248000Y-50800000D03*
X26162000Y-38608000D03*
X37592000Y-50800000D03*
X27178000Y-38608000D03*
X60452000Y-50038000D03*
X38608000Y-50038000D03*
X25146000Y-38608000D03*
X98044000Y-52324000D03*
X36830000Y-51562000D03*
X26416000Y-40894000D03*
M02*
