%TF.GenerationSoftware,KiCad,Pcbnew,(6.0.5)*%
%TF.CreationDate,2022-06-21T22:17:49+02:00*%
%TF.ProjectId,Numpad,4e756d70-6164-42e6-9b69-6361645f7063,rev?*%
%TF.SameCoordinates,Original*%
%TF.FileFunction,Legend,Bot*%
%TF.FilePolarity,Positive*%
%FSLAX46Y46*%
G04 Gerber Fmt 4.6, Leading zero omitted, Abs format (unit mm)*
G04 Created by KiCad (PCBNEW (6.0.5)) date 2022-06-21 22:17:49*
%MOMM*%
%LPD*%
G01*
G04 APERTURE LIST*
G04 Aperture macros list*
%AMRoundRect*
0 Rectangle with rounded corners*
0 $1 Rounding radius*
0 $2 $3 $4 $5 $6 $7 $8 $9 X,Y pos of 4 corners*
0 Add a 4 corners polygon primitive as box body*
4,1,4,$2,$3,$4,$5,$6,$7,$8,$9,$2,$3,0*
0 Add four circle primitives for the rounded corners*
1,1,$1+$1,$2,$3*
1,1,$1+$1,$4,$5*
1,1,$1+$1,$6,$7*
1,1,$1+$1,$8,$9*
0 Add four rect primitives between the rounded corners*
20,1,$1+$1,$2,$3,$4,$5,0*
20,1,$1+$1,$4,$5,$6,$7,0*
20,1,$1+$1,$6,$7,$8,$9,0*
20,1,$1+$1,$8,$9,$2,$3,0*%
G04 Aperture macros list end*
%ADD10C,3.000000*%
%ADD11C,4.000000*%
%ADD12C,3.048000*%
%ADD13C,3.987800*%
%ADD14R,2.550000X2.500000*%
%ADD15R,1.700000X1.700000*%
%ADD16O,1.700000X1.700000*%
%ADD17RoundRect,0.242500X-0.242500X-0.242500X0.242500X-0.242500X0.242500X0.242500X-0.242500X0.242500X0*%
%ADD18C,0.600000*%
G04 APERTURE END LIST*
%LPC*%
D10*
%TO.C,K_ZERO1*%
X47829000Y-140500000D03*
D11*
X44019000Y-137960000D03*
D12*
X55957000Y-130975000D03*
D13*
X32081000Y-146215000D03*
X55957000Y-146215000D03*
D10*
X41479000Y-143040000D03*
D12*
X32081000Y-130975000D03*
D14*
X51104000Y-140500000D03*
X38177000Y-143040000D03*
%TD*%
D10*
%TO.C,K_TWO1*%
X50999000Y-123995000D03*
X57349000Y-121455000D03*
D11*
X53539000Y-118915000D03*
D14*
X60624000Y-121455000D03*
X47697000Y-123995000D03*
%TD*%
D10*
%TO.C,K_DOT1*%
X76399000Y-140505000D03*
D11*
X72589000Y-137965000D03*
D10*
X70049000Y-143045000D03*
D14*
X79674000Y-140505000D03*
X66747000Y-143045000D03*
%TD*%
D11*
%TO.C,K_SLASH1*%
X53539000Y-61765000D03*
D10*
X50999000Y-66845000D03*
X57349000Y-64305000D03*
D14*
X60624000Y-64305000D03*
X47697000Y-66845000D03*
%TD*%
D12*
%TO.C,K_ENTER1*%
X84659000Y-140373000D03*
D10*
X95454000Y-130975000D03*
X89104000Y-133515000D03*
D12*
X84659000Y-116497000D03*
D11*
X91644000Y-128435000D03*
D13*
X99899000Y-140373000D03*
X99899000Y-116497000D03*
D14*
X98729000Y-130975000D03*
X85802000Y-133515000D03*
%TD*%
D10*
%TO.C,K_MINUS1*%
X89099000Y-66845000D03*
D11*
X91639000Y-61765000D03*
D10*
X95449000Y-64305000D03*
D14*
X98724000Y-64305000D03*
X85797000Y-66845000D03*
%TD*%
D15*
%TO.C,J1*%
X100320000Y-35894000D03*
D16*
X100320000Y-33354000D03*
X100320000Y-30814000D03*
X100320000Y-28274000D03*
%TD*%
D10*
%TO.C,K_PLUS1*%
X95454000Y-92875000D03*
D13*
X99899000Y-102273000D03*
D12*
X84659000Y-78397000D03*
D11*
X91644000Y-90335000D03*
D10*
X89104000Y-95415000D03*
D12*
X84659000Y-102273000D03*
D13*
X99899000Y-78397000D03*
D14*
X98729000Y-92875000D03*
X85802000Y-95415000D03*
%TD*%
D10*
%TO.C,K_THREE1*%
X70049000Y-123995000D03*
D11*
X72589000Y-118915000D03*
D10*
X76399000Y-121455000D03*
D14*
X79674000Y-121455000D03*
X66747000Y-123995000D03*
%TD*%
D10*
%TO.C,K_SEVEN1*%
X31949000Y-85895000D03*
X38299000Y-83355000D03*
D11*
X34489000Y-80815000D03*
D14*
X41574000Y-83355000D03*
X28647000Y-85895000D03*
%TD*%
D11*
%TO.C,K_FOUR1*%
X34489000Y-99865000D03*
D10*
X38299000Y-102405000D03*
X31949000Y-104945000D03*
D14*
X41574000Y-102405000D03*
X28647000Y-104945000D03*
%TD*%
D11*
%TO.C,K_ONE1*%
X34489000Y-118915000D03*
D10*
X38299000Y-121455000D03*
X31949000Y-123995000D03*
D14*
X41574000Y-121455000D03*
X28647000Y-123995000D03*
%TD*%
D10*
%TO.C,K_FIVE1*%
X50999000Y-104945000D03*
D11*
X53539000Y-99865000D03*
D10*
X57349000Y-102405000D03*
D14*
X60624000Y-102405000D03*
X47697000Y-104945000D03*
%TD*%
D17*
%TO.C,U2*%
X45142000Y-90424000D03*
X43942000Y-91624000D03*
X43942000Y-90424000D03*
X45142000Y-89224000D03*
X42742000Y-90424000D03*
X45142000Y-91624000D03*
X42742000Y-91624000D03*
X42742000Y-89224000D03*
X43942000Y-89224000D03*
%TD*%
%TO.C,U3*%
X63119000Y-109347000D03*
X64319000Y-108147000D03*
X64319000Y-109347000D03*
X61919000Y-108147000D03*
X63119000Y-110547000D03*
X63119000Y-108147000D03*
X61919000Y-109347000D03*
X61919000Y-110547000D03*
X64319000Y-110547000D03*
%TD*%
D10*
%TO.C,K_SIX1*%
X76399000Y-102405000D03*
X70049000Y-104945000D03*
D11*
X72589000Y-99865000D03*
D14*
X79674000Y-102405000D03*
X66747000Y-104945000D03*
%TD*%
D10*
%TO.C,K_STAR1*%
X70049000Y-66845000D03*
D11*
X72589000Y-61765000D03*
D10*
X76399000Y-64305000D03*
D14*
X79674000Y-64305000D03*
X66747000Y-66845000D03*
%TD*%
D10*
%TO.C,K_EIGHT1*%
X50999000Y-85895000D03*
X57349000Y-83355000D03*
D11*
X53539000Y-80815000D03*
D14*
X60624000Y-83355000D03*
X47697000Y-85895000D03*
%TD*%
D15*
%TO.C,J2*%
X41926000Y-35894000D03*
D16*
X41926000Y-33354000D03*
X41926000Y-30814000D03*
X41926000Y-28274000D03*
%TD*%
D10*
%TO.C,K_NUMPAD1*%
X38299000Y-64305000D03*
D11*
X34489000Y-61765000D03*
D10*
X31949000Y-66845000D03*
D14*
X41574000Y-64305000D03*
X28647000Y-66845000D03*
%TD*%
D10*
%TO.C,K_NINE1*%
X76399000Y-83355000D03*
X70049000Y-85895000D03*
D11*
X72589000Y-80815000D03*
D14*
X79674000Y-83355000D03*
X66747000Y-85895000D03*
%TD*%
D18*
X25654000Y-41656000D03*
X24638000Y-51054000D03*
X26974000Y-63992000D03*
X24102475Y-50197889D03*
X24892000Y-42926000D03*
X26466000Y-82788000D03*
X83385903Y-87707316D03*
X24130000Y-43942000D03*
X23626452Y-49305347D03*
X83362000Y-97520000D03*
X26466000Y-102092000D03*
X23114000Y-48514000D03*
X23368000Y-44958000D03*
X26466000Y-121396000D03*
X22606000Y-47498000D03*
X83362000Y-126476000D03*
X22606000Y-45974000D03*
X83362000Y-135620000D03*
X36118000Y-140192000D03*
X45770000Y-63992000D03*
X45770000Y-82788000D03*
X45770000Y-102092000D03*
X45770000Y-121396000D03*
X64566000Y-63992000D03*
X64566000Y-82788000D03*
X64566000Y-102092000D03*
X65074000Y-121396000D03*
X64566000Y-140192000D03*
X83870000Y-63992000D03*
X83870000Y-92440000D03*
X83870000Y-130540000D03*
X67310000Y-110998000D03*
X66802000Y-115316000D03*
X57985000Y-109147000D03*
X38862000Y-30988000D03*
X57952430Y-114057618D03*
X38608000Y-40386000D03*
X24384000Y-89408000D03*
X38701299Y-36445054D03*
X25146000Y-58420000D03*
X48641000Y-92075000D03*
X54810000Y-109147000D03*
X38612045Y-34788894D03*
X38354000Y-89916000D03*
X38100000Y-96884520D03*
X48641000Y-97155000D03*
X44720000Y-73644000D03*
X44958000Y-85598000D03*
X44069480Y-85216520D03*
X43434000Y-77216000D03*
X43180000Y-85344000D03*
X42688000Y-75676000D03*
X61468000Y-113030000D03*
X43815000Y-94107000D03*
X68326000Y-107696000D03*
X49276000Y-90932000D03*
X40132000Y-39624000D03*
X50800000Y-88900000D03*
X47371000Y-91440000D03*
X62992000Y-113030000D03*
X42218922Y-94229011D03*
X66675000Y-110363000D03*
X40132000Y-94234000D03*
X40132000Y-99060000D03*
X39370000Y-32766000D03*
X82480000Y-124070000D03*
X63627000Y-114935000D03*
X82346000Y-134604000D03*
X72898000Y-124206000D03*
X39116000Y-81026000D03*
X40602000Y-56680000D03*
X40386000Y-80772000D03*
X41364000Y-58204000D03*
X42126000Y-54648000D03*
X40386000Y-79502000D03*
X68580000Y-75692000D03*
X62484000Y-102870000D03*
X63299292Y-103322320D03*
X69523993Y-76436273D03*
X70497000Y-75045000D03*
X64262000Y-103378000D03*
X81788000Y-85852000D03*
X68326000Y-98298000D03*
X81280000Y-95504000D03*
X68724989Y-94851011D03*
X81788000Y-96520000D03*
X69088000Y-98806000D03*
X69859000Y-95495000D03*
X82296000Y-86868000D03*
X80772000Y-85344000D03*
X70612000Y-94234000D03*
X69850000Y-99568000D03*
X80518000Y-92202000D03*
X56388000Y-87884000D03*
X56642000Y-96266000D03*
X62404000Y-35894000D03*
X72898000Y-108712000D03*
X55177262Y-95724876D03*
X65024000Y-95758000D03*
X48514000Y-90424000D03*
X58783011Y-95648989D03*
X58674000Y-87122000D03*
X61468000Y-81026000D03*
X63246000Y-25400000D03*
X59944000Y-90678000D03*
X72080004Y-107923248D03*
X64719750Y-96805095D03*
X59944000Y-87122000D03*
X61976000Y-80264000D03*
X59944000Y-96774000D03*
X54356000Y-90424000D03*
X49784000Y-89662000D03*
X73787000Y-123825000D03*
X81838000Y-123428000D03*
X64501614Y-113461467D03*
X81584000Y-132826000D03*
X57096345Y-86864569D03*
X57404000Y-93726000D03*
X80822000Y-130540000D03*
X80822000Y-123428000D03*
X62992000Y-130175000D03*
X62992000Y-114046000D03*
X70231000Y-115189000D03*
X70231000Y-112903000D03*
X74726000Y-74660000D03*
X74726000Y-55864000D03*
X59309000Y-110363000D03*
X74726000Y-112760000D03*
X59972227Y-114917341D03*
X74726000Y-131556000D03*
X74726000Y-93456000D03*
X41706000Y-132826000D03*
X36626000Y-112760000D03*
X36741335Y-93416482D03*
X36626000Y-55864000D03*
X37134000Y-74660000D03*
X39779308Y-89488624D03*
X39164446Y-97627280D03*
X55930000Y-74660000D03*
X55930000Y-112760000D03*
X55930000Y-93456000D03*
X55930000Y-55864000D03*
X55930000Y-97232000D03*
X59182000Y-108458000D03*
X59182000Y-115316000D03*
X93522000Y-84820000D03*
X93522000Y-122920000D03*
X94030000Y-56372000D03*
X46101000Y-94742000D03*
X49927000Y-111744000D03*
X50673000Y-115316000D03*
X46990000Y-94742000D03*
X47879000Y-93853000D03*
X51705000Y-113776000D03*
X43434000Y-130810000D03*
X43180000Y-94742000D03*
X44323000Y-94869000D03*
X46482000Y-134620000D03*
X45212000Y-94742000D03*
X47498000Y-133604000D03*
X62230000Y-98552000D03*
X70243000Y-55995000D03*
X61722000Y-99314000D03*
X69351000Y-57395000D03*
X68326000Y-56642000D03*
X61468000Y-100330000D03*
X79248000Y-50800000D03*
X26162000Y-38608000D03*
X37592000Y-50800000D03*
X27178000Y-38608000D03*
X60452000Y-50038000D03*
X38608000Y-50038000D03*
X25146000Y-38608000D03*
X98044000Y-52324000D03*
X36830000Y-51562000D03*
X26416000Y-40894000D03*
M02*
