M48
INCH
T1C0.1181
T2C0.1200
T3C0.1570
T4C0.1575
%
G90
G05
T1
X1.2578Y-2.6317
X1.2578Y-3.3817
X1.2578Y-4.1317
X1.2578Y-4.8817
X1.5078Y-2.5317
X1.5078Y-3.2817
X1.5078Y-4.0317
X1.5078Y-4.7817
X1.633Y-5.6315
X1.883Y-5.5315
X2.0078Y-2.6317
X2.0078Y-3.3817
X2.0078Y-4.1317
X2.0078Y-4.8817
X2.2578Y-2.5317
X2.2578Y-3.2817
X2.2578Y-4.0317
X2.2578Y-4.7817
X2.7578Y-2.6317
X2.7578Y-3.3817
X2.7578Y-4.1317
X2.7578Y-4.8817
X2.7578Y-5.6317
X3.0078Y-2.5317
X3.0078Y-3.2817
X3.0078Y-4.0317
X3.0078Y-4.7817
X3.0078Y-5.5317
X3.5078Y-2.6317
X3.508Y-3.7565
X3.508Y-5.2565
X3.7578Y-2.5317
X3.758Y-3.6565
X3.758Y-5.1565
T2
X1.263Y-5.1565
X2.203Y-5.1565
X3.333Y-3.0865
X3.333Y-4.0265
X3.333Y-4.5865
X3.333Y-5.5265
T3
X1.263Y-5.7565
X2.203Y-5.7565
X3.933Y-3.0865
X3.933Y-4.0265
X3.933Y-4.5865
X3.933Y-5.5265
T4
X1.3578Y-2.4317
X1.3578Y-3.1817
X1.3578Y-3.9317
X1.3578Y-4.6817
X1.733Y-5.4315
X2.1078Y-2.4317
X2.1078Y-3.1817
X2.1078Y-3.9317
X2.1078Y-4.6817
X2.8578Y-2.4317
X2.8578Y-3.1817
X2.8578Y-3.9317
X2.8578Y-4.6817
X2.8578Y-5.4317
X3.6078Y-2.4317
X3.608Y-3.5565
X3.608Y-5.0565
T0
M30
