G04 #@! TF.GenerationSoftware,KiCad,Pcbnew,(6.0.5)*
G04 #@! TF.CreationDate,2022-06-21T22:28:43+02:00*
G04 #@! TF.ProjectId,Numpad,4e756d70-6164-42e6-9b69-6361645f7063,rev?*
G04 #@! TF.SameCoordinates,Original*
G04 #@! TF.FileFunction,Legend,Top*
G04 #@! TF.FilePolarity,Positive*
%FSLAX46Y46*%
G04 Gerber Fmt 4.6, Leading zero omitted, Abs format (unit mm)*
G04 Created by KiCad (PCBNEW (6.0.5)) date 2022-06-21 22:28:43*
%MOMM*%
%LPD*%
G01*
G04 APERTURE LIST*
G04 Aperture macros list*
%AMRoundRect*
0 Rectangle with rounded corners*
0 $1 Rounding radius*
0 $2 $3 $4 $5 $6 $7 $8 $9 X,Y pos of 4 corners*
0 Add a 4 corners polygon primitive as box body*
4,1,4,$2,$3,$4,$5,$6,$7,$8,$9,$2,$3,0*
0 Add four circle primitives for the rounded corners*
1,1,$1+$1,$2,$3*
1,1,$1+$1,$4,$5*
1,1,$1+$1,$6,$7*
1,1,$1+$1,$8,$9*
0 Add four rect primitives between the rounded corners*
20,1,$1+$1,$2,$3,$4,$5,0*
20,1,$1+$1,$4,$5,$6,$7,0*
20,1,$1+$1,$6,$7,$8,$9,0*
20,1,$1+$1,$8,$9,$2,$3,0*%
G04 Aperture macros list end*
%ADD10C,0.150000*%
%ADD11C,0.120000*%
%ADD12C,0.127000*%
%ADD13C,0.200000*%
%ADD14R,0.700000X0.600000*%
%ADD15C,3.000000*%
%ADD16C,4.000000*%
%ADD17C,3.048000*%
%ADD18C,3.987800*%
%ADD19R,0.650000X0.600000*%
%ADD20RoundRect,0.135000X-0.135000X-0.185000X0.135000X-0.185000X0.135000X0.185000X-0.135000X0.185000X0*%
%ADD21RoundRect,0.135000X0.135000X0.185000X-0.135000X0.185000X-0.135000X-0.185000X0.135000X-0.185000X0*%
%ADD22RoundRect,0.008100X-0.126900X0.421900X-0.126900X-0.421900X0.126900X-0.421900X0.126900X0.421900X0*%
%ADD23RoundRect,0.008100X-0.421900X-0.126900X0.421900X-0.126900X0.421900X0.126900X-0.421900X0.126900X0*%
%ADD24R,4.100000X4.100000*%
%ADD25R,1.700000X1.700000*%
%ADD26O,1.700000X1.700000*%
%ADD27RoundRect,0.140000X-0.140000X-0.170000X0.140000X-0.170000X0.140000X0.170000X-0.140000X0.170000X0*%
%ADD28RoundRect,0.062500X-0.350000X-0.062500X0.350000X-0.062500X0.350000X0.062500X-0.350000X0.062500X0*%
%ADD29RoundRect,0.062500X-0.062500X-0.350000X0.062500X-0.350000X0.062500X0.350000X-0.062500X0.350000X0*%
%ADD30RoundRect,0.242500X-0.242500X-0.242500X0.242500X-0.242500X0.242500X0.242500X-0.242500X0.242500X0*%
%ADD31RoundRect,0.140000X0.140000X0.170000X-0.140000X0.170000X-0.140000X-0.170000X0.140000X-0.170000X0*%
G04 APERTURE END LIST*
D10*
X43971380Y-146302380D02*
X44066619Y-146302380D01*
X44161857Y-146350000D01*
X44209476Y-146397619D01*
X44257095Y-146492857D01*
X44304714Y-146683333D01*
X44304714Y-146921428D01*
X44257095Y-147111904D01*
X44209476Y-147207142D01*
X44161857Y-147254761D01*
X44066619Y-147302380D01*
X43971380Y-147302380D01*
X43876142Y-147254761D01*
X43828523Y-147207142D01*
X43780904Y-147111904D01*
X43733285Y-146921428D01*
X43733285Y-146683333D01*
X43780904Y-146492857D01*
X43828523Y-146397619D01*
X43876142Y-146350000D01*
X43971380Y-146302380D01*
X36216380Y-35989904D02*
X37025904Y-35989904D01*
X37121142Y-35942285D01*
X37168761Y-35894666D01*
X37216380Y-35799428D01*
X37216380Y-35608952D01*
X37168761Y-35513714D01*
X37121142Y-35466095D01*
X37025904Y-35418476D01*
X36216380Y-35418476D01*
X37216380Y-34418476D02*
X37216380Y-34989904D01*
X37216380Y-34704190D02*
X36216380Y-34704190D01*
X36359238Y-34799428D01*
X36454476Y-34894666D01*
X36502095Y-34989904D01*
X53258285Y-127347619D02*
X53305904Y-127300000D01*
X53401142Y-127252380D01*
X53639238Y-127252380D01*
X53734476Y-127300000D01*
X53782095Y-127347619D01*
X53829714Y-127442857D01*
X53829714Y-127538095D01*
X53782095Y-127680952D01*
X53210666Y-128252380D01*
X53829714Y-128252380D01*
X72594000Y-147207142D02*
X72641619Y-147254761D01*
X72594000Y-147302380D01*
X72546380Y-147254761D01*
X72594000Y-147207142D01*
X72594000Y-147302380D01*
X53972571Y-70054761D02*
X53115428Y-71340476D01*
X100462571Y-130506428D02*
X100462571Y-130173095D01*
X100986380Y-130030238D02*
X100986380Y-130506428D01*
X99986380Y-130506428D01*
X99986380Y-130030238D01*
X100986380Y-129601666D02*
X99986380Y-129601666D01*
X100986380Y-129030238D01*
X99986380Y-129030238D01*
X99986380Y-128696904D02*
X99986380Y-128125476D01*
X100986380Y-128411190D02*
X99986380Y-128411190D01*
X100462571Y-127792142D02*
X100462571Y-127458809D01*
X100986380Y-127315952D02*
X100986380Y-127792142D01*
X99986380Y-127792142D01*
X99986380Y-127315952D01*
X100986380Y-126315952D02*
X100510190Y-126649285D01*
X100986380Y-126887380D02*
X99986380Y-126887380D01*
X99986380Y-126506428D01*
X100034000Y-126411190D01*
X100081619Y-126363571D01*
X100176857Y-126315952D01*
X100319714Y-126315952D01*
X100414952Y-126363571D01*
X100462571Y-126411190D01*
X100510190Y-126506428D01*
X100510190Y-126887380D01*
X91263047Y-70721428D02*
X92024952Y-70721428D01*
X99986666Y-37676380D02*
X99986666Y-38390666D01*
X99939047Y-38533523D01*
X99843809Y-38628761D01*
X99700952Y-38676380D01*
X99605714Y-38676380D01*
X100986666Y-38676380D02*
X100415238Y-38676380D01*
X100700952Y-38676380D02*
X100700952Y-37676380D01*
X100605714Y-37819238D01*
X100510476Y-37914476D01*
X100415238Y-37962095D01*
X100605428Y-90715952D02*
X100605428Y-89954047D01*
X100986380Y-90335000D02*
X100224476Y-90335000D01*
X72260666Y-127252380D02*
X72879714Y-127252380D01*
X72546380Y-127633333D01*
X72689238Y-127633333D01*
X72784476Y-127680952D01*
X72832095Y-127728571D01*
X72879714Y-127823809D01*
X72879714Y-128061904D01*
X72832095Y-128157142D01*
X72784476Y-128204761D01*
X72689238Y-128252380D01*
X72403523Y-128252380D01*
X72308285Y-128204761D01*
X72260666Y-128157142D01*
X34160666Y-89152380D02*
X34827333Y-89152380D01*
X34398761Y-90152380D01*
X34684476Y-108535714D02*
X34684476Y-109202380D01*
X34446380Y-108154761D02*
X34208285Y-108869047D01*
X34827333Y-108869047D01*
X34779714Y-128252380D02*
X34208285Y-128252380D01*
X34494000Y-128252380D02*
X34494000Y-127252380D01*
X34398761Y-127395238D01*
X34303523Y-127490476D01*
X34208285Y-127538095D01*
X53782095Y-108202380D02*
X53305904Y-108202380D01*
X53258285Y-108678571D01*
X53305904Y-108630952D01*
X53401142Y-108583333D01*
X53639238Y-108583333D01*
X53734476Y-108630952D01*
X53782095Y-108678571D01*
X53829714Y-108773809D01*
X53829714Y-109011904D01*
X53782095Y-109107142D01*
X53734476Y-109154761D01*
X53639238Y-109202380D01*
X53401142Y-109202380D01*
X53305904Y-109154761D01*
X53258285Y-109107142D01*
X72784476Y-108202380D02*
X72594000Y-108202380D01*
X72498761Y-108250000D01*
X72451142Y-108297619D01*
X72355904Y-108440476D01*
X72308285Y-108630952D01*
X72308285Y-109011904D01*
X72355904Y-109107142D01*
X72403523Y-109154761D01*
X72498761Y-109202380D01*
X72689238Y-109202380D01*
X72784476Y-109154761D01*
X72832095Y-109107142D01*
X72879714Y-109011904D01*
X72879714Y-108773809D01*
X72832095Y-108678571D01*
X72784476Y-108630952D01*
X72689238Y-108583333D01*
X72498761Y-108583333D01*
X72403523Y-108630952D01*
X72355904Y-108678571D01*
X72308285Y-108773809D01*
X72594000Y-70102380D02*
X72594000Y-70340476D01*
X72355904Y-70245238D02*
X72594000Y-70340476D01*
X72832095Y-70245238D01*
X72451142Y-70530952D02*
X72594000Y-70340476D01*
X72736857Y-70530952D01*
X49777089Y-91282952D02*
X49681851Y-91235333D01*
X49634232Y-91187714D01*
X49586613Y-91092476D01*
X49586613Y-91044857D01*
X49634232Y-90949619D01*
X49681851Y-90902000D01*
X49777089Y-90854380D01*
X49967566Y-90854380D01*
X50062804Y-90902000D01*
X50110423Y-90949619D01*
X50158042Y-91044857D01*
X50158042Y-91092476D01*
X50110423Y-91187714D01*
X50062804Y-91235333D01*
X49967566Y-91282952D01*
X49777089Y-91282952D01*
X49681851Y-91330571D01*
X49634232Y-91378190D01*
X49586613Y-91473428D01*
X49586613Y-91663904D01*
X49634232Y-91759142D01*
X49681851Y-91806761D01*
X49777089Y-91854380D01*
X49967566Y-91854380D01*
X50062804Y-91806761D01*
X50110423Y-91759142D01*
X50158042Y-91663904D01*
X50158042Y-91473428D01*
X50110423Y-91378190D01*
X50062804Y-91330571D01*
X49967566Y-91282952D01*
X41592666Y-37676380D02*
X41592666Y-38390666D01*
X41545047Y-38533523D01*
X41449809Y-38628761D01*
X41306952Y-38676380D01*
X41211714Y-38676380D01*
X42021238Y-37771619D02*
X42068857Y-37724000D01*
X42164095Y-37676380D01*
X42402190Y-37676380D01*
X42497428Y-37724000D01*
X42545047Y-37771619D01*
X42592666Y-37866857D01*
X42592666Y-37962095D01*
X42545047Y-38104952D01*
X41973619Y-38676380D01*
X42592666Y-38676380D01*
X31684476Y-71102380D02*
X31684476Y-70102380D01*
X32255904Y-71102380D01*
X32255904Y-70102380D01*
X32732095Y-70102380D02*
X32732095Y-70911904D01*
X32779714Y-71007142D01*
X32827333Y-71054761D01*
X32922571Y-71102380D01*
X33113047Y-71102380D01*
X33208285Y-71054761D01*
X33255904Y-71007142D01*
X33303523Y-70911904D01*
X33303523Y-70102380D01*
X33779714Y-71102380D02*
X33779714Y-70102380D01*
X34113047Y-70816666D01*
X34446380Y-70102380D01*
X34446380Y-71102380D01*
X34922571Y-71102380D02*
X34922571Y-70102380D01*
X35303523Y-70102380D01*
X35398761Y-70150000D01*
X35446380Y-70197619D01*
X35494000Y-70292857D01*
X35494000Y-70435714D01*
X35446380Y-70530952D01*
X35398761Y-70578571D01*
X35303523Y-70626190D01*
X34922571Y-70626190D01*
X35874952Y-70816666D02*
X36351142Y-70816666D01*
X35779714Y-71102380D02*
X36113047Y-70102380D01*
X36446380Y-71102380D01*
X36779714Y-71102380D02*
X36779714Y-70102380D01*
X37017809Y-70102380D01*
X37160666Y-70150000D01*
X37255904Y-70245238D01*
X37303523Y-70340476D01*
X37351142Y-70530952D01*
X37351142Y-70673809D01*
X37303523Y-70864285D01*
X37255904Y-70959523D01*
X37160666Y-71054761D01*
X37017809Y-71102380D01*
X36779714Y-71102380D01*
X72403523Y-90152380D02*
X72594000Y-90152380D01*
X72689238Y-90104761D01*
X72736857Y-90057142D01*
X72832095Y-89914285D01*
X72879714Y-89723809D01*
X72879714Y-89342857D01*
X72832095Y-89247619D01*
X72784476Y-89200000D01*
X72689238Y-89152380D01*
X72498761Y-89152380D01*
X72403523Y-89200000D01*
X72355904Y-89247619D01*
X72308285Y-89342857D01*
X72308285Y-89580952D01*
X72355904Y-89676190D01*
X72403523Y-89723809D01*
X72498761Y-89771428D01*
X72689238Y-89771428D01*
X72784476Y-89723809D01*
X72832095Y-89676190D01*
X72879714Y-89580952D01*
D11*
X25489000Y-62460000D02*
X25489000Y-60610000D01*
X26689000Y-62460000D02*
X26689000Y-60610000D01*
X26689000Y-60610000D02*
X25489000Y-60610000D01*
X44539000Y-100560000D02*
X44539000Y-98710000D01*
X45739000Y-100560000D02*
X45739000Y-98710000D01*
X45739000Y-98710000D02*
X44539000Y-98710000D01*
X25489000Y-81510000D02*
X25489000Y-79660000D01*
X26689000Y-81510000D02*
X26689000Y-79660000D01*
X26689000Y-79660000D02*
X25489000Y-79660000D01*
X63589000Y-100560000D02*
X63589000Y-98710000D01*
X64789000Y-100560000D02*
X64789000Y-98710000D01*
X64789000Y-98710000D02*
X63589000Y-98710000D01*
X63589000Y-62460000D02*
X63589000Y-60610000D01*
X64789000Y-62460000D02*
X64789000Y-60610000D01*
X64789000Y-60610000D02*
X63589000Y-60610000D01*
X82639000Y-129135000D02*
X82639000Y-127285000D01*
X83839000Y-129135000D02*
X83839000Y-127285000D01*
X83839000Y-127285000D02*
X82639000Y-127285000D01*
X82639000Y-91035000D02*
X82639000Y-89185000D01*
X83839000Y-91035000D02*
X83839000Y-89185000D01*
X83839000Y-89185000D02*
X82639000Y-89185000D01*
X44539000Y-119610000D02*
X44539000Y-117760000D01*
X45739000Y-119610000D02*
X45739000Y-117760000D01*
X45739000Y-117760000D02*
X44539000Y-117760000D01*
X35014000Y-138660000D02*
X35014000Y-136810000D01*
X36214000Y-138660000D02*
X36214000Y-136810000D01*
X36214000Y-136810000D02*
X35014000Y-136810000D01*
X63589000Y-119610000D02*
X63589000Y-117760000D01*
X64789000Y-119610000D02*
X64789000Y-117760000D01*
X64789000Y-117760000D02*
X63589000Y-117760000D01*
X25489000Y-119610000D02*
X25489000Y-117760000D01*
X26689000Y-119610000D02*
X26689000Y-117760000D01*
X26689000Y-117760000D02*
X25489000Y-117760000D01*
X63589000Y-81510000D02*
X63589000Y-79660000D01*
X64789000Y-81510000D02*
X64789000Y-79660000D01*
X64789000Y-79660000D02*
X63589000Y-79660000D01*
X44539000Y-62460000D02*
X44539000Y-60610000D01*
X45739000Y-62460000D02*
X45739000Y-60610000D01*
X45739000Y-60610000D02*
X44539000Y-60610000D01*
X82639000Y-62460000D02*
X82639000Y-60610000D01*
X83839000Y-62460000D02*
X83839000Y-60610000D01*
X83839000Y-60610000D02*
X82639000Y-60610000D01*
X25489000Y-100560000D02*
X25489000Y-98710000D01*
X26689000Y-100560000D02*
X26689000Y-98710000D01*
X26689000Y-98710000D02*
X25489000Y-98710000D01*
X63589000Y-138660000D02*
X63589000Y-136810000D01*
X64789000Y-138660000D02*
X64789000Y-136810000D01*
X64789000Y-136810000D02*
X63589000Y-136810000D01*
X44539000Y-81510000D02*
X44539000Y-79660000D01*
X45739000Y-81510000D02*
X45739000Y-79660000D01*
X45739000Y-79660000D02*
X44539000Y-79660000D01*
D10*
X48994000Y-128960000D02*
X62544000Y-128960000D01*
D11*
X45264000Y-133520000D02*
X42764000Y-133520000D01*
D10*
X48994000Y-146960000D02*
X62544000Y-146960000D01*
X25494000Y-128960000D02*
X25494000Y-133460000D01*
X25494000Y-146960000D02*
X39044000Y-146960000D01*
X37019000Y-144960000D02*
X37019000Y-130960000D01*
X37019000Y-130960000D02*
X51019000Y-130960000D01*
X25494000Y-142460000D02*
X25494000Y-146960000D01*
X62544000Y-133460000D02*
X62544000Y-128960000D01*
X51019000Y-130960000D02*
X51019000Y-144960000D01*
X51019000Y-144960000D02*
X37019000Y-144960000D01*
D11*
X45264000Y-132270000D02*
X42764000Y-132270000D01*
X42764000Y-132270000D02*
X42764000Y-133520000D01*
X45264000Y-133520000D02*
X45264000Y-132270000D01*
D10*
X25494000Y-128960000D02*
X39044000Y-128960000D01*
X62544000Y-142460000D02*
X62544000Y-146960000D01*
D11*
X73394000Y-95595000D02*
X71794000Y-95595000D01*
X71794000Y-93995000D02*
X73394000Y-93995000D01*
X73394000Y-95595000D02*
X73394000Y-93995000D01*
X73394000Y-93995000D02*
X73394000Y-95595000D01*
X71794000Y-95595000D02*
X71794000Y-93995000D01*
X36930359Y-30606000D02*
X37237641Y-30606000D01*
X36930359Y-29846000D02*
X37237641Y-29846000D01*
X37237641Y-33148000D02*
X36930359Y-33148000D01*
X37237641Y-33908000D02*
X36930359Y-33908000D01*
D12*
X34564000Y-32913000D02*
X34564000Y-33258000D01*
X34564000Y-39013000D02*
X34564000Y-38668000D01*
X28464000Y-39013000D02*
X28464000Y-38668000D01*
X34564000Y-39013000D02*
X34219000Y-39013000D01*
X28464000Y-32913000D02*
X28809000Y-32913000D01*
X28464000Y-39013000D02*
X28809000Y-39013000D01*
X34564000Y-32913000D02*
X34219000Y-32913000D01*
X28464000Y-32913000D02*
X28464000Y-33258000D01*
D13*
X33864000Y-31968000D02*
G75*
G03*
X33864000Y-31968000I-100000J0D01*
G01*
D11*
X67971641Y-106554000D02*
X67664359Y-106554000D01*
X67971641Y-107314000D02*
X67664359Y-107314000D01*
D10*
X46539000Y-125915000D02*
X46539000Y-111915000D01*
D11*
X52289000Y-113220000D02*
X52289000Y-114470000D01*
D10*
X46539000Y-111915000D02*
X60539000Y-111915000D01*
X44544000Y-109910000D02*
X44544000Y-114410000D01*
X44544000Y-123410000D02*
X44544000Y-127910000D01*
X44544000Y-109910000D02*
X48544000Y-109910000D01*
X62544000Y-109910000D02*
X58544000Y-109910000D01*
D11*
X54789000Y-114470000D02*
X52289000Y-114470000D01*
D10*
X60539000Y-111915000D02*
X60539000Y-125915000D01*
X60539000Y-125915000D02*
X46539000Y-125915000D01*
D11*
X54789000Y-114470000D02*
X54789000Y-113220000D01*
D10*
X58544000Y-127910000D02*
X62544000Y-127910000D01*
X44544000Y-127910000D02*
X48544000Y-127910000D01*
X62544000Y-114410000D02*
X62544000Y-109910000D01*
D11*
X54789000Y-113220000D02*
X52289000Y-113220000D01*
D10*
X62544000Y-123410000D02*
X62544000Y-127910000D01*
D11*
X73839000Y-132270000D02*
X71339000Y-132270000D01*
X73839000Y-133520000D02*
X71339000Y-133520000D01*
D10*
X63594000Y-142460000D02*
X63594000Y-146960000D01*
D11*
X71339000Y-132270000D02*
X71339000Y-133520000D01*
D10*
X81594000Y-128960000D02*
X77594000Y-128960000D01*
X63594000Y-146960000D02*
X67594000Y-146960000D01*
X65589000Y-144965000D02*
X65589000Y-130965000D01*
X79589000Y-144965000D02*
X65589000Y-144965000D01*
X63594000Y-128960000D02*
X63594000Y-133460000D01*
X65589000Y-130965000D02*
X79589000Y-130965000D01*
D11*
X73839000Y-133520000D02*
X73839000Y-132270000D01*
D10*
X79589000Y-130965000D02*
X79589000Y-144965000D01*
X81594000Y-133460000D02*
X81594000Y-128960000D01*
X77594000Y-146960000D02*
X81594000Y-146960000D01*
X63594000Y-128960000D02*
X67594000Y-128960000D01*
X81594000Y-142460000D02*
X81594000Y-146960000D01*
D11*
X73394000Y-55895000D02*
X73394000Y-57495000D01*
X73394000Y-57495000D02*
X73394000Y-55895000D01*
X73394000Y-57495000D02*
X71794000Y-57495000D01*
X71794000Y-57495000D02*
X71794000Y-55895000D01*
X71794000Y-55895000D02*
X73394000Y-55895000D01*
X35294000Y-113045000D02*
X35294000Y-114645000D01*
X35294000Y-114645000D02*
X33694000Y-114645000D01*
X33694000Y-114645000D02*
X33694000Y-113045000D01*
X33694000Y-113045000D02*
X35294000Y-113045000D01*
X35294000Y-114645000D02*
X35294000Y-113045000D01*
X52289000Y-56070000D02*
X52289000Y-57320000D01*
D10*
X44544000Y-52760000D02*
X44544000Y-57260000D01*
D11*
X54789000Y-56070000D02*
X52289000Y-56070000D01*
D10*
X62544000Y-66260000D02*
X62544000Y-70760000D01*
X60539000Y-68765000D02*
X46539000Y-68765000D01*
X62544000Y-57260000D02*
X62544000Y-52760000D01*
X44544000Y-70760000D02*
X48544000Y-70760000D01*
X62544000Y-52760000D02*
X58544000Y-52760000D01*
X58544000Y-70760000D02*
X62544000Y-70760000D01*
X60539000Y-54765000D02*
X60539000Y-68765000D01*
X44544000Y-52760000D02*
X48544000Y-52760000D01*
X46539000Y-68765000D02*
X46539000Y-54765000D01*
D11*
X54789000Y-57320000D02*
X54789000Y-56070000D01*
X54789000Y-57320000D02*
X52289000Y-57320000D01*
D10*
X46539000Y-54765000D02*
X60539000Y-54765000D01*
X44544000Y-66260000D02*
X44544000Y-70760000D01*
D11*
X54344000Y-57495000D02*
X54344000Y-55895000D01*
X54344000Y-55895000D02*
X54344000Y-57495000D01*
X52744000Y-55895000D02*
X54344000Y-55895000D01*
X54344000Y-57495000D02*
X52744000Y-57495000D01*
X52744000Y-57495000D02*
X52744000Y-55895000D01*
D10*
X84644000Y-135435000D02*
X84644000Y-121435000D01*
X82644000Y-123460000D02*
X82644000Y-109910000D01*
X87144000Y-109910000D02*
X82644000Y-109910000D01*
X96144000Y-146960000D02*
X100644000Y-146960000D01*
D11*
X90389000Y-122745000D02*
X90389000Y-123995000D01*
D10*
X98644000Y-121435000D02*
X98644000Y-135435000D01*
X82644000Y-146960000D02*
X87144000Y-146960000D01*
X82644000Y-146960000D02*
X82644000Y-133410000D01*
X96144000Y-109910000D02*
X100644000Y-109910000D01*
X100644000Y-146960000D02*
X100644000Y-133410000D01*
X84644000Y-121435000D02*
X98644000Y-121435000D01*
X98644000Y-135435000D02*
X84644000Y-135435000D01*
D11*
X92889000Y-123995000D02*
X92889000Y-122745000D01*
X92889000Y-123995000D02*
X90389000Y-123995000D01*
X92889000Y-122745000D02*
X90389000Y-122745000D01*
D10*
X100644000Y-123460000D02*
X100644000Y-109910000D01*
D11*
X35294000Y-93995000D02*
X35294000Y-95595000D01*
X35294000Y-95595000D02*
X33694000Y-95595000D01*
X33694000Y-95595000D02*
X33694000Y-93995000D01*
X35294000Y-95595000D02*
X35294000Y-93995000D01*
X33694000Y-93995000D02*
X35294000Y-93995000D01*
X73394000Y-113045000D02*
X73394000Y-114645000D01*
X71794000Y-114645000D02*
X71794000Y-113045000D01*
X71794000Y-113045000D02*
X73394000Y-113045000D01*
X73394000Y-114645000D02*
X71794000Y-114645000D01*
X73394000Y-114645000D02*
X73394000Y-113045000D01*
X48667641Y-89280000D02*
X48360359Y-89280000D01*
X48667641Y-88520000D02*
X48360359Y-88520000D01*
X52744000Y-76545000D02*
X52744000Y-74945000D01*
X54344000Y-76545000D02*
X52744000Y-76545000D01*
X54344000Y-76545000D02*
X54344000Y-74945000D01*
X52744000Y-74945000D02*
X54344000Y-74945000D01*
X54344000Y-74945000D02*
X54344000Y-76545000D01*
X92889000Y-56070000D02*
X90389000Y-56070000D01*
X90389000Y-56070000D02*
X90389000Y-57320000D01*
D10*
X82644000Y-70760000D02*
X86644000Y-70760000D01*
X84639000Y-68765000D02*
X84639000Y-54765000D01*
X100644000Y-57260000D02*
X100644000Y-52760000D01*
X96644000Y-70760000D02*
X100644000Y-70760000D01*
D11*
X92889000Y-57320000D02*
X90389000Y-57320000D01*
D10*
X82644000Y-52760000D02*
X82644000Y-57260000D01*
X98639000Y-54765000D02*
X98639000Y-68765000D01*
X84639000Y-54765000D02*
X98639000Y-54765000D01*
X82644000Y-52760000D02*
X86644000Y-52760000D01*
X98639000Y-68765000D02*
X84639000Y-68765000D01*
X100644000Y-52760000D02*
X96644000Y-52760000D01*
D11*
X92889000Y-57320000D02*
X92889000Y-56070000D01*
D10*
X82644000Y-66260000D02*
X82644000Y-70760000D01*
X100644000Y-66260000D02*
X100644000Y-70760000D01*
D11*
X44819000Y-132095000D02*
X44819000Y-133695000D01*
X43219000Y-133695000D02*
X43219000Y-132095000D01*
X43219000Y-132095000D02*
X44819000Y-132095000D01*
X44819000Y-133695000D02*
X43219000Y-133695000D01*
X44819000Y-133695000D02*
X44819000Y-132095000D01*
X101650000Y-37224000D02*
X100320000Y-37224000D01*
X98990000Y-34624000D02*
X98990000Y-26944000D01*
X101650000Y-35894000D02*
X101650000Y-37224000D01*
X101650000Y-26944000D02*
X98990000Y-26944000D01*
X101650000Y-34624000D02*
X101650000Y-26944000D01*
X101650000Y-34624000D02*
X98990000Y-34624000D01*
X90844000Y-124170000D02*
X90844000Y-122570000D01*
X92444000Y-124170000D02*
X90844000Y-124170000D01*
X92444000Y-124170000D02*
X92444000Y-122570000D01*
X92444000Y-122570000D02*
X92444000Y-124170000D01*
X90844000Y-122570000D02*
X92444000Y-122570000D01*
X52744000Y-113045000D02*
X54344000Y-113045000D01*
X54344000Y-113045000D02*
X54344000Y-114645000D01*
X54344000Y-114645000D02*
X54344000Y-113045000D01*
X54344000Y-114645000D02*
X52744000Y-114645000D01*
X52744000Y-114645000D02*
X52744000Y-113045000D01*
D10*
X84644000Y-97335000D02*
X84644000Y-83335000D01*
X82644000Y-85360000D02*
X82644000Y-71810000D01*
X96144000Y-71810000D02*
X100644000Y-71810000D01*
X82644000Y-108860000D02*
X82644000Y-95310000D01*
X98644000Y-97335000D02*
X84644000Y-97335000D01*
X82644000Y-108860000D02*
X87144000Y-108860000D01*
D11*
X92889000Y-85895000D02*
X90389000Y-85895000D01*
D10*
X100644000Y-108860000D02*
X100644000Y-95310000D01*
D11*
X92889000Y-84645000D02*
X90389000Y-84645000D01*
X92889000Y-85895000D02*
X92889000Y-84645000D01*
D10*
X98644000Y-83335000D02*
X98644000Y-97335000D01*
X96144000Y-108860000D02*
X100644000Y-108860000D01*
X87144000Y-71810000D02*
X82644000Y-71810000D01*
X100644000Y-85360000D02*
X100644000Y-71810000D01*
X84644000Y-83335000D02*
X98644000Y-83335000D01*
D11*
X90389000Y-84645000D02*
X90389000Y-85895000D01*
X33694000Y-76545000D02*
X33694000Y-74945000D01*
X35294000Y-74945000D02*
X35294000Y-76545000D01*
X35294000Y-76545000D02*
X35294000Y-74945000D01*
X35294000Y-76545000D02*
X33694000Y-76545000D01*
X33694000Y-74945000D02*
X35294000Y-74945000D01*
D10*
X77594000Y-127910000D02*
X81594000Y-127910000D01*
X79589000Y-125915000D02*
X65589000Y-125915000D01*
X63594000Y-127910000D02*
X67594000Y-127910000D01*
X79589000Y-111915000D02*
X79589000Y-125915000D01*
X81594000Y-109910000D02*
X77594000Y-109910000D01*
D11*
X73839000Y-114470000D02*
X71339000Y-114470000D01*
D10*
X63594000Y-123410000D02*
X63594000Y-127910000D01*
X81594000Y-114410000D02*
X81594000Y-109910000D01*
X65589000Y-125915000D02*
X65589000Y-111915000D01*
X65589000Y-111915000D02*
X79589000Y-111915000D01*
D11*
X73839000Y-114470000D02*
X73839000Y-113220000D01*
D10*
X81594000Y-123410000D02*
X81594000Y-127910000D01*
D11*
X71339000Y-113220000D02*
X71339000Y-114470000D01*
D10*
X63594000Y-109910000D02*
X67594000Y-109910000D01*
D11*
X73839000Y-113220000D02*
X71339000Y-113220000D01*
D10*
X63594000Y-109910000D02*
X63594000Y-114410000D01*
D11*
X35739000Y-76370000D02*
X35739000Y-75120000D01*
D10*
X27489000Y-87815000D02*
X27489000Y-73815000D01*
X39494000Y-89810000D02*
X43494000Y-89810000D01*
X43494000Y-71810000D02*
X39494000Y-71810000D01*
X25494000Y-85310000D02*
X25494000Y-89810000D01*
X27489000Y-73815000D02*
X41489000Y-73815000D01*
D11*
X35739000Y-75120000D02*
X33239000Y-75120000D01*
D10*
X43494000Y-76310000D02*
X43494000Y-71810000D01*
X25494000Y-89810000D02*
X29494000Y-89810000D01*
X43494000Y-85310000D02*
X43494000Y-89810000D01*
D11*
X35739000Y-76370000D02*
X33239000Y-76370000D01*
D10*
X25494000Y-71810000D02*
X25494000Y-76310000D01*
X25494000Y-71810000D02*
X29494000Y-71810000D01*
D11*
X33239000Y-75120000D02*
X33239000Y-76370000D01*
D10*
X41489000Y-73815000D02*
X41489000Y-87815000D01*
X41489000Y-87815000D02*
X27489000Y-87815000D01*
D11*
X73394000Y-133695000D02*
X73394000Y-132095000D01*
X71794000Y-133695000D02*
X71794000Y-132095000D01*
X71794000Y-132095000D02*
X73394000Y-132095000D01*
X73394000Y-132095000D02*
X73394000Y-133695000D01*
X73394000Y-133695000D02*
X71794000Y-133695000D01*
X92444000Y-55895000D02*
X92444000Y-57495000D01*
X90844000Y-57495000D02*
X90844000Y-55895000D01*
X92444000Y-57495000D02*
X92444000Y-55895000D01*
X92444000Y-57495000D02*
X90844000Y-57495000D01*
X90844000Y-55895000D02*
X92444000Y-55895000D01*
X35294000Y-55895000D02*
X35294000Y-57495000D01*
X35294000Y-57495000D02*
X33694000Y-57495000D01*
X33694000Y-55895000D02*
X35294000Y-55895000D01*
X33694000Y-57495000D02*
X33694000Y-55895000D01*
X35294000Y-57495000D02*
X35294000Y-55895000D01*
D10*
X25494000Y-90860000D02*
X29494000Y-90860000D01*
X43494000Y-90860000D02*
X39494000Y-90860000D01*
X43494000Y-95360000D02*
X43494000Y-90860000D01*
X25494000Y-90860000D02*
X25494000Y-95360000D01*
X27489000Y-106865000D02*
X27489000Y-92865000D01*
D11*
X35739000Y-94170000D02*
X33239000Y-94170000D01*
X33239000Y-94170000D02*
X33239000Y-95420000D01*
D10*
X25494000Y-108860000D02*
X29494000Y-108860000D01*
X25494000Y-104360000D02*
X25494000Y-108860000D01*
X43494000Y-104360000D02*
X43494000Y-108860000D01*
X41489000Y-106865000D02*
X27489000Y-106865000D01*
D11*
X35739000Y-95420000D02*
X33239000Y-95420000D01*
D10*
X41489000Y-92865000D02*
X41489000Y-106865000D01*
X39494000Y-108860000D02*
X43494000Y-108860000D01*
D11*
X35739000Y-95420000D02*
X35739000Y-94170000D01*
D10*
X27489000Y-92865000D02*
X41489000Y-92865000D01*
D11*
X36930359Y-29336000D02*
X37237641Y-29336000D01*
X36930359Y-28576000D02*
X37237641Y-28576000D01*
X37237641Y-31116000D02*
X36930359Y-31116000D01*
X37237641Y-31876000D02*
X36930359Y-31876000D01*
D10*
X25494000Y-123410000D02*
X25494000Y-127910000D01*
X41489000Y-125915000D02*
X27489000Y-125915000D01*
X43494000Y-109910000D02*
X39494000Y-109910000D01*
D11*
X35739000Y-113220000D02*
X33239000Y-113220000D01*
X33239000Y-113220000D02*
X33239000Y-114470000D01*
D10*
X25494000Y-127910000D02*
X29494000Y-127910000D01*
X43494000Y-123410000D02*
X43494000Y-127910000D01*
D11*
X35739000Y-114470000D02*
X35739000Y-113220000D01*
D10*
X27489000Y-111915000D02*
X41489000Y-111915000D01*
X39494000Y-127910000D02*
X43494000Y-127910000D01*
X41489000Y-111915000D02*
X41489000Y-125915000D01*
X25494000Y-109910000D02*
X25494000Y-114410000D01*
X43494000Y-114410000D02*
X43494000Y-109910000D01*
X25494000Y-109910000D02*
X29494000Y-109910000D01*
D11*
X35739000Y-114470000D02*
X33239000Y-114470000D01*
D10*
X27489000Y-125915000D02*
X27489000Y-111915000D01*
D11*
X54344000Y-95595000D02*
X52744000Y-95595000D01*
X52744000Y-93995000D02*
X54344000Y-93995000D01*
X54344000Y-95595000D02*
X54344000Y-93995000D01*
X52744000Y-95595000D02*
X52744000Y-93995000D01*
X54344000Y-93995000D02*
X54344000Y-95595000D01*
X36976164Y-35158000D02*
X37191836Y-35158000D01*
X36976164Y-34438000D02*
X37191836Y-34438000D01*
X92444000Y-86070000D02*
X92444000Y-84470000D01*
X90844000Y-84470000D02*
X92444000Y-84470000D01*
X92444000Y-84470000D02*
X92444000Y-86070000D01*
X90844000Y-86070000D02*
X90844000Y-84470000D01*
X92444000Y-86070000D02*
X90844000Y-86070000D01*
D10*
X62544000Y-90860000D02*
X58544000Y-90860000D01*
X44544000Y-90860000D02*
X48544000Y-90860000D01*
X44544000Y-108860000D02*
X48544000Y-108860000D01*
X46539000Y-106865000D02*
X46539000Y-92865000D01*
D11*
X54789000Y-94170000D02*
X52289000Y-94170000D01*
D10*
X44544000Y-90860000D02*
X44544000Y-95360000D01*
X62544000Y-104360000D02*
X62544000Y-108860000D01*
X44544000Y-104360000D02*
X44544000Y-108860000D01*
X60539000Y-106865000D02*
X46539000Y-106865000D01*
X46539000Y-92865000D02*
X60539000Y-92865000D01*
X58544000Y-108860000D02*
X62544000Y-108860000D01*
D11*
X54789000Y-95420000D02*
X52289000Y-95420000D01*
X52289000Y-94170000D02*
X52289000Y-95420000D01*
D10*
X62544000Y-95360000D02*
X62544000Y-90860000D01*
D11*
X54789000Y-95420000D02*
X54789000Y-94170000D01*
D10*
X60539000Y-92865000D02*
X60539000Y-106865000D01*
D11*
X46552000Y-87814000D02*
X46552000Y-88239000D01*
X46127000Y-87814000D02*
X46552000Y-87814000D01*
X41757000Y-87814000D02*
X41332000Y-87814000D01*
X46127000Y-93034000D02*
X46552000Y-93034000D01*
X41757000Y-93034000D02*
X41332000Y-93034000D01*
X46552000Y-93034000D02*
X46552000Y-92609000D01*
X41332000Y-93034000D02*
X41332000Y-92609000D01*
X65729000Y-106737000D02*
X65729000Y-107162000D01*
X65304000Y-111957000D02*
X65729000Y-111957000D01*
X60934000Y-111957000D02*
X60509000Y-111957000D01*
X65304000Y-106737000D02*
X65729000Y-106737000D01*
X65729000Y-111957000D02*
X65729000Y-111532000D01*
X60934000Y-106737000D02*
X60509000Y-106737000D01*
X60509000Y-111957000D02*
X60509000Y-111532000D01*
X71339000Y-94170000D02*
X71339000Y-95420000D01*
D10*
X81594000Y-104360000D02*
X81594000Y-108860000D01*
X77594000Y-108860000D02*
X81594000Y-108860000D01*
X79589000Y-106865000D02*
X65589000Y-106865000D01*
D11*
X73839000Y-94170000D02*
X71339000Y-94170000D01*
X73839000Y-95420000D02*
X71339000Y-95420000D01*
D10*
X65589000Y-92865000D02*
X79589000Y-92865000D01*
X81594000Y-90860000D02*
X77594000Y-90860000D01*
X81594000Y-95360000D02*
X81594000Y-90860000D01*
X63594000Y-108860000D02*
X67594000Y-108860000D01*
X63594000Y-90860000D02*
X67594000Y-90860000D01*
X63594000Y-90860000D02*
X63594000Y-95360000D01*
D11*
X73839000Y-95420000D02*
X73839000Y-94170000D01*
D10*
X63594000Y-104360000D02*
X63594000Y-108860000D01*
X79589000Y-92865000D02*
X79589000Y-106865000D01*
X65589000Y-106865000D02*
X65589000Y-92865000D01*
D11*
X51708164Y-90826000D02*
X51492492Y-90826000D01*
X51708164Y-91546000D02*
X51492492Y-91546000D01*
D10*
X63594000Y-70760000D02*
X67594000Y-70760000D01*
D11*
X73839000Y-57320000D02*
X71339000Y-57320000D01*
D10*
X65589000Y-68765000D02*
X65589000Y-54765000D01*
X81594000Y-66260000D02*
X81594000Y-70760000D01*
X79589000Y-68765000D02*
X65589000Y-68765000D01*
X81594000Y-57260000D02*
X81594000Y-52760000D01*
X63594000Y-52760000D02*
X63594000Y-57260000D01*
X79589000Y-54765000D02*
X79589000Y-68765000D01*
X63594000Y-52760000D02*
X67594000Y-52760000D01*
X77594000Y-70760000D02*
X81594000Y-70760000D01*
D11*
X71339000Y-56070000D02*
X71339000Y-57320000D01*
X73839000Y-56070000D02*
X71339000Y-56070000D01*
X73839000Y-57320000D02*
X73839000Y-56070000D01*
D10*
X63594000Y-66260000D02*
X63594000Y-70760000D01*
X81594000Y-52760000D02*
X77594000Y-52760000D01*
X65589000Y-54765000D02*
X79589000Y-54765000D01*
D11*
X52289000Y-75120000D02*
X52289000Y-76370000D01*
D10*
X46539000Y-73815000D02*
X60539000Y-73815000D01*
X44544000Y-89810000D02*
X48544000Y-89810000D01*
X58544000Y-89810000D02*
X62544000Y-89810000D01*
X44544000Y-85310000D02*
X44544000Y-89810000D01*
D11*
X54789000Y-76370000D02*
X52289000Y-76370000D01*
X54789000Y-76370000D02*
X54789000Y-75120000D01*
D10*
X44544000Y-71810000D02*
X48544000Y-71810000D01*
X60539000Y-73815000D02*
X60539000Y-87815000D01*
X60539000Y-87815000D02*
X46539000Y-87815000D01*
X62544000Y-76310000D02*
X62544000Y-71810000D01*
X44544000Y-71810000D02*
X44544000Y-76310000D01*
X62544000Y-71810000D02*
X58544000Y-71810000D01*
D11*
X54789000Y-75120000D02*
X52289000Y-75120000D01*
D10*
X62544000Y-85310000D02*
X62544000Y-89810000D01*
X46539000Y-87815000D02*
X46539000Y-73815000D01*
D11*
X43256000Y-37224000D02*
X41926000Y-37224000D01*
X40596000Y-34624000D02*
X40596000Y-26944000D01*
X43256000Y-34624000D02*
X40596000Y-34624000D01*
X43256000Y-34624000D02*
X43256000Y-26944000D01*
X43256000Y-26944000D02*
X40596000Y-26944000D01*
X43256000Y-35894000D02*
X43256000Y-37224000D01*
X71794000Y-74945000D02*
X73394000Y-74945000D01*
X73394000Y-74945000D02*
X73394000Y-76545000D01*
X71794000Y-76545000D02*
X71794000Y-74945000D01*
X73394000Y-76545000D02*
X71794000Y-76545000D01*
X73394000Y-76545000D02*
X73394000Y-74945000D01*
X51708164Y-89556000D02*
X51492492Y-89556000D01*
X51708164Y-90276000D02*
X51492492Y-90276000D01*
D10*
X43494000Y-52760000D02*
X39494000Y-52760000D01*
X25494000Y-52760000D02*
X29494000Y-52760000D01*
X27489000Y-68765000D02*
X27489000Y-54765000D01*
D11*
X35739000Y-56070000D02*
X33239000Y-56070000D01*
D10*
X41489000Y-68765000D02*
X27489000Y-68765000D01*
D11*
X33239000Y-56070000D02*
X33239000Y-57320000D01*
D10*
X43494000Y-66260000D02*
X43494000Y-70760000D01*
X27489000Y-54765000D02*
X41489000Y-54765000D01*
X43494000Y-57260000D02*
X43494000Y-52760000D01*
X25494000Y-66260000D02*
X25494000Y-70760000D01*
X25494000Y-70760000D02*
X29494000Y-70760000D01*
D11*
X35739000Y-57320000D02*
X35739000Y-56070000D01*
D10*
X39494000Y-70760000D02*
X43494000Y-70760000D01*
X41489000Y-54765000D02*
X41489000Y-68765000D01*
X25494000Y-52760000D02*
X25494000Y-57260000D01*
D11*
X35739000Y-57320000D02*
X33239000Y-57320000D01*
X73839000Y-76370000D02*
X71339000Y-76370000D01*
X73839000Y-75120000D02*
X71339000Y-75120000D01*
X73839000Y-76370000D02*
X73839000Y-75120000D01*
D10*
X63594000Y-89810000D02*
X67594000Y-89810000D01*
X79589000Y-87815000D02*
X65589000Y-87815000D01*
X63594000Y-85310000D02*
X63594000Y-89810000D01*
X63594000Y-71810000D02*
X63594000Y-76310000D01*
X65589000Y-73815000D02*
X79589000Y-73815000D01*
X81594000Y-76310000D02*
X81594000Y-71810000D01*
X79589000Y-73815000D02*
X79589000Y-87815000D01*
X63594000Y-71810000D02*
X67594000Y-71810000D01*
D11*
X71339000Y-75120000D02*
X71339000Y-76370000D01*
D10*
X81594000Y-71810000D02*
X77594000Y-71810000D01*
X77594000Y-89810000D02*
X81594000Y-89810000D01*
X81594000Y-85310000D02*
X81594000Y-89810000D01*
X65589000Y-87815000D02*
X65589000Y-73815000D01*
%LPC*%
D14*
X26089000Y-61060000D03*
X26089000Y-62460000D03*
X45139000Y-99160000D03*
X45139000Y-100560000D03*
X26089000Y-80110000D03*
X26089000Y-81510000D03*
X64189000Y-99160000D03*
X64189000Y-100560000D03*
X64189000Y-61060000D03*
X64189000Y-62460000D03*
X83239000Y-127735000D03*
X83239000Y-129135000D03*
X83239000Y-89635000D03*
X83239000Y-91035000D03*
X45139000Y-118210000D03*
X45139000Y-119610000D03*
X35614000Y-137260000D03*
X35614000Y-138660000D03*
X64189000Y-118210000D03*
X64189000Y-119610000D03*
X26089000Y-118210000D03*
X26089000Y-119610000D03*
X64189000Y-80110000D03*
X64189000Y-81510000D03*
X45139000Y-61060000D03*
X45139000Y-62460000D03*
X83239000Y-61060000D03*
X83239000Y-62460000D03*
X26089000Y-99160000D03*
X26089000Y-100560000D03*
X64189000Y-137260000D03*
X64189000Y-138660000D03*
X45139000Y-80110000D03*
X45139000Y-81510000D03*
D15*
X47829000Y-140500000D03*
D16*
X44019000Y-137960000D03*
D17*
X55957000Y-130975000D03*
D18*
X32081000Y-146215000D03*
X55957000Y-146215000D03*
D15*
X41479000Y-143040000D03*
D17*
X32081000Y-130975000D03*
D19*
X72194000Y-94095000D03*
X72194000Y-95495000D03*
X72994000Y-94095000D03*
X72994000Y-95495000D03*
D20*
X36574000Y-30226000D03*
X37594000Y-30226000D03*
D21*
X37594000Y-33528000D03*
X36574000Y-33528000D03*
D22*
X33764000Y-33028000D03*
X33264000Y-33028000D03*
X32764000Y-33028000D03*
X32264000Y-33028000D03*
X31764000Y-33028000D03*
X31264000Y-33028000D03*
X30764000Y-33028000D03*
X30264000Y-33028000D03*
X29764000Y-33028000D03*
X29264000Y-33028000D03*
D23*
X28579000Y-33713000D03*
X28579000Y-34213000D03*
X28579000Y-34713000D03*
X28579000Y-35213000D03*
X28579000Y-35713000D03*
X28579000Y-36213000D03*
X28579000Y-36713000D03*
X28579000Y-37213000D03*
X28579000Y-37713000D03*
X28579000Y-38213000D03*
D22*
X29264000Y-38898000D03*
X29764000Y-38898000D03*
X30264000Y-38898000D03*
X30764000Y-38898000D03*
X31264000Y-38898000D03*
X31764000Y-38898000D03*
X32264000Y-38898000D03*
X32764000Y-38898000D03*
X33264000Y-38898000D03*
X33764000Y-38898000D03*
D23*
X34449000Y-38213000D03*
X34449000Y-37713000D03*
X34449000Y-37213000D03*
X34449000Y-36713000D03*
X34449000Y-36213000D03*
X34449000Y-35713000D03*
X34449000Y-35213000D03*
X34449000Y-34713000D03*
X34449000Y-34213000D03*
X34449000Y-33713000D03*
D24*
X31514000Y-35963000D03*
D21*
X68328000Y-106934000D03*
X67308000Y-106934000D03*
D15*
X50999000Y-123995000D03*
X57349000Y-121455000D03*
D16*
X53539000Y-118915000D03*
D15*
X76399000Y-140505000D03*
D16*
X72589000Y-137965000D03*
D15*
X70049000Y-143045000D03*
D19*
X72194000Y-55995000D03*
X72194000Y-57395000D03*
X72994000Y-55995000D03*
X72994000Y-57395000D03*
X34094000Y-113145000D03*
X34094000Y-114545000D03*
X34894000Y-113145000D03*
X34894000Y-114545000D03*
D16*
X53539000Y-61765000D03*
D15*
X50999000Y-66845000D03*
X57349000Y-64305000D03*
D19*
X53144000Y-55995000D03*
X53144000Y-57395000D03*
X53944000Y-55995000D03*
X53944000Y-57395000D03*
D17*
X84659000Y-140373000D03*
D15*
X95454000Y-130975000D03*
X89104000Y-133515000D03*
D17*
X84659000Y-116497000D03*
D16*
X91644000Y-128435000D03*
D18*
X99899000Y-140373000D03*
X99899000Y-116497000D03*
D19*
X34094000Y-94095000D03*
X34094000Y-95495000D03*
X34894000Y-94095000D03*
X34894000Y-95495000D03*
X72194000Y-113145000D03*
X72194000Y-114545000D03*
X72994000Y-113145000D03*
X72994000Y-114545000D03*
D21*
X49024000Y-88900000D03*
X48004000Y-88900000D03*
D19*
X53144000Y-75045000D03*
X53144000Y-76445000D03*
X53944000Y-75045000D03*
X53944000Y-76445000D03*
D15*
X89099000Y-66845000D03*
D16*
X91639000Y-61765000D03*
D15*
X95449000Y-64305000D03*
D19*
X43619000Y-132195000D03*
X43619000Y-133595000D03*
X44419000Y-132195000D03*
X44419000Y-133595000D03*
D25*
X100320000Y-35894000D03*
D26*
X100320000Y-33354000D03*
X100320000Y-30814000D03*
X100320000Y-28274000D03*
D19*
X91244000Y-122670000D03*
X91244000Y-124070000D03*
X92044000Y-122670000D03*
X92044000Y-124070000D03*
X53144000Y-113145000D03*
X53144000Y-114545000D03*
X53944000Y-113145000D03*
X53944000Y-114545000D03*
D15*
X95454000Y-92875000D03*
D18*
X99899000Y-102273000D03*
D17*
X84659000Y-78397000D03*
D16*
X91644000Y-90335000D03*
D15*
X89104000Y-95415000D03*
D17*
X84659000Y-102273000D03*
D18*
X99899000Y-78397000D03*
D19*
X34094000Y-75045000D03*
X34094000Y-76445000D03*
X34894000Y-75045000D03*
X34894000Y-76445000D03*
D15*
X70049000Y-123995000D03*
D16*
X72589000Y-118915000D03*
D15*
X76399000Y-121455000D03*
X31949000Y-85895000D03*
X38299000Y-83355000D03*
D16*
X34489000Y-80815000D03*
D19*
X72194000Y-132195000D03*
X72194000Y-133595000D03*
X72994000Y-132195000D03*
X72994000Y-133595000D03*
X91244000Y-55995000D03*
X91244000Y-57395000D03*
X92044000Y-55995000D03*
X92044000Y-57395000D03*
X34094000Y-55995000D03*
X34094000Y-57395000D03*
X34894000Y-55995000D03*
X34894000Y-57395000D03*
D16*
X34489000Y-99865000D03*
D15*
X38299000Y-102405000D03*
X31949000Y-104945000D03*
D20*
X36574000Y-28956000D03*
X37594000Y-28956000D03*
D21*
X37594000Y-31496000D03*
X36574000Y-31496000D03*
D16*
X34489000Y-118915000D03*
D15*
X38299000Y-121455000D03*
X31949000Y-123995000D03*
D19*
X53144000Y-94095000D03*
X53144000Y-95495000D03*
X53944000Y-94095000D03*
X53944000Y-95495000D03*
D27*
X36604000Y-34798000D03*
X37564000Y-34798000D03*
D19*
X91244000Y-84570000D03*
X91244000Y-85970000D03*
X92044000Y-84570000D03*
X92044000Y-85970000D03*
D15*
X50999000Y-104945000D03*
D16*
X53539000Y-99865000D03*
D15*
X57349000Y-102405000D03*
D28*
X41504500Y-88624000D03*
X41504500Y-89024000D03*
X41504500Y-89424000D03*
X41504500Y-89824000D03*
X41504500Y-90224000D03*
X41504500Y-90624000D03*
X41504500Y-91024000D03*
X41504500Y-91424000D03*
X41504500Y-91824000D03*
X41504500Y-92224000D03*
D29*
X42142000Y-92861500D03*
X42542000Y-92861500D03*
X42942000Y-92861500D03*
X43342000Y-92861500D03*
X43742000Y-92861500D03*
X44142000Y-92861500D03*
X44542000Y-92861500D03*
X44942000Y-92861500D03*
X45342000Y-92861500D03*
X45742000Y-92861500D03*
D28*
X46379500Y-92224000D03*
X46379500Y-91824000D03*
D30*
X45142000Y-90424000D03*
X43942000Y-91624000D03*
X43942000Y-90424000D03*
X45142000Y-89224000D03*
X42742000Y-90424000D03*
X45142000Y-91624000D03*
X42742000Y-91624000D03*
X42742000Y-89224000D03*
X43942000Y-89224000D03*
D28*
X46379500Y-91424000D03*
X46379500Y-91024000D03*
X46379500Y-90624000D03*
X46379500Y-90224000D03*
X46379500Y-89824000D03*
X46379500Y-89424000D03*
X46379500Y-89024000D03*
X46379500Y-88624000D03*
D29*
X45742000Y-87986500D03*
X45342000Y-87986500D03*
X44942000Y-87986500D03*
X44542000Y-87986500D03*
X44142000Y-87986500D03*
X43742000Y-87986500D03*
X43342000Y-87986500D03*
X42942000Y-87986500D03*
X42542000Y-87986500D03*
X42142000Y-87986500D03*
D28*
X60681500Y-107547000D03*
X60681500Y-107947000D03*
X60681500Y-108347000D03*
X60681500Y-108747000D03*
X60681500Y-109147000D03*
X60681500Y-109547000D03*
X60681500Y-109947000D03*
X60681500Y-110347000D03*
X60681500Y-110747000D03*
X60681500Y-111147000D03*
D29*
X61319000Y-111784500D03*
X61719000Y-111784500D03*
X62119000Y-111784500D03*
X62519000Y-111784500D03*
X62919000Y-111784500D03*
X63319000Y-111784500D03*
X63719000Y-111784500D03*
X64119000Y-111784500D03*
X64519000Y-111784500D03*
X64919000Y-111784500D03*
D28*
X65556500Y-111147000D03*
X65556500Y-110747000D03*
D30*
X63119000Y-109347000D03*
X64319000Y-108147000D03*
X64319000Y-109347000D03*
X61919000Y-108147000D03*
D28*
X65556500Y-110347000D03*
D30*
X63119000Y-110547000D03*
X63119000Y-108147000D03*
X61919000Y-109347000D03*
X61919000Y-110547000D03*
X64319000Y-110547000D03*
D28*
X65556500Y-109947000D03*
X65556500Y-109547000D03*
X65556500Y-109147000D03*
X65556500Y-108747000D03*
X65556500Y-108347000D03*
X65556500Y-107947000D03*
X65556500Y-107547000D03*
D29*
X64919000Y-106909500D03*
X64519000Y-106909500D03*
X64119000Y-106909500D03*
X63719000Y-106909500D03*
X63319000Y-106909500D03*
X62919000Y-106909500D03*
X62519000Y-106909500D03*
X62119000Y-106909500D03*
X61719000Y-106909500D03*
X61319000Y-106909500D03*
D15*
X76399000Y-102405000D03*
X70049000Y-104945000D03*
D16*
X72589000Y-99865000D03*
D31*
X52080328Y-91186000D03*
X51120328Y-91186000D03*
D15*
X70049000Y-66845000D03*
D16*
X72589000Y-61765000D03*
D15*
X76399000Y-64305000D03*
X50999000Y-85895000D03*
X57349000Y-83355000D03*
D16*
X53539000Y-80815000D03*
D25*
X41926000Y-35894000D03*
D26*
X41926000Y-33354000D03*
X41926000Y-30814000D03*
X41926000Y-28274000D03*
D19*
X72194000Y-75045000D03*
X72194000Y-76445000D03*
X72994000Y-75045000D03*
X72994000Y-76445000D03*
D31*
X52080328Y-89916000D03*
X51120328Y-89916000D03*
D15*
X38299000Y-64305000D03*
D16*
X34489000Y-61765000D03*
D15*
X31949000Y-66845000D03*
X76399000Y-83355000D03*
X70049000Y-85895000D03*
D16*
X72589000Y-80815000D03*
M02*
