G04 #@! TF.GenerationSoftware,KiCad,Pcbnew,(6.0.5)*
G04 #@! TF.CreationDate,2022-06-21T22:28:43+02:00*
G04 #@! TF.ProjectId,Numpad,4e756d70-6164-42e6-9b69-6361645f7063,rev?*
G04 #@! TF.SameCoordinates,Original*
G04 #@! TF.FileFunction,Soldermask,Top*
G04 #@! TF.FilePolarity,Negative*
%FSLAX46Y46*%
G04 Gerber Fmt 4.6, Leading zero omitted, Abs format (unit mm)*
G04 Created by KiCad (PCBNEW (6.0.5)) date 2022-06-21 22:28:43*
%MOMM*%
%LPD*%
G01*
G04 APERTURE LIST*
G04 Aperture macros list*
%AMRoundRect*
0 Rectangle with rounded corners*
0 $1 Rounding radius*
0 $2 $3 $4 $5 $6 $7 $8 $9 X,Y pos of 4 corners*
0 Add a 4 corners polygon primitive as box body*
4,1,4,$2,$3,$4,$5,$6,$7,$8,$9,$2,$3,0*
0 Add four circle primitives for the rounded corners*
1,1,$1+$1,$2,$3*
1,1,$1+$1,$4,$5*
1,1,$1+$1,$6,$7*
1,1,$1+$1,$8,$9*
0 Add four rect primitives between the rounded corners*
20,1,$1+$1,$2,$3,$4,$5,0*
20,1,$1+$1,$4,$5,$6,$7,0*
20,1,$1+$1,$6,$7,$8,$9,0*
20,1,$1+$1,$8,$9,$2,$3,0*%
G04 Aperture macros list end*
%ADD10R,0.700000X0.600000*%
%ADD11C,3.000000*%
%ADD12C,4.000000*%
%ADD13C,3.048000*%
%ADD14C,3.987800*%
%ADD15R,0.650000X0.600000*%
%ADD16RoundRect,0.135000X-0.135000X-0.185000X0.135000X-0.185000X0.135000X0.185000X-0.135000X0.185000X0*%
%ADD17RoundRect,0.135000X0.135000X0.185000X-0.135000X0.185000X-0.135000X-0.185000X0.135000X-0.185000X0*%
%ADD18RoundRect,0.008100X-0.126900X0.421900X-0.126900X-0.421900X0.126900X-0.421900X0.126900X0.421900X0*%
%ADD19RoundRect,0.008100X-0.421900X-0.126900X0.421900X-0.126900X0.421900X0.126900X-0.421900X0.126900X0*%
%ADD20R,4.100000X4.100000*%
%ADD21R,1.700000X1.700000*%
%ADD22O,1.700000X1.700000*%
%ADD23RoundRect,0.140000X-0.140000X-0.170000X0.140000X-0.170000X0.140000X0.170000X-0.140000X0.170000X0*%
%ADD24RoundRect,0.062500X-0.350000X-0.062500X0.350000X-0.062500X0.350000X0.062500X-0.350000X0.062500X0*%
%ADD25RoundRect,0.062500X-0.062500X-0.350000X0.062500X-0.350000X0.062500X0.350000X-0.062500X0.350000X0*%
%ADD26RoundRect,0.242500X-0.242500X-0.242500X0.242500X-0.242500X0.242500X0.242500X-0.242500X0.242500X0*%
%ADD27RoundRect,0.140000X0.140000X0.170000X-0.140000X0.170000X-0.140000X-0.170000X0.140000X-0.170000X0*%
G04 APERTURE END LIST*
D10*
X26089000Y-61060000D03*
X26089000Y-62460000D03*
X45139000Y-99160000D03*
X45139000Y-100560000D03*
X26089000Y-80110000D03*
X26089000Y-81510000D03*
X64189000Y-99160000D03*
X64189000Y-100560000D03*
X64189000Y-61060000D03*
X64189000Y-62460000D03*
X83239000Y-127735000D03*
X83239000Y-129135000D03*
X83239000Y-89635000D03*
X83239000Y-91035000D03*
X45139000Y-118210000D03*
X45139000Y-119610000D03*
X35614000Y-137260000D03*
X35614000Y-138660000D03*
X64189000Y-118210000D03*
X64189000Y-119610000D03*
X26089000Y-118210000D03*
X26089000Y-119610000D03*
X64189000Y-80110000D03*
X64189000Y-81510000D03*
X45139000Y-61060000D03*
X45139000Y-62460000D03*
X83239000Y-61060000D03*
X83239000Y-62460000D03*
X26089000Y-99160000D03*
X26089000Y-100560000D03*
X64189000Y-137260000D03*
X64189000Y-138660000D03*
X45139000Y-80110000D03*
X45139000Y-81510000D03*
D11*
X47829000Y-140500000D03*
D12*
X44019000Y-137960000D03*
D13*
X55957000Y-130975000D03*
D14*
X32081000Y-146215000D03*
X55957000Y-146215000D03*
D11*
X41479000Y-143040000D03*
D13*
X32081000Y-130975000D03*
D15*
X72194000Y-94095000D03*
X72194000Y-95495000D03*
X72994000Y-94095000D03*
X72994000Y-95495000D03*
D16*
X36574000Y-30226000D03*
X37594000Y-30226000D03*
D17*
X37594000Y-33528000D03*
X36574000Y-33528000D03*
D18*
X33764000Y-33028000D03*
X33264000Y-33028000D03*
X32764000Y-33028000D03*
X32264000Y-33028000D03*
X31764000Y-33028000D03*
X31264000Y-33028000D03*
X30764000Y-33028000D03*
X30264000Y-33028000D03*
X29764000Y-33028000D03*
X29264000Y-33028000D03*
D19*
X28579000Y-33713000D03*
X28579000Y-34213000D03*
X28579000Y-34713000D03*
X28579000Y-35213000D03*
X28579000Y-35713000D03*
X28579000Y-36213000D03*
X28579000Y-36713000D03*
X28579000Y-37213000D03*
X28579000Y-37713000D03*
X28579000Y-38213000D03*
D18*
X29264000Y-38898000D03*
X29764000Y-38898000D03*
X30264000Y-38898000D03*
X30764000Y-38898000D03*
X31264000Y-38898000D03*
X31764000Y-38898000D03*
X32264000Y-38898000D03*
X32764000Y-38898000D03*
X33264000Y-38898000D03*
X33764000Y-38898000D03*
D19*
X34449000Y-38213000D03*
X34449000Y-37713000D03*
X34449000Y-37213000D03*
X34449000Y-36713000D03*
X34449000Y-36213000D03*
X34449000Y-35713000D03*
X34449000Y-35213000D03*
X34449000Y-34713000D03*
X34449000Y-34213000D03*
X34449000Y-33713000D03*
D20*
X31514000Y-35963000D03*
D17*
X68328000Y-106934000D03*
X67308000Y-106934000D03*
D11*
X50999000Y-123995000D03*
X57349000Y-121455000D03*
D12*
X53539000Y-118915000D03*
D11*
X76399000Y-140505000D03*
D12*
X72589000Y-137965000D03*
D11*
X70049000Y-143045000D03*
D15*
X72194000Y-55995000D03*
X72194000Y-57395000D03*
X72994000Y-55995000D03*
X72994000Y-57395000D03*
X34094000Y-113145000D03*
X34094000Y-114545000D03*
X34894000Y-113145000D03*
X34894000Y-114545000D03*
D12*
X53539000Y-61765000D03*
D11*
X50999000Y-66845000D03*
X57349000Y-64305000D03*
D15*
X53144000Y-55995000D03*
X53144000Y-57395000D03*
X53944000Y-55995000D03*
X53944000Y-57395000D03*
D13*
X84659000Y-140373000D03*
D11*
X95454000Y-130975000D03*
X89104000Y-133515000D03*
D13*
X84659000Y-116497000D03*
D12*
X91644000Y-128435000D03*
D14*
X99899000Y-140373000D03*
X99899000Y-116497000D03*
D15*
X34094000Y-94095000D03*
X34094000Y-95495000D03*
X34894000Y-94095000D03*
X34894000Y-95495000D03*
X72194000Y-113145000D03*
X72194000Y-114545000D03*
X72994000Y-113145000D03*
X72994000Y-114545000D03*
D17*
X49024000Y-88900000D03*
X48004000Y-88900000D03*
D15*
X53144000Y-75045000D03*
X53144000Y-76445000D03*
X53944000Y-75045000D03*
X53944000Y-76445000D03*
D11*
X89099000Y-66845000D03*
D12*
X91639000Y-61765000D03*
D11*
X95449000Y-64305000D03*
D15*
X43619000Y-132195000D03*
X43619000Y-133595000D03*
X44419000Y-132195000D03*
X44419000Y-133595000D03*
D21*
X100320000Y-35894000D03*
D22*
X100320000Y-33354000D03*
X100320000Y-30814000D03*
X100320000Y-28274000D03*
D15*
X91244000Y-122670000D03*
X91244000Y-124070000D03*
X92044000Y-122670000D03*
X92044000Y-124070000D03*
X53144000Y-113145000D03*
X53144000Y-114545000D03*
X53944000Y-113145000D03*
X53944000Y-114545000D03*
D11*
X95454000Y-92875000D03*
D14*
X99899000Y-102273000D03*
D13*
X84659000Y-78397000D03*
D12*
X91644000Y-90335000D03*
D11*
X89104000Y-95415000D03*
D13*
X84659000Y-102273000D03*
D14*
X99899000Y-78397000D03*
D15*
X34094000Y-75045000D03*
X34094000Y-76445000D03*
X34894000Y-75045000D03*
X34894000Y-76445000D03*
D11*
X70049000Y-123995000D03*
D12*
X72589000Y-118915000D03*
D11*
X76399000Y-121455000D03*
X31949000Y-85895000D03*
X38299000Y-83355000D03*
D12*
X34489000Y-80815000D03*
D15*
X72194000Y-132195000D03*
X72194000Y-133595000D03*
X72994000Y-132195000D03*
X72994000Y-133595000D03*
X91244000Y-55995000D03*
X91244000Y-57395000D03*
X92044000Y-55995000D03*
X92044000Y-57395000D03*
X34094000Y-55995000D03*
X34094000Y-57395000D03*
X34894000Y-55995000D03*
X34894000Y-57395000D03*
D12*
X34489000Y-99865000D03*
D11*
X38299000Y-102405000D03*
X31949000Y-104945000D03*
D16*
X36574000Y-28956000D03*
X37594000Y-28956000D03*
D17*
X37594000Y-31496000D03*
X36574000Y-31496000D03*
D12*
X34489000Y-118915000D03*
D11*
X38299000Y-121455000D03*
X31949000Y-123995000D03*
D15*
X53144000Y-94095000D03*
X53144000Y-95495000D03*
X53944000Y-94095000D03*
X53944000Y-95495000D03*
D23*
X36604000Y-34798000D03*
X37564000Y-34798000D03*
D15*
X91244000Y-84570000D03*
X91244000Y-85970000D03*
X92044000Y-84570000D03*
X92044000Y-85970000D03*
D11*
X50999000Y-104945000D03*
D12*
X53539000Y-99865000D03*
D11*
X57349000Y-102405000D03*
D24*
X41504500Y-88624000D03*
X41504500Y-89024000D03*
X41504500Y-89424000D03*
X41504500Y-89824000D03*
X41504500Y-90224000D03*
X41504500Y-90624000D03*
X41504500Y-91024000D03*
X41504500Y-91424000D03*
X41504500Y-91824000D03*
X41504500Y-92224000D03*
D25*
X42142000Y-92861500D03*
X42542000Y-92861500D03*
X42942000Y-92861500D03*
X43342000Y-92861500D03*
X43742000Y-92861500D03*
X44142000Y-92861500D03*
X44542000Y-92861500D03*
X44942000Y-92861500D03*
X45342000Y-92861500D03*
X45742000Y-92861500D03*
D24*
X46379500Y-92224000D03*
X46379500Y-91824000D03*
D26*
X45142000Y-90424000D03*
X43942000Y-91624000D03*
X43942000Y-90424000D03*
X45142000Y-89224000D03*
X42742000Y-90424000D03*
X45142000Y-91624000D03*
X42742000Y-91624000D03*
X42742000Y-89224000D03*
X43942000Y-89224000D03*
D24*
X46379500Y-91424000D03*
X46379500Y-91024000D03*
X46379500Y-90624000D03*
X46379500Y-90224000D03*
X46379500Y-89824000D03*
X46379500Y-89424000D03*
X46379500Y-89024000D03*
X46379500Y-88624000D03*
D25*
X45742000Y-87986500D03*
X45342000Y-87986500D03*
X44942000Y-87986500D03*
X44542000Y-87986500D03*
X44142000Y-87986500D03*
X43742000Y-87986500D03*
X43342000Y-87986500D03*
X42942000Y-87986500D03*
X42542000Y-87986500D03*
X42142000Y-87986500D03*
D24*
X60681500Y-107547000D03*
X60681500Y-107947000D03*
X60681500Y-108347000D03*
X60681500Y-108747000D03*
X60681500Y-109147000D03*
X60681500Y-109547000D03*
X60681500Y-109947000D03*
X60681500Y-110347000D03*
X60681500Y-110747000D03*
X60681500Y-111147000D03*
D25*
X61319000Y-111784500D03*
X61719000Y-111784500D03*
X62119000Y-111784500D03*
X62519000Y-111784500D03*
X62919000Y-111784500D03*
X63319000Y-111784500D03*
X63719000Y-111784500D03*
X64119000Y-111784500D03*
X64519000Y-111784500D03*
X64919000Y-111784500D03*
D24*
X65556500Y-111147000D03*
X65556500Y-110747000D03*
D26*
X63119000Y-109347000D03*
X64319000Y-108147000D03*
X64319000Y-109347000D03*
X61919000Y-108147000D03*
D24*
X65556500Y-110347000D03*
D26*
X63119000Y-110547000D03*
X63119000Y-108147000D03*
X61919000Y-109347000D03*
X61919000Y-110547000D03*
X64319000Y-110547000D03*
D24*
X65556500Y-109947000D03*
X65556500Y-109547000D03*
X65556500Y-109147000D03*
X65556500Y-108747000D03*
X65556500Y-108347000D03*
X65556500Y-107947000D03*
X65556500Y-107547000D03*
D25*
X64919000Y-106909500D03*
X64519000Y-106909500D03*
X64119000Y-106909500D03*
X63719000Y-106909500D03*
X63319000Y-106909500D03*
X62919000Y-106909500D03*
X62519000Y-106909500D03*
X62119000Y-106909500D03*
X61719000Y-106909500D03*
X61319000Y-106909500D03*
D11*
X76399000Y-102405000D03*
X70049000Y-104945000D03*
D12*
X72589000Y-99865000D03*
D27*
X52080328Y-91186000D03*
X51120328Y-91186000D03*
D11*
X70049000Y-66845000D03*
D12*
X72589000Y-61765000D03*
D11*
X76399000Y-64305000D03*
X50999000Y-85895000D03*
X57349000Y-83355000D03*
D12*
X53539000Y-80815000D03*
D21*
X41926000Y-35894000D03*
D22*
X41926000Y-33354000D03*
X41926000Y-30814000D03*
X41926000Y-28274000D03*
D15*
X72194000Y-75045000D03*
X72194000Y-76445000D03*
X72994000Y-75045000D03*
X72994000Y-76445000D03*
D27*
X52080328Y-89916000D03*
X51120328Y-89916000D03*
D11*
X38299000Y-64305000D03*
D12*
X34489000Y-61765000D03*
D11*
X31949000Y-66845000D03*
X76399000Y-83355000D03*
X70049000Y-85895000D03*
D12*
X72589000Y-80815000D03*
M02*
