M48
INCH
T1C0.0118
T2C0.0197
T3C0.0394
%
G90
G05
T1
X0.89Y-1.81
X0.89Y-1.87
X0.91Y-1.91
X0.92Y-1.77
X0.9302Y-1.9412
X0.9489Y-1.9763
X0.95Y-1.73
X0.96Y-3.52
X0.97Y-2.01
X0.98Y-1.69
X0.99Y-1.52
X0.99Y-2.3
X1.01Y-1.64
X1.03Y-1.52
X1.04Y-1.61
X1.042Y-3.2594
X1.042Y-4.0194
X1.042Y-4.7794
X1.062Y-2.5194
X1.07Y-1.52
X1.422Y-5.5194
X1.442Y-2.1994
X1.442Y-4.4394
X1.4465Y-3.6778
X1.45Y-2.03
X1.462Y-2.9394
X1.48Y-2.0
X1.5Y-3.8144
X1.51Y-3.54
X1.52Y-1.59
X1.52Y-1.97
X1.5202Y-1.3696
X1.5237Y-1.4348
X1.53Y-1.22
X1.54Y-3.19
X1.5419Y-3.8436
X1.55Y-1.29
X1.5661Y-3.5232
X1.58Y-1.56
X1.58Y-3.71
X1.58Y-3.9
X1.59Y-3.13
X1.59Y-3.18
X1.5985Y-2.2315
X1.6285Y-2.2915
X1.642Y-5.2294
X1.6585Y-2.1515
X1.6622Y-3.7098
X1.6806Y-2.9794
X1.7Y-3.36
X1.7Y-3.73
X1.71Y-3.04
X1.71Y-5.15
X1.725Y-3.705
X1.735Y-3.355
X1.745Y-3.735
X1.7606Y-2.8994
X1.77Y-3.37
X1.78Y-3.73
X1.802Y-2.5194
X1.802Y-3.2594
X1.802Y-4.0194
X1.802Y-4.7794
X1.815Y-3.73
X1.83Y-5.3
X1.85Y-3.73
X1.865Y-3.6
X1.87Y-5.26
X1.885Y-3.695
X1.91Y-3.56
X1.915Y-3.625
X1.915Y-3.825
X1.94Y-3.58
X1.96Y-3.53
X1.9656Y-4.3994
X1.995Y-4.54
X2.0Y-3.5
X2.0356Y-4.4794
X2.14Y-3.56
X2.1579Y-4.2971
X2.1723Y-3.7687
X2.202Y-2.1994
X2.202Y-2.9394
X2.202Y-3.6794
X2.202Y-3.828
X2.202Y-4.4394
X2.22Y-3.46
X2.23Y-3.79
X2.2479Y-3.4199
X2.26Y-3.69
X2.2816Y-4.4905
X2.2829Y-4.2971
X2.31Y-3.43
X2.3143Y-3.7657
X2.33Y-4.27
X2.33Y-4.54
X2.335Y-4.345
X2.36Y-3.43
X2.36Y-3.57
X2.36Y-3.81
X2.3611Y-4.5243
X2.38Y-1.97
X2.42Y-3.19
X2.42Y-3.95
X2.42Y-4.45
X2.43Y-3.91
X2.44Y-3.16
X2.45Y-3.88
X2.4569Y-1.4131
X2.46Y-4.05
X2.48Y-4.45
X2.48Y-4.49
X2.48Y-5.125
X2.49Y-1.0
X2.4921Y-4.0678
X2.505Y-4.525
X2.53Y-4.07
X2.5394Y-4.467
X2.542Y-2.5194
X2.542Y-3.2594
X2.542Y-4.0194
X2.542Y-5.5194
X2.548Y-3.8112
X2.56Y-3.77
X2.562Y-4.7794
X2.625Y-4.345
X2.63Y-4.54
X2.65Y-4.37
X2.69Y-2.23
X2.69Y-3.87
X2.69Y-4.24
X2.7Y-2.98
X2.7057Y-3.7343
X2.72Y-3.89
X2.7304Y-2.2596
X2.7372Y-3.0093
X2.75Y-3.92
X2.7504Y-3.7596
X2.765Y-4.445
X2.765Y-4.535
X2.7655Y-2.2045
X2.7755Y-2.9545
X2.78Y-3.71
X2.8378Y-4.2489
X2.87Y-4.28
X2.87Y-4.89
X2.905Y-4.875
X2.942Y-2.1994
X2.942Y-2.9394
X2.942Y-3.6794
X2.942Y-4.4394
X2.942Y-5.1794
X3.12Y-2.0
X3.17Y-3.63
X3.18Y-3.36
X3.182Y-4.8594
X3.182Y-5.1394
X3.2Y-3.76
X3.212Y-5.2294
X3.22Y-3.38
X3.22Y-3.8
X3.222Y-4.8594
X3.24Y-3.42
X3.242Y-5.2994
X3.2472Y-4.8846
X3.282Y-3.8394
X3.282Y-4.9794
X3.282Y-5.3394
X3.2829Y-3.453
X3.302Y-2.5194
X3.302Y-3.6394
X3.302Y-5.1394
X3.682Y-3.3394
X3.682Y-4.8394
X3.702Y-2.2194
X3.86Y-2.06
T2
X1.6828Y-3.5128
X1.6828Y-3.56
X1.6828Y-3.6072
X1.73Y-3.5128
X1.73Y-3.56
X1.73Y-3.6072
X1.7772Y-3.5128
X1.7772Y-3.56
X1.7772Y-3.6072
X2.4378Y-4.2578
X2.4378Y-4.305
X2.4378Y-4.3522
X2.485Y-4.2578
X2.485Y-4.305
X2.485Y-4.3522
X2.5322Y-4.2578
X2.5322Y-4.305
X2.5322Y-4.3522
T3
X1.6506Y-1.1131
X1.6506Y-1.2131
X1.6506Y-1.3131
X1.6506Y-1.4131
X3.9496Y-1.1131
X3.9496Y-1.2131
X3.9496Y-1.3131
X3.9496Y-1.4131
T0
M30
